<?xml version="1.0" encoding="UTF-8" standalone="no"?>
<!-- Generator: Adobe Illustrator 18.0.0, SVG Export Plug-In . SVG Version: 6.00 Build 0)  -->

<svg
   xmlns:dc="http://purl.org/dc/elements/1.1/"
   xmlns:cc="http://creativecommons.org/ns#"
   xmlns:rdf="http://www.w3.org/1999/02/22-rdf-syntax-ns#"
   xmlns:svg="http://www.w3.org/2000/svg"
   xmlns="http://www.w3.org/2000/svg"
   xmlns:sodipodi="http://sodipodi.sourceforge.net/DTD/sodipodi-0.dtd"
   xmlns:inkscape="http://www.inkscape.org/namespaces/inkscape"
   version="1.1"
   id="Layer_1"
   x="0px"
   y="0px"
   viewBox="0 0 140 69.551283"
   enable-background="new 0 0 267 153"
   xml:space="preserve"
   inkscape:version="0.48.4 r9939"
   width="100%"
   height="100%"
   sodipodi:docname="header_EC_logo_inverted.svg"><metadata
   id="metadata89"><rdf:RDF><cc:Work
       rdf:about=""><dc:format>image/svg+xml</dc:format><dc:type
         rdf:resource="http://purl.org/dc/dcmitype/StillImage" /><dc:title></dc:title></cc:Work></rdf:RDF></metadata><defs
   id="defs87" /><sodipodi:namedview
   pagecolor="#ffffff"
   bordercolor="#666666"
   borderopacity="1"
   objecttolerance="10"
   gridtolerance="10"
   guidetolerance="10"
   inkscape:pageopacity="0"
   inkscape:pageshadow="2"
   inkscape:window-width="1920"
   inkscape:window-height="1003"
   id="namedview85"
   showgrid="false"
   fit-margin-top="0"
   fit-margin-left="0"
   fit-margin-right="0"
   fit-margin-bottom="0"
   inkscape:zoom="1.2696629"
   inkscape:cx="125.5"
   inkscape:cy="60.700001"
   inkscape:window-x="-9"
   inkscape:window-y="-9"
   inkscape:window-maximized="1"
   inkscape:current-layer="Layer_1" />
<g
   id="g3"
   transform="matrix(0.56089744,0,0,0.56089744,-4.4871826,-7.4038462)">
	<path
   d="m 8.1,58.7 c 0,0 73.9,-9.6 76,-10 3.2,-0.5 6,-1.1 8.7,-1.9 6,-1.6 11.5,-4.2 16.3,-7.5 4.7,-3.2 9,-7.7 13.3,-12.8 2.7,-3.2 5.6,-7.4 8.3,-11.4 v -1.9 c -3.2,4.7 -6.3,8.8 -9.5,12.4 -4.3,4.8 -8.8,8.7 -13.3,11.7 -4.7,3.1 -10,5.3 -15.8,6.8 -2.6,0.7 -5.3,1.2 -8.4,1.6 -2,0.3 -4.2,0.5 -6.2,0.7 -0.8,0.1 -69.4,7.4 -69.4,7.4 v 4.9 z"
   id="path5"
   inkscape:connector-curvature="0"
   style="fill:#ffffff" />
	<path
   d="m 107.2,46.2 c -4.6,2.7 -10,4.6 -15.9,5.8 -2.5,0.5 -5.3,0.9 -8.4,1.3 -1.8,0.2 -3.7,0.4 -5.6,0.5 -1,0.1 -2,0.2 -3,0.3 -22.6,2 -45.2,4.2 -66.2,6.3 v 4.8 c 21.2,-2.6 43.9,-5.3 66.6,-7.9 1,-0.1 2,-0.2 3,-0.3 1.9,-0.2 3.7,-0.4 5.6,-0.7 3.2,-0.4 6,-0.9 8.6,-1.5 6.1,-1.4 11.7,-3.6 16.5,-6.5 4.8,-2.9 9,-6.9 13.5,-11.8 2.8,-3.1 6,-7.4 8.9,-11.5 v -1.8 c -3.5,4.7 -6.7,8.7 -10,12.1 -4.5,4.7 -9,8.3 -13.6,10.9"
   id="path7"
   inkscape:connector-curvature="0"
   style="fill:#ffffff" />
	<path
   d="m 120.1,45.1 c -4.5,4.2 -9.2,7.4 -14,9.7 -4.7,2.3 -9.9,3.9 -16,4.9 -2.5,0.4 -5.2,0.8 -8.3,1 L 8.1,66.8 v 4.8 l 65.5,-7 8.5,-0.9 c 3.2,-0.4 6,-0.8 8.5,-1.3 6.3,-1.2 11.7,-3 16.5,-5.5 4.9,-2.5 9.8,-6.7 14.4,-11.1 3.1,-3 6,-6.8 9.2,-10.8 v -1.6 c -3.6,4.6 -7.1,8.5 -10.6,11.7"
   id="path9"
   inkscape:connector-curvature="0"
   style="fill:#ffffff" />
	<path
   d="M 102.3,70.1 C 98,72.5 94.8,73.9 88.7,74.6 85,75 81.2,75.2 77.5,75.4 75.7,75.5 73.9,75.6 72.2,75.7 61,76.3 50.1,77 38.9,77.7 L 8.1,79.8 v 4.8 l 31.1,-2.9 c 10.1,-0.9 21.7,-2 33.1,-2.9 l 8.3,-0.6 c 3.2,-0.3 5.9,-0.5 8.3,-0.8 6.3,-0.8 11.7,-2.1 16.5,-3.9 5.1,-1.9 10,-4.9 14.8,-8.5 4.4,-3.2 10.4,-9.5 10.4,-9.6 v -1.7 c -4,3.9 -6.2,6.1 -10.6,9 -5,3.4 -13.8,5.2 -17.7,7.4"
   id="path11"
   inkscape:connector-curvature="0"
   style="fill:#ffffff" />
	<path
   d="m 103.9,79.2 c -4.7,1.4 -9.9,2.3 -16,2.8 -2.5,0.2 -5.2,0.4 -8.2,0.5 L 71.5,83 C 51,84 30.6,85 8.2,86.2 V 91 c 21.5,-1.7 42.5,-3.3 63.5,-4.8 l 8.2,-0.6 c 3.2,-0.2 5.8,-0.4 8.3,-0.7 6.3,-0.7 11.6,-1.8 16.4,-3.3 5.3,-1.7 10.4,-4.1 15.3,-7.3 3.6,-2.3 7.2,-5.1 10.9,-8.3 v -0.1 c -4.1,3.5 -8,4.3 -11.9,6.7 -4.9,2.9 -9.9,5.1 -15,6.6"
   id="path13"
   inkscape:connector-curvature="0"
   style="fill:#ffffff" />
	<path
   d="m 103.1,87.2 c -4.7,1.1 -9.8,1.8 -16,2.2 -2.4,0.2 -5,0.3 -8.1,0.4 l -8.2,0.3 C 50.2,90.9 29.4,91.8 8,92.7 v 4.8 C 29.2,96 50,94.6 70.9,93.3 L 79,92.8 c 3.2,-0.2 5.8,-0.4 8.2,-0.6 6.3,-0.6 11.5,-1.4 16.3,-2.7 5.4,-1.4 10.6,-3.4 15.5,-6.1 3.8,-2 7.6,-4.5 11.6,-7.4 v -2 c -4.3,3.1 -8.3,5.6 -12.4,7.7 -4.7,2.5 -9.8,4.3 -15.1,5.5"
   id="path15"
   inkscape:connector-curvature="0"
   style="fill:#ffffff" />
	<path
   d="m 102.4,95.1 c -4.7,0.9 -9.8,1.4 -15.9,1.7 -2.3,0.1 -4.8,0.2 -8.1,0.3 L 8.1,99 v 4.8 l 62.4,-3.3 8.1,-0.4 c 3.2,-0.1 5.7,-0.3 8.1,-0.5 6.3,-0.5 11.4,-1.2 16.2,-2.2 5.4,-1.1 10.7,-2.8 15.7,-4.9 4,-1.7 8,-3.8 12.2,-6.3 v -1.9 c -4.5,2.6 -8.7,4.7 -12.9,6.4 -5,1.9 -10.2,3.4 -15.5,4.4"
   id="path17"
   inkscape:connector-curvature="0"
   style="fill:#ffffff" />
	<path
   d="m 101.9,102.9 c -8.6,1.2 -17.5,1.3 -26.1,1.4 -2,0 -3.9,0.1 -5.9,0.1 l -61.7,1.1 v 4.8 l 61.9,-2.7 c 2,-0.1 3.9,-0.2 5.9,-0.2 8.7,-0.3 17.6,-0.7 26.3,-2.1 5.5,-0.9 10.9,-2.2 15.8,-3.9 4.1,-1.4 8.4,-3.2 12.7,-5.3 v -1.8 c -4.5,2.1 -9,3.9 -13.3,5.2 -5,1.6 -10.2,2.7 -15.6,3.4"
   id="path19"
   inkscape:connector-curvature="0"
   style="fill:#ffffff" />
	<path
   d="m 101.4,110.8 c -8.1,0.7 -16.4,0.7 -24.4,0.7 -2.5,0 -5,0 -7.5,0 -20.5,0.1 -40.7,0.3 -61.4,0.4 v 4.8 c 19.7,-0.7 40.6,-1.4 61.5,-2 2.5,-0.1 5,-0.1 7.4,-0.2 8,-0.2 16.4,-0.4 24.5,-1.3 5.7,-0.6 10.9,-1.5 15.9,-2.8 4.3,-1.1 8.8,-2.5 13.3,-4.2 v -1.8 c -4.6,1.7 -9.2,3 -13.7,4 -4.9,1.2 -10,2 -15.6,2.4"
   id="path21"
   inkscape:connector-curvature="0"
   style="fill:#ffffff" />
	<path
   d="m 101.1,118.6 c -3.4,0.1 -7,0.2 -11.2,0.2 -1.6,0 -3.1,0 -4.7,0 l -15.9,-0.2 c -10.9,-0.1 -21.7,-0.1 -31.8,-0.1 l -29.4,0 v 4.8 l 29.4,-0.8 c 10.1,-0.2 21,-0.5 31.8,-0.7 l 15.9,-0.2 c 4.4,-0.1 10.1,-0.2 16,-0.6 5.7,-0.4 10.9,-0.9 15.9,-1.7 4.5,-0.7 9.1,-1.7 13.7,-2.9 v -1.7 c -4.7,1.1 -9.4,2 -13.9,2.6 -5,0.7 -10.2,1.1 -15.8,1.3"
   id="path23"
   inkscape:connector-curvature="0"
   style="fill:#ffffff" />
	<path
   d="M 85,126.2 69.2,126 C 49,125.7 28.8,125.3 8.1,125 v 4.8 c 19.7,-0.1 40.5,-0.3 61.1,-0.5 l 15.9,-0.2 c 5.3,-0.1 10.6,-0.2 15.9,-0.4 10.9,-0.4 20.7,-1.1 29.8,-2.3 v -1.7 c -9.2,1 -18.9,1.5 -29.9,1.6 -5.3,0 -10.6,-0.1 -15.9,-0.1"
   id="path25"
   inkscape:connector-curvature="0"
   style="fill:#ffffff" />
	<polygon
   points="130.7,136.3 130.7,134.7 8.1,131.5 8.1,136.3 "
   id="polygon27"
   style="fill:#ffffff" />
	<path
   d="m 119.7,54.1 c -4.7,3.8 -8.3,6.5 -14,8.7 -5,2 -10.3,2.8 -16.4,3.6 -3.9,0.6 -8,1.4 -11.9,1.6 -1.6,0.1 -3.2,0.2 -4.8,0.3 L 8.1,73.2 V 78 l 64.7,-6.3 8.4,-0.8 c 3.1,-0.3 5.9,-0.6 8.4,-1.1 6.3,-1 11.7,-2.6 16.5,-4.7 5,-2.2 10.1,-5.9 14.8,-9.9 3.2,-2.7 6.3,-6.1 9.7,-9.9 v -1.7 c -3.9,4.2 -7.3,7.6 -10.9,10.5"
   id="path29"
   inkscape:connector-curvature="0"
   style="fill:#ffffff" />
	<path
   d="m 182.9,13.2 c 0,0 22.1,35.2 26.1,41.6 4,6.4 8.6,11.5 25,15 16.3,3.5 23.4,5.1 23.4,5.1 v 1.3 c 0,0 -10.4,-2.2 -23.7,-5.2 -13.4,-3 -18.8,-4 -24.9,-12.5 -5.1,-7 -25.9,-37 -25.9,-37 v -8.3 z"
   id="path31"
   inkscape:connector-curvature="0"
   style="fill:#ffffff" />
	<path
   d="m 182.9,53.4 c 0,0 20.1,21.1 25.9,27.1 6.2,6.4 14.1,8.8 25,10.7 10.4,1.9 23.6,4 23.6,4 v 1.2 c 0,0 -12.4,-2 -23.6,-4 -11,-1.9 -18.7,-2.9 -25.1,-8.8 C 203,78.4 182.9,59.5 182.9,59.5 v -6.1 z"
   id="path33"
   inkscape:connector-curvature="0"
   style="fill:#ffffff" />
	<path
   d="m 182.9,62.9 c 0,0 19.1,17.7 25.9,23.8 6.3,5.6 11.3,7.3 25.1,9.7 13.8,2.4 23.6,4 23.6,4 v 1.3 c 0,0 -12.4,-2 -23.6,-3.8 C 222.7,96.1 215.6,95.4 208.9,90 201.2,83.7 183,68.8 183,68.8 v -5.9 z"
   id="path35"
   inkscape:connector-curvature="0"
   style="fill:#ffffff" />
	<path
   d="m 182.9,73 c 0,0 21.8,17.3 25.9,20.3 4.1,3 9.5,6.6 25.1,8.8 15.5,2.2 23.5,3.4 23.5,3.4 v 1.3 c 0,0 -14.1,-2 -23.5,-3.2 -9.4,-1.2 -16.6,-1.7 -25.1,-7.3 -8.2,-5.5 -26,-18 -26,-18 V 73 z"
   id="path37"
   inkscape:connector-curvature="0"
   style="fill:#ffffff" />
	<path
   d="m 182.9,82.7 c 0,0 21.9,14.6 26,16.9 4.1,2.3 9,6.1 25,8.1 16,2 23.5,3 23.5,3 v 1.3 c 0,0 -13.2,-1.4 -23.6,-2.6 -10.3,-1.1 -17.4,-2.6 -25.1,-6.9 C 201,98.3 182.8,87.6 182.8,87.6 v -4.9 z"
   id="path39"
   inkscape:connector-curvature="0"
   style="fill:#ffffff" />
	<path
   d="m 182.9,92.4 c 0,0 19.3,10.5 25.9,13.8 7.3,3.7 13.6,5.4 25.1,6.8 11.2,1.3 23.6,2.6 23.6,2.6 v 1.2 c 0,0 -11.4,-1.2 -23.6,-2.4 -12.1,-1.1 -16.4,-1.7 -25.1,-5.5 C 201,105.5 182.9,97 182.9,97 v -4.6 z"
   id="path41"
   inkscape:connector-curvature="0"
   style="fill:#ffffff" />
	<path
   d="m 182.9,102.3 c 0,0 15.3,6.5 26,10.8 10.6,4.2 18.6,4.5 25.1,5.3 2.8,0.3 23.4,2.4 23.4,2.4 v 1.2 c 0,0 -12.3,-1 -23.5,-2 -11.2,-1 -16,-1.4 -25.1,-4.4 -9.2,-3 -26,-8.9 -26,-8.9 v -4.4 z"
   id="path43"
   inkscape:connector-curvature="0"
   style="fill:#ffffff" />
	<path
   d="m 182.9,112.3 c 0,0 15.4,4.8 26,7.6 10.5,2.8 20.2,3.9 25.1,4.2 4.9,0.3 23.5,1.8 23.5,1.8 v 1.1 c 0,0 -10.6,-0.7 -23.6,-1.6 -10.5,-0.7 -18.9,-1.5 -25.1,-2.9 -6.8,-1.5 -25.9,-6 -25.9,-6 v -4.2 z"
   id="path45"
   inkscape:connector-curvature="0"
   style="fill:#ffffff" />
	<path
   d="m 182.9,122.2 c 0,0 12.6,2.2 26,4.4 10,1.7 23.6,2.7 25,2.8 1.4,0.1 23.6,1.6 23.6,1.6 v 1.2 c 0,0 -14.1,-0.7 -23.6,-1.3 -9.8,-0.5 -19.5,-1.1 -25.1,-1.7 -12.4,-1.3 -25.9,-3 -25.9,-3 v -4 z"
   id="path47"
   inkscape:connector-curvature="0"
   style="fill:#ffffff" />
	<path
   d="m 182.9,132.4 c 0,0 19.9,0.7 26,0.9 6.1,0.1 48.5,1.8 48.5,1.8 v 1.2 h -74.5 v -3.9 z"
   id="path49"
   inkscape:connector-curvature="0"
   style="fill:#ffffff" />
	<path
   d="M 233.9,75.3 C 215.9,71.4 211.8,64.8 208.8,60.7 205.8,56.6 183,23.3 183,23.3 v 7.5 c 0.9,1.2 20.4,26.7 25.9,33.8 6.2,7.9 15.9,9.8 25.1,11.7 9.2,2 23.6,4.7 23.6,4.7 v -1 c -0.2,0 -19.1,-3.7 -23.7,-4.7"
   id="path51"
   inkscape:connector-curvature="0"
   style="fill:#ffffff" />
	<path
   d="M 233.9,80.5 C 219.1,77.6 213.1,72.9 208.8,67.3 204.5,61.6 183,33.3 183,33.3 v 7.1 c 0.9,1.1 20.6,24.4 25.8,30.4 6.2,7 14.7,8.9 25.1,10.8 10.4,1.9 23.5,4.4 23.5,4.4 v -1 c 0,0 -15,-2.8 -23.5,-4.5"
   id="path53"
   inkscape:connector-curvature="0"
   style="fill:#ffffff" />
	<path
   d="m 233.9,86 c -15.4,-3 -18.6,-5.4 -25.1,-12.6 -4.1,-4.5 -25,-29.2 -25.9,-30.2 v 6.6 c 0,0 19.5,20.9 25.8,27 8.2,8.1 16,8.7 25.1,10.3 9.1,1.6 23.5,4.3 23.5,4.3 v -1.1 c 0.1,0 -17.3,-3.1 -23.4,-4.3"
   id="path55"
   inkscape:connector-curvature="0"
   style="fill:#ffffff" />
	<polygon
   points="59.1,64 166.5,64 167,64 167,64.4 167,136.3 167,136.8 166.5,136.8 59.1,136.8 58.6,136.8 58.6,136.3 58.6,64.4 58.6,64 "
   id="polygon57"
   style="fill:#034ea2" />
	<path
   d="M 166.5,136.3 H 59.1 V 64.4 h 107.4 v 71.9 z m 1,-72.8 H 166.6 59.1 58.2 v 0.9 71.9 0.9 h 0.9 107.4 0.9 v -0.9 -71.9 -0.9 z"
   id="path59"
   inkscape:connector-curvature="0"
   style="fill:#ffffff" />
	<polygon
   points="108,74.7 111.7,74.7 112.9,71 114,74.7 117.7,74.7 114.7,77 115.9,80.7 112.9,78.4 109.9,80.7 111,77 "
   id="polygon61"
   style="fill:#fff200" />
	<polygon
   points="108.1,122.6 111.9,122.6 113,119.1 114.1,122.6 117.8,122.6 114.8,124.9 116,128.4 113,126.2 110,128.4 111.2,124.9 "
   id="polygon63"
   style="fill:#fff200" />
	<polygon
   points="120,119.4 123.7,119.4 124.9,115.9 126,119.4 129.7,119.4 126.7,121.7 127.9,125.3 124.9,123 121.9,125.3 123,121.7 "
   id="polygon65"
   style="fill:#fff200" />
	<polygon
   points="120,77.9 123.7,77.9 124.9,74.4 126,77.9 129.7,77.9 126.7,80.1 127.9,83.7 124.9,81.5 121.9,83.7 123,80.1 "
   id="polygon67"
   style="fill:#fff200" />
	<polygon
   points="128.8,86.7 132.5,86.7 133.6,83.2 134.8,86.7 138.5,86.7 135.5,88.9 136.6,92.5 133.6,90.3 130.7,92.5 131.8,88.9 "
   id="polygon69"
   style="fill:#fff200" />
	<polygon
   points="128.8,110.7 132.5,110.7 133.6,107.2 134.8,110.7 138.5,110.7 135.5,113 136.6,116.6 133.6,114.4 130.7,116.6 131.8,113 "
   id="polygon71"
   style="fill:#fff200" />
	<polygon
   points="132.1,98.5 135.8,98.5 137,95 138.1,98.5 141.8,98.5 138.8,100.8 140,104.4 137,102.1 133.9,104.4 135.1,100.8 "
   id="polygon73"
   style="fill:#fff200" />
	<polygon
   points="95.9,77.9 99.6,77.9 100.8,74.4 101.9,77.9 105.6,77.9 102.6,80.1 103.8,83.7 100.8,81.5 97.8,83.7 99,80.1 "
   id="polygon75"
   style="fill:#fff200" />
	<polygon
   points="87.4,86.7 91.1,86.7 92.2,83.2 93.3,86.7 97.1,86.7 94,88.9 95.2,92.5 92.2,90.3 89.2,92.5 90.4,88.9 "
   id="polygon77"
   style="fill:#fff200" />
	<polygon
   points="84.2,98.5 87.9,98.5 89,95 90.1,98.5 93.9,98.5 90.9,100.8 92,104.4 89,102.2 86,104.4 87.2,100.8 "
   id="polygon79"
   style="fill:#fff200" />
	<polygon
   points="87.4,110.8 91.1,110.8 92.2,107.3 93.3,110.8 97.1,110.8 94,113 95.2,116.6 92.2,114.4 89.2,116.6 90.4,113 "
   id="polygon81"
   style="fill:#fff200" />
	<polygon
   points="96,119.4 99.8,119.4 100.9,115.9 102,119.4 105.7,119.4 102.7,121.7 103.9,125.3 100.9,123.1 97.9,125.3 99.1,121.7 "
   id="polygon83"
   style="fill:#fff200" />
</g>
</svg>