<?xml version="1.0" encoding="utf-8"?>
<!-- Generator: Adobe Illustrator 17.1.0, SVG Export Plug-In . SVG Version: 6.00 Build 0)  -->
<!DOCTYPE svg PUBLIC "-//W3C//DTD SVG 1.1//EN" "http://www.w3.org/Graphics/SVG/1.1/DTD/svg11.dtd">
<svg version="1.1" id="Layer_1" xmlns="http://www.w3.org/2000/svg" xmlns:xlink="http://www.w3.org/1999/xlink" x="0px" y="0px"
	 viewBox="0 0 27 25" enable-background="new 0 0 27 25" xml:space="preserve">
<path fill-rule="evenodd" clip-rule="evenodd" d="M25,25H2c-1.1,0-2-0.9-2-2V11c0,0,5.2,2.7,10,3.8V16c0,0.6,0.4,1,1,1h5
	c0.6,0,1-0.4,1-1v-1.2c4.8-1.1,10-3.8,10-3.8v12C27,24.1,26.1,25,25,25z M15,13c0.6,0,1,0.4,1,1v1c0,0.6-0.4,1-1,1h-3
	c-0.6,0-1-0.4-1-1v-1c0-0.6,0.4-1,1-1H15z M17,13c0-0.6-0.4-1-1-1h-5c-0.6,0-1,0.4-1,1v0.9C5.2,12.8,0,10,0,10V6c0-1.1,0.9-2,2-2h6
	V2c0-1.1,0.9-2,2-2h7c1.1,0,2,0.9,2,2v2h6c1.1,0,2,0.9,2,2v4c0,0-5.2,2.8-10,3.9V13z M17,3c0-0.6-0.4-1-1-1h-5c-0.6,0-1,0.4-1,1
	c0,0.6,0,1,0,1h7C17,4,17,3.6,17,3z"/>
</svg>
