<?xml version="1.0" encoding="UTF-8" standalone="no"?>
<!-- Created with Inkscape (http://www.inkscape.org/) -->

<svg
   xmlns:dc="http://purl.org/dc/elements/1.1/"
   xmlns:cc="http://creativecommons.org/ns#"
   xmlns:rdf="http://www.w3.org/1999/02/22-rdf-syntax-ns#"
   xmlns:svg="http://www.w3.org/2000/svg"
   xmlns="http://www.w3.org/2000/svg"
   version="1.1"
   width="40"
   height="40"
   viewBox="0 0 40 40"
   id="Layer_1"
   xml:space="preserve"><metadata
     id="metadata9"><rdf:RDF><cc:Work
         rdf:about=""><dc:format>image/svg+xml</dc:format><dc:type
           rdf:resource="http://purl.org/dc/dcmitype/StillImage" /><dc:title></dc:title></cc:Work></rdf:RDF></metadata><defs
     id="defs7" /><path
     d="m 26.109333,29.110507 3.402667,0 c 0,-9.755333 -7.936,-17.696666 -17.69,-17.696666 l 0,3.393333 c 7.876,-6.67e-4 14.287333,6.416667 14.287333,14.303333 z m -6.014,0.002 c -6.396688,0 1.632884,0 3.406667,0 0,-6.443333 -5.241333,-11.684 -11.680667,-11.684 l 0,3.392 c 2.208667,0 4.286,0.863334 5.849334,2.428 1.562666,1.560667 2.424666,3.646667 2.424666,5.864 z m -5.918,0.004 c 1.304667,0 2.358667,-1.048 2.358667,-2.347333 0,-1.292 -1.054,-2.351333 -2.358667,-2.351333 -1.299333,0 -2.355333,1.06 -2.355333,2.351333 -6.67e-4,1.299333 1.055333,2.347333 2.355333,2.347333 z M 0,0 40,0 40,40 0,40 z"
     id="path3"
     style="fill:#f39200;fill-opacity:1;fill-rule:evenodd" /></svg>