<?xml version="1.0" encoding="utf-8"?>
<!-- Generator: Adobe Illustrator 18.1.1, SVG Export Plug-In . SVG Version: 6.00 Build 0)  -->
<svg version="1.1" id="Layer_1" xmlns="http://www.w3.org/2000/svg" xmlns:xlink="http://www.w3.org/1999/xlink" x="0px" y="0px"
	 viewBox="0 0 308.7 162.5" enable-background="new 0 0 308.7 162.5" xml:space="preserve">
<g>
	<path fill="#404040" d="M0,128.4c0-0.5,0.3-0.8,0.8-0.8h14.7c0.5,0,0.8,0.3,0.8,0.8v2.5c0,0.5-0.3,0.7-0.8,0.7H4.6v6.9h9.7
		c0.5,0,0.8,0.2,0.8,0.7v2.5c0,0.5-0.3,0.7-0.8,0.7H4.6v7.9h11.2c0.5,0,0.7,0.3,0.7,0.8v2.4c0,0.5-0.3,0.7-0.8,0.7H0.8
		c-0.5,0-0.8-0.2-0.8-0.7V128.4z"/>
	<path fill="#404040" d="M36.6,154.2h-2.8c-0.3,0-0.5-0.1-0.6-0.2c-0.1-0.1-0.2-0.3-0.2-0.6v-1.2l-0.1,0c-0.4,0.3-0.9,0.5-1.4,0.8
		c-0.5,0.3-1.1,0.5-1.7,0.8c-0.6,0.2-1.2,0.4-1.8,0.6c-0.6,0.1-1.2,0.2-1.9,0.2c-1.4,0-2.4-0.2-3.2-0.6c-0.8-0.4-1.4-0.9-1.8-1.6
		s-0.7-1.5-0.8-2.4c-0.1-0.9-0.2-1.9-0.2-2.9v-11.8c0-0.5,0.3-0.8,0.8-0.8H24c0.5,0,0.7,0.3,0.7,0.8v11.2c0,0.6,0,1.2,0.1,1.6
		c0.1,0.5,0.2,0.9,0.4,1.2c0.2,0.3,0.5,0.6,0.9,0.8c0.4,0.2,0.9,0.3,1.5,0.3c0.4,0,0.9-0.1,1.4-0.2c0.5-0.1,1-0.3,1.5-0.5
		c0.5-0.2,1-0.4,1.4-0.6c0.4-0.2,0.8-0.4,1-0.5v-13.4c0-0.2,0.1-0.4,0.2-0.6c0.1-0.1,0.3-0.2,0.6-0.2h2.8c0.5,0,0.8,0.3,0.8,0.8v18
		C37.4,153.9,37.1,154.2,36.6,154.2z"/>
	<path fill="#404040" d="M46.8,153.4c0,0.5-0.3,0.8-0.8,0.8h-2.9c-0.5,0-0.8-0.3-0.8-0.8v-18c0-0.5,0.3-0.8,0.8-0.8H46
		c0.5,0,0.8,0.3,0.8,0.8v1.8l0.1,0.1c0.3-0.3,0.7-0.6,1.2-0.9s1-0.6,1.5-0.8c0.5-0.3,1.1-0.5,1.7-0.7c0.6-0.2,1.1-0.4,1.6-0.4
		c0.3-0.1,0.5,0,0.6,0c0.2,0.1,0.3,0.3,0.3,0.6l0.3,2.7c0,0.3,0,0.5,0,0.6c-0.1,0.1-0.3,0.2-0.7,0.3c-0.6,0.1-1.1,0.2-1.8,0.4
		c-0.6,0.1-1.2,0.3-1.8,0.5c-0.6,0.2-1.1,0.3-1.6,0.5c-0.5,0.2-0.9,0.3-1.3,0.5V153.4z"/>
	<path fill="#404040" d="M73.2,144.1c0,1.1-0.1,2.3-0.2,3.6c-0.1,1.2-0.5,2.4-1.1,3.4c-0.6,1-1.5,1.9-2.6,2.5c-1.2,0.7-2.8,1-4.9,1
		c-2,0-3.6-0.3-4.7-1c-1.1-0.7-2-1.5-2.6-2.5c-0.6-1-0.9-2.2-1.1-3.4c-0.1-1.2-0.2-2.4-0.2-3.6c0-0.9,0.1-2,0.3-3.1
		c0.2-1.1,0.6-2.2,1.1-3.2c0.6-1,1.4-1.8,2.6-2.5c1.1-0.7,2.7-1,4.6-1c1.9,0,3.5,0.3,4.6,0.9c1.2,0.6,2,1.4,2.7,2.3
		c0.6,0.9,1,2,1.2,3.2C73.1,141.7,73.2,142.9,73.2,144.1z M68.8,144.4c0-1.1-0.1-2-0.2-2.8c-0.1-0.8-0.3-1.4-0.6-2
		c-0.3-0.5-0.8-0.9-1.3-1.2s-1.3-0.4-2.2-0.4c-0.9,0-1.5,0.1-2.1,0.4c-0.5,0.3-1,0.7-1.3,1.2c-0.3,0.5-0.5,1.2-0.6,2
		c-0.1,0.8-0.2,1.7-0.2,2.7c0,1.1,0.1,2,0.2,2.8c0.1,0.8,0.3,1.4,0.6,2c0.3,0.5,0.7,0.9,1.2,1.2c0.5,0.3,1.2,0.4,2.1,0.4
		c0.9,0,1.6-0.1,2.2-0.4c0.6-0.3,1-0.6,1.3-1.2c0.3-0.5,0.5-1.2,0.6-2C68.7,146.4,68.8,145.4,68.8,144.4z"/>
	<path fill="#404040" d="M94.4,144.3c0,1.6-0.1,3.1-0.4,4.4c-0.2,1.3-0.7,2.4-1.3,3.2c-0.6,0.9-1.4,1.5-2.4,2
		c-1,0.5-2.3,0.7-3.9,0.7c-0.7,0-1.4-0.1-2.3-0.2c-0.9-0.1-1.8-0.4-2.7-0.7l0,0v7c0,0.2,0,0.4-0.1,0.6c-0.1,0.2-0.3,0.2-0.6,0.2
		h-2.8c-0.3,0-0.5-0.1-0.6-0.2c-0.1-0.1-0.1-0.3-0.1-0.6v-25.4c0-0.5,0.3-0.8,0.8-0.8h2.8c0.3,0,0.5,0.1,0.6,0.2
		c0.1,0.1,0.1,0.3,0.1,0.6v1.2l0.1,0.1c0.3-0.2,0.8-0.5,1.3-0.8c0.5-0.3,1-0.5,1.6-0.8c0.6-0.2,1.1-0.4,1.7-0.6
		c0.6-0.2,1.2-0.2,1.8-0.2c1.3,0,2.4,0.2,3.2,0.7c0.9,0.5,1.5,1.2,2,2c0.5,0.9,0.8,1.9,1,3.1C94.3,141.4,94.4,142.8,94.4,144.3z
		 M89.9,144.2c0-1.3-0.1-2.3-0.2-3.1c-0.1-0.8-0.3-1.4-0.6-1.8c-0.3-0.4-0.6-0.7-1-0.9c-0.4-0.1-0.8-0.2-1.4-0.2
		c-0.4,0-0.9,0.1-1.4,0.2c-0.5,0.1-1,0.3-1.5,0.5c-0.5,0.2-1,0.4-1.4,0.6c-0.4,0.2-0.8,0.4-1.1,0.6v10c0.9,0.3,1.7,0.4,2.5,0.5
		c0.7,0.1,1.4,0.1,2.1,0.1c0.7,0,1.3-0.1,1.8-0.3c0.5-0.2,0.9-0.6,1.2-1.1c0.3-0.5,0.5-1.2,0.7-2C89.9,146.5,89.9,145.5,89.9,144.2z
		"/>
	<path fill="#404040" d="M112.6,148.3c0,1.2-0.2,2.2-0.7,2.9c-0.5,0.8-1.1,1.4-1.8,1.9c-0.8,0.5-1.6,0.8-2.6,1c-1,0.2-2,0.3-3,0.3
		c-1,0-2.1-0.1-3.3-0.2c-1.2-0.1-2.1-0.4-2.9-0.7c-0.4-0.2-0.7-0.3-0.8-0.5c-0.1-0.2-0.1-0.5-0.1-0.8l0.3-1.3
		c0.1-0.3,0.2-0.5,0.3-0.6c0.2-0.1,0.4-0.1,0.7,0c0.4,0.1,0.9,0.1,1.4,0.2c0.5,0.1,1,0.1,1.6,0.1s1,0.1,1.5,0.1c0.5,0,0.9,0,1.2,0
		c1.3,0,2.2-0.2,2.8-0.5c0.6-0.4,0.8-0.9,0.8-1.7c0-0.5,0-0.8-0.1-1.1c-0.1-0.3-0.3-0.5-0.5-0.7c-0.2-0.2-0.6-0.3-1-0.5
		c-0.4-0.1-0.9-0.2-1.6-0.3c-1-0.1-1.9-0.3-2.8-0.5c-0.9-0.2-1.7-0.5-2.3-0.9c-0.7-0.4-1.2-1-1.6-1.6c-0.4-0.7-0.6-1.6-0.6-2.7
		c0-2,0.7-3.5,2.1-4.5c1.4-1,3.2-1.5,5.4-1.5c0.4,0,0.9,0,1.4,0c0.5,0,1.1,0.1,1.6,0.2c0.5,0.1,1.1,0.2,1.6,0.3
		c0.5,0.1,1,0.2,1.4,0.4c0.7,0.3,0.9,0.7,0.8,1.2l-0.3,1.4c-0.1,0.3-0.2,0.5-0.3,0.5c-0.1,0.1-0.4,0.1-0.8,0
		c-0.9-0.1-1.8-0.2-2.8-0.3c-1-0.1-1.9-0.1-2.6-0.1c-1.3,0-2.1,0.2-2.5,0.5c-0.4,0.4-0.6,0.9-0.6,1.7c0,0.8,0.3,1.3,0.8,1.5
		c0.5,0.2,1.4,0.5,2.6,0.6c1,0.1,1.9,0.3,2.7,0.5c0.9,0.2,1.6,0.5,2.3,1c0.7,0.4,1.2,1,1.6,1.7C112.4,146.2,112.6,147.1,112.6,148.3
		z"/>
	<path fill="#404040" d="M120.9,141.8l3.1-3.2l3.3-3.4c0.2-0.2,0.4-0.4,0.6-0.5c0.2-0.1,0.5-0.2,0.8-0.2h3.2c0.4,0,0.6,0.1,0.7,0.3
		c0.1,0.2,0,0.4-0.2,0.6L126,142l7.2,11.3c0.1,0.2,0.2,0.5,0.1,0.6c-0.1,0.2-0.3,0.3-0.6,0.3h-3.1c-0.4,0-0.7-0.1-0.9-0.2
		c-0.2-0.1-0.3-0.3-0.5-0.6l-5.1-8.2l-2.3,2.3v5.9c0,0.2-0.1,0.4-0.2,0.5c-0.1,0.1-0.3,0.2-0.6,0.2h-2.8c-0.5,0-0.8-0.3-0.8-0.8
		v-26.7c0-0.5,0.3-0.8,0.8-0.8h2.8c0.3,0,0.5,0.1,0.6,0.2c0.1,0.1,0.2,0.3,0.2,0.6v15L120.9,141.8z"/>
	<path fill="#404040" d="M148,151.9c-1,0.8-2.2,1.4-3.4,1.9c-1.3,0.5-2.6,0.7-3.9,0.7c-1.1,0-2-0.1-2.7-0.4
		c-0.7-0.3-1.3-0.7-1.7-1.2c-0.4-0.5-0.7-1.1-0.9-1.8c-0.2-0.7-0.3-1.5-0.3-2.3c0-2.3,0.6-4,1.8-5.1c1.3-1.1,3.1-1.6,5.7-1.6h5.1v-1
		c0-0.6-0.1-1.1-0.2-1.5c-0.1-0.4-0.3-0.8-0.7-1c-0.3-0.3-0.7-0.5-1.3-0.6c-0.5-0.1-1.2-0.2-2-0.2c-0.3,0-0.7,0-1.2,0
		c-0.5,0-0.9,0.1-1.4,0.1c-0.5,0-1,0.1-1.5,0.1c-0.5,0.1-0.9,0.1-1.3,0.1c-0.4,0.1-0.7,0.1-0.8,0c-0.1,0-0.2-0.2-0.3-0.5l-0.4-1.5
		c-0.1-0.3,0-0.5,0.1-0.7c0.1-0.2,0.4-0.3,0.8-0.5c0.4-0.2,0.9-0.3,1.5-0.4c0.6-0.1,1.2-0.2,1.8-0.3c0.6-0.1,1.2-0.1,1.8-0.2
		c0.6,0,1.1-0.1,1.6-0.1c1.7,0,3.1,0.2,4.1,0.5c1,0.3,1.8,0.8,2.3,1.5c0.5,0.6,0.9,1.4,1,2.3c0.2,0.9,0.2,1.9,0.2,3v7.7
		c0,0.4,0,0.7,0.1,0.9c0,0.2,0.1,0.4,0.2,0.5c0.1,0.1,0.2,0.2,0.4,0.3c0.2,0.1,0.4,0.1,0.8,0.1c0.3,0,0.5,0.1,0.6,0.2
		c0.1,0.1,0.2,0.2,0.2,0.4v1.7c0,0.5-0.3,0.7-1,0.8c-0.3,0.1-0.6,0.1-1,0.1s-0.6,0.1-0.9,0.1c-0.9,0-1.7-0.2-2.3-0.5
		C148.7,153.5,148.3,152.9,148,151.9L148,151.9z M147.8,145.3h-4.9c-1,0-1.8,0.2-2.4,0.7c-0.6,0.5-0.9,1.4-0.9,2.7
		c0,0.9,0.2,1.5,0.5,1.8c0.4,0.3,1,0.5,1.9,0.5c0.4,0,0.9-0.1,1.4-0.2c0.5-0.1,1-0.3,1.5-0.4c0.5-0.2,1-0.4,1.5-0.6
		c0.5-0.2,0.9-0.4,1.3-0.7V145.3z"/>
	<path fill="#404040" d="M173.1,141.8l3.1-3.2l3.3-3.4c0.2-0.2,0.4-0.4,0.6-0.5c0.2-0.1,0.5-0.2,0.8-0.2h3.2c0.4,0,0.6,0.1,0.7,0.3
		c0.1,0.2,0,0.4-0.2,0.6l-6.4,6.5l7.2,11.3c0.1,0.2,0.2,0.5,0.1,0.6c-0.1,0.2-0.3,0.3-0.6,0.3h-3.1c-0.4,0-0.7-0.1-0.9-0.2
		c-0.2-0.1-0.3-0.3-0.5-0.6l-5.1-8.2l-2.3,2.3v5.9c0,0.2-0.1,0.4-0.2,0.5c-0.1,0.1-0.3,0.2-0.6,0.2h-2.8c-0.5,0-0.8-0.3-0.8-0.8
		v-26.7c0-0.5,0.3-0.8,0.8-0.8h2.8c0.3,0,0.5,0.1,0.6,0.2c0.1,0.1,0.2,0.3,0.2,0.6v15L173.1,141.8z"/>
	<path fill="#404040" d="M204.4,144.1c0,1.1-0.1,2.3-0.2,3.6c-0.1,1.2-0.5,2.4-1.1,3.4c-0.6,1-1.5,1.9-2.6,2.5c-1.2,0.7-2.8,1-4.9,1
		c-2,0-3.6-0.3-4.7-1c-1.1-0.7-2-1.5-2.6-2.5c-0.6-1-0.9-2.2-1.1-3.4c-0.1-1.2-0.2-2.4-0.2-3.6c0-0.9,0.1-2,0.3-3.1
		c0.2-1.1,0.6-2.2,1.1-3.2c0.6-1,1.4-1.8,2.6-2.5c1.1-0.7,2.7-1,4.6-1c1.9,0,3.5,0.3,4.6,0.9c1.2,0.6,2,1.4,2.7,2.3
		c0.6,0.9,1,2,1.2,3.2C204.3,141.7,204.4,142.9,204.4,144.1z M200,144.4c0-1.1-0.1-2-0.2-2.8c-0.1-0.8-0.3-1.4-0.6-2
		c-0.3-0.5-0.8-0.9-1.3-1.2s-1.3-0.4-2.2-0.4c-0.9,0-1.5,0.1-2.1,0.4c-0.5,0.3-1,0.7-1.3,1.2c-0.3,0.5-0.5,1.2-0.6,2
		c-0.1,0.8-0.2,1.7-0.2,2.7c0,1.1,0.1,2,0.2,2.8c0.1,0.8,0.3,1.4,0.6,2c0.3,0.5,0.7,0.9,1.2,1.2c0.5,0.3,1.2,0.4,2.1,0.4
		c0.9,0,1.6-0.1,2.2-0.4c0.6-0.3,1-0.6,1.3-1.2c0.3-0.5,0.5-1.2,0.6-2C199.9,146.4,200,145.4,200,144.4z"/>
	<path fill="#404040" d="M236.9,154c-0.1,0.1-0.3,0.2-0.6,0.2h-2.9c-0.5,0-0.8-0.3-0.8-0.8v-11.4c0-1.5-0.2-2.5-0.6-3
		c-0.4-0.5-1.1-0.8-2.1-0.8c-0.4,0-0.8,0.1-1.3,0.2c-0.5,0.1-0.9,0.3-1.4,0.5s-0.9,0.4-1.3,0.6c-0.4,0.2-0.8,0.4-1.1,0.6
		c0,0.2,0,0.5,0,0.8c0,0.3,0,0.7,0,1.2v11.3c0,0.2-0.1,0.4-0.2,0.6c-0.1,0.1-0.3,0.2-0.6,0.2h-2.9c-0.5,0-0.7-0.3-0.7-0.8v-11.6
		c0-1.2-0.2-2.1-0.6-2.7c-0.4-0.6-1.1-0.9-2.1-0.9c-0.3,0-0.7,0.1-1.2,0.2s-0.9,0.3-1.4,0.4s-0.9,0.4-1.4,0.6
		c-0.5,0.2-0.9,0.4-1.2,0.6v13.4c0,0.5-0.3,0.8-0.8,0.8H209c-0.5,0-0.7-0.3-0.7-0.8v-18c0-0.5,0.2-0.8,0.7-0.8h2.8
		c0.5,0,0.8,0.3,0.8,0.8v1.2l0,0c0.4-0.3,0.8-0.5,1.3-0.8c0.5-0.3,0.9-0.5,1.5-0.7c0.5-0.2,1-0.4,1.6-0.5c0.5-0.1,1.1-0.2,1.6-0.3
		c1.1,0,2.2,0.2,3.1,0.5c0.9,0.4,1.7,1.1,2.3,2.3c1-0.7,2.1-1.4,3.3-2s2.4-0.8,3.7-0.8c1.3,0,2.3,0.2,3.1,0.6s1.4,0.9,1.8,1.6
		c0.4,0.7,0.7,1.5,0.8,2.4c0.1,0.9,0.2,1.9,0.2,2.8v11.8C237,153.7,237,153.9,236.9,154z"/>
	<path fill="#404040" d="M246.5,129.4c0,0.3,0,0.6-0.1,0.9c-0.1,0.3-0.2,0.5-0.3,0.7c-0.2,0.2-0.4,0.4-0.7,0.5
		c-0.3,0.1-0.7,0.2-1.2,0.2c-0.5,0-1-0.1-1.3-0.2c-0.3-0.1-0.5-0.3-0.7-0.5c-0.2-0.2-0.3-0.5-0.3-0.7c-0.1-0.3-0.1-0.6-0.1-0.9
		c0-0.6,0.2-1.2,0.5-1.6c0.3-0.4,0.9-0.7,1.9-0.7c1,0,1.6,0.2,1.9,0.6C246.3,128.2,246.5,128.7,246.5,129.4z M246.2,153.4
		c0,0.2,0,0.4-0.1,0.5c-0.1,0.1-0.3,0.2-0.6,0.2h-2.8c-0.5,0-0.8-0.3-0.8-0.8v-18.1c0-0.5,0.3-0.8,0.8-0.8h2.8
		c0.3,0,0.5,0.1,0.6,0.2c0.1,0.1,0.1,0.3,0.1,0.5V153.4z"/>
	<path fill="#404040" d="M265.8,148.3c0,1.2-0.2,2.2-0.7,2.9c-0.5,0.8-1.1,1.4-1.8,1.9s-1.6,0.8-2.6,1s-2,0.3-3,0.3
		c-1,0-2.1-0.1-3.3-0.2c-1.2-0.1-2.1-0.4-2.9-0.7c-0.4-0.2-0.7-0.3-0.8-0.5c-0.1-0.2-0.1-0.5-0.1-0.8l0.3-1.3
		c0.1-0.3,0.2-0.5,0.3-0.6c0.2-0.1,0.4-0.1,0.7,0c0.4,0.1,0.9,0.1,1.4,0.2c0.5,0.1,1,0.1,1.6,0.1c0.5,0,1,0.1,1.5,0.1
		c0.5,0,0.9,0,1.2,0c1.3,0,2.2-0.2,2.8-0.5c0.6-0.4,0.8-0.9,0.8-1.7c0-0.5,0-0.8-0.1-1.1c-0.1-0.3-0.3-0.5-0.5-0.7
		c-0.2-0.2-0.6-0.3-1-0.5c-0.4-0.1-0.9-0.2-1.6-0.3c-1-0.1-1.9-0.3-2.8-0.5c-0.9-0.2-1.7-0.5-2.3-0.9c-0.7-0.4-1.2-1-1.6-1.6
		c-0.4-0.7-0.6-1.6-0.6-2.7c0-2,0.7-3.5,2.1-4.5c1.4-1,3.2-1.5,5.4-1.5c0.4,0,0.9,0,1.4,0c0.5,0,1.1,0.1,1.6,0.2
		c0.5,0.1,1.1,0.2,1.6,0.3c0.5,0.1,1,0.2,1.4,0.4c0.7,0.3,0.9,0.7,0.8,1.2l-0.3,1.4c-0.1,0.3-0.2,0.5-0.3,0.5
		c-0.1,0.1-0.4,0.1-0.8,0c-0.9-0.1-1.8-0.2-2.8-0.3c-1-0.1-1.9-0.1-2.6-0.1c-1.3,0-2.1,0.2-2.5,0.5c-0.4,0.4-0.6,0.9-0.6,1.7
		c0,0.8,0.3,1.3,0.8,1.5c0.5,0.2,1.4,0.5,2.6,0.6c1,0.1,1.9,0.3,2.7,0.5c0.9,0.2,1.6,0.5,2.3,1c0.7,0.4,1.2,1,1.6,1.7
		C265.6,146.2,265.8,147.1,265.8,148.3z"/>
	<path fill="#404040" d="M274.7,129.4c0,0.3,0,0.6-0.1,0.9c-0.1,0.3-0.2,0.5-0.3,0.7c-0.2,0.2-0.4,0.4-0.7,0.5
		c-0.3,0.1-0.7,0.2-1.2,0.2c-0.5,0-1-0.1-1.3-0.2c-0.3-0.1-0.5-0.3-0.7-0.5c-0.2-0.2-0.3-0.5-0.3-0.7c-0.1-0.3-0.1-0.6-0.1-0.9
		c0-0.6,0.2-1.2,0.5-1.6c0.3-0.4,0.9-0.7,1.9-0.7c1,0,1.6,0.2,1.9,0.6C274.6,128.2,274.7,128.7,274.7,129.4z M274.5,153.4
		c0,0.2,0,0.4-0.1,0.5c-0.1,0.1-0.3,0.2-0.6,0.2h-2.8c-0.5,0-0.8-0.3-0.8-0.8v-18.1c0-0.5,0.3-0.8,0.8-0.8h2.8
		c0.3,0,0.5,0.1,0.6,0.2c0.1,0.1,0.1,0.3,0.1,0.5V153.4z"/>
	<path fill="#404040" d="M285,154.6c0,1.3-0.1,2.5-0.4,3.5c-0.3,1-0.8,1.8-1.5,2.5c-0.7,0.7-1.6,1.2-2.8,1.5
		c-1.1,0.3-2.5,0.5-4.2,0.4c-0.1,0-0.3-0.1-0.5-0.2c-0.2-0.1-0.3-0.3-0.4-0.6l-0.2-1.9c-0.1-0.3,0-0.5,0.1-0.6
		c0.1-0.1,0.3-0.2,0.6-0.2c0.9-0.2,1.7-0.4,2.3-0.5c0.6-0.2,1.1-0.4,1.5-0.7c0.4-0.3,0.7-0.7,0.8-1.1c0.2-0.5,0.2-1.1,0.2-1.9v-19.4
		c0-0.5,0.3-0.8,0.8-0.8h2.8c0.5,0,0.8,0.3,0.8,0.8V154.6z M285.2,129.4c0,0.3,0,0.6-0.1,0.9c-0.1,0.3-0.2,0.5-0.3,0.7
		c-0.2,0.2-0.4,0.4-0.7,0.5c-0.3,0.1-0.7,0.2-1.2,0.2c-0.5,0-1-0.1-1.3-0.2c-0.3-0.1-0.5-0.3-0.7-0.5c-0.2-0.2-0.3-0.5-0.3-0.7
		c-0.1-0.3-0.1-0.6-0.1-0.9c0-0.6,0.2-1.2,0.5-1.6c0.3-0.4,1-0.7,1.9-0.7c1,0,1.6,0.2,1.9,0.6C285,128.2,285.2,128.7,285.2,129.4z"
		/>
	<path fill="#404040" d="M302.3,151.9c-1,0.8-2.2,1.4-3.4,1.9s-2.6,0.7-3.9,0.7c-1.1,0-2-0.1-2.7-0.4c-0.7-0.3-1.3-0.7-1.7-1.2
		c-0.4-0.5-0.7-1.1-0.9-1.8c-0.2-0.7-0.3-1.5-0.3-2.3c0-2.3,0.6-4,1.8-5.1c1.3-1.1,3.1-1.6,5.7-1.6h5.1v-1c0-0.6-0.1-1.1-0.2-1.5
		c-0.1-0.4-0.3-0.8-0.7-1c-0.3-0.3-0.7-0.5-1.3-0.6c-0.5-0.1-1.2-0.2-2-0.2c-0.3,0-0.7,0-1.2,0c-0.5,0-0.9,0.1-1.4,0.1
		c-0.5,0-1,0.1-1.5,0.1c-0.5,0.1-0.9,0.1-1.3,0.1c-0.4,0.1-0.7,0.1-0.8,0c-0.1,0-0.2-0.2-0.3-0.5l-0.4-1.5c-0.1-0.3,0-0.5,0.1-0.7
		c0.1-0.2,0.4-0.3,0.8-0.5c0.4-0.2,0.9-0.3,1.5-0.4c0.6-0.1,1.2-0.2,1.8-0.3c0.6-0.1,1.2-0.1,1.8-0.2c0.6,0,1.1-0.1,1.6-0.1
		c1.7,0,3.1,0.2,4.1,0.5c1,0.3,1.8,0.8,2.3,1.5c0.5,0.6,0.9,1.4,1,2.3c0.2,0.9,0.2,1.9,0.2,3v7.7c0,0.4,0,0.7,0.1,0.9
		c0,0.2,0.1,0.4,0.2,0.5c0.1,0.1,0.2,0.2,0.4,0.3c0.2,0.1,0.4,0.1,0.8,0.1c0.3,0,0.5,0.1,0.6,0.2s0.2,0.2,0.2,0.4v1.7
		c0,0.5-0.3,0.7-1,0.8c-0.3,0.1-0.6,0.1-1,0.1s-0.6,0.1-0.9,0.1c-0.9,0-1.7-0.2-2.3-0.5C303,153.5,302.6,152.9,302.3,151.9
		L302.3,151.9z M302.1,145.3h-4.9c-1,0-1.8,0.2-2.4,0.7c-0.6,0.5-0.9,1.4-0.9,2.7c0,0.9,0.2,1.5,0.5,1.8c0.4,0.3,1,0.5,1.9,0.5
		c0.4,0,0.9-0.1,1.4-0.2c0.5-0.1,1-0.3,1.5-0.4s1-0.4,1.5-0.6c0.5-0.2,0.9-0.4,1.3-0.7V145.3z"/>
</g>
<g>
	<path fill="#BCBEC0" d="M65.2,38.4c0,0,62.2-8.1,64-8.4c2.7-0.4,5.1-1,7.3-1.6c5-1.4,9.7-3.5,13.8-6.3c3.9-2.7,7.6-6.5,11.2-10.8
		c2.3-2.7,4.7-6.2,7-9.6V0c-2.7,4-5.3,7.5-8,10.5c-3.6,4-7.4,7.4-11.2,9.8c-4,2.6-8.4,4.5-13.3,5.7c-2.2,0.6-4.5,1-7.1,1.4
		c-1.7,0.2-3.5,0.4-5.2,0.6c-0.7,0.1-58.4,6.3-58.4,6.3V38.4z"/>
	<path fill="#BCBEC0" d="M148.7,27.9c-3.9,2.3-8.4,3.9-13.4,4.9c-2.1,0.4-4.4,0.8-7.1,1.1c-1.6,0.2-3.1,0.3-4.7,0.4
		c-0.8,0.1-1.7,0.1-2.5,0.2c-19.1,1.7-38,3.6-55.8,5.3V44c17.9-2.2,37-4.5,56.1-6.7c0.8-0.1,1.7-0.2,2.5-0.3
		c1.6-0.2,3.1-0.3,4.7-0.6c2.7-0.4,5.1-0.8,7.3-1.3c5.2-1.2,9.8-3,13.9-5.5c4-2.4,7.6-5.8,11.4-10c2.4-2.6,5-6.3,7.5-9.7V8.5
		c-2.9,4-5.7,7.3-8.4,10.2C156.4,22.6,152.5,25.7,148.7,27.9"/>
	<path fill="#BCBEC0" d="M159.6,26.9c-3.8,3.5-7.8,6.3-11.8,8.2c-3.9,1.9-8.3,3.3-13.5,4.1c-2.1,0.4-4.4,0.6-7,0.9l-62.1,5.2v4.1
		l55.2-5.9l7.1-0.8c2.7-0.3,5-0.7,7.2-1.1c5.3-1,9.9-2.5,13.9-4.6c4.1-2.1,8.3-5.6,12.1-9.4c2.6-2.5,5.1-5.7,7.7-9.1v-1.4
		C165.4,21,162.5,24.2,159.6,26.9"/>
	<path fill="#BCBEC0" d="M144.6,48c-3.6,2-6.3,3.2-11.5,3.8c-3.1,0.3-6.3,0.5-9.4,0.7c-1.5,0.1-3,0.2-4.5,0.2
		c-9.4,0.5-18.6,1.1-28,1.8l-25.9,1.8v4.1l26.2-2.4c8.5-0.8,18.3-1.7,27.9-2.4l7-0.5c2.7-0.2,5-0.4,7-0.7c5.3-0.7,9.8-1.8,13.9-3.3
		c4.3-1.6,8.4-4.2,12.5-7.2c3.7-2.7,8.8-8,8.8-8.1v-1.4c-3.3,3.3-5.3,5.1-8.9,7.6C155.2,44.7,147.8,46.2,144.6,48"/>
	<path fill="#BCBEC0" d="M145.9,55.8c-3.9,1.2-8.3,1.9-13.5,2.4c-2.1,0.2-4.3,0.3-6.9,0.4l-6.9,0.3c-17.3,0.8-34.4,1.7-53.4,2.7v4.1
		c18.1-1.4,35.8-2.8,53.5-4.1l6.9-0.5c2.7-0.2,4.9-0.4,7-0.6c5.3-0.6,9.8-1.5,13.8-2.8c4.4-1.4,8.8-3.5,12.9-6.1
		c3-1.9,6.1-4.3,9.2-7v-0.1c-3.5,3-6.8,3.6-10,5.7C154.4,52.6,150.2,54.5,145.9,55.8"/>
	<path fill="#BCBEC0" d="M145.3,62.5c-3.9,0.9-8.2,1.5-13.5,1.9c-2,0.1-4.2,0.2-6.8,0.3l-6.9,0.2c-17.3,0.7-34.9,1.4-52.9,2.2v4.1
		c17.8-1.2,35.3-2.4,53-3.5l6.9-0.4c2.7-0.2,4.9-0.3,6.9-0.5c5.3-0.5,9.7-1.2,13.7-2.3c4.5-1.2,8.9-2.9,13.1-5.1
		c3.2-1.7,6.4-3.8,9.7-6.3v-1.7c-3.6,2.6-7,4.8-10.5,6.5C154,59.9,149.7,61.5,145.3,62.5"/>
	<path fill="#BCBEC0" d="M144.7,69.1c-4,0.7-8.2,1.2-13.4,1.5c-2,0.1-4,0.2-6.8,0.2l-59.2,1.6v4.1l52.5-2.8l6.8-0.3
		c2.7-0.1,4.8-0.3,6.8-0.4c5.3-0.4,9.6-1,13.6-1.8c4.6-1,9-2.4,13.2-4.2c3.4-1.4,6.8-3.2,10.3-5.4V60c-3.8,2.2-7.3,4-10.9,5.4
		C153.5,67.1,149.1,68.3,144.7,69.1"/>
	<path fill="#BCBEC0" d="M144.2,75.8c-7.3,1-14.8,1.1-22,1.2c-1.7,0-3.3,0-5,0.1l-52,0.9v4.1l52.1-2.3c1.7-0.1,3.3-0.1,5-0.2
		c7.3-0.3,14.8-0.6,22.2-1.8c4.7-0.7,9.2-1.8,13.3-3.3c3.5-1.2,7.1-2.7,10.7-4.5v-1.6c-3.8,1.8-7.6,3.3-11.2,4.4
		C153.2,74.2,148.8,75.2,144.2,75.8"/>
	<path fill="#BCBEC0" d="M143.8,82.5C137,83,130,83,123.3,83c-2.1,0-4.2,0-6.3,0c-17.2,0.1-34.3,0.2-51.7,0.4v4.1
		c16.6-0.6,34.2-1.2,51.8-1.7c2.1-0.1,4.2-0.1,6.3-0.2c6.8-0.2,13.8-0.4,20.7-1.1c4.8-0.5,9.2-1.3,13.4-2.3
		c3.7-0.9,7.4-2.1,11.2-3.6v-1.5c-3.9,1.4-7.8,2.6-11.5,3.4C152.8,81.4,148.5,82.1,143.8,82.5"/>
	<path fill="#BCBEC0" d="M143.5,89.1c-2.8,0.1-5.9,0.2-9.4,0.2c-1.3,0-2.6,0-3.9,0L116.8,89C107.6,89,98.5,89,90,89l-24.7,0V93
		L90,92.4c8.5-0.2,17.7-0.4,26.8-0.6l13.4-0.2c3.7-0.1,8.5-0.2,13.4-0.5c4.8-0.3,9.2-0.8,13.4-1.5c3.8-0.6,7.6-1.4,11.5-2.4v-1.4
		c-4,0.9-7.9,1.7-11.7,2.2C152.6,88.5,148.3,88.9,143.5,89.1"/>
	<path fill="#BCBEC0" d="M130,95.4l-13.4-0.1c-17-0.2-34.1-0.6-51.4-0.9v4.1c16.6-0.1,34.1-0.2,51.4-0.4l13.4-0.2
		c4.5-0.1,8.9-0.2,13.4-0.3c9.2-0.3,17.4-1,25.1-2v-1.4c-7.7,0.8-16,1.3-25.1,1.3C138.9,95.5,134.5,95.5,130,95.4"/>
	<polygon fill="#BCBEC0" points="168.5,102.6 65.2,100 65.2,104 168.5,104 	"/>
	<path fill="#BCBEC0" d="M159.2,34.5c-3.9,3.2-7,5.5-11.8,7.4c-4.2,1.7-8.7,2.4-13.8,3.1c-3.3,0.5-6.8,1.2-10.1,1.4
		c-1.4,0.1-2.7,0.2-4.1,0.3l-54.3,4v4.1l54.5-5.3l7.1-0.7c2.6-0.3,4.9-0.5,7.1-0.9c5.3-0.9,9.8-2.2,13.9-4c4.2-1.9,8.5-5,12.5-8.4
		c2.7-2.3,5.3-5.2,8.2-8.4v-1.5C165.1,29.2,162.2,32.1,159.2,34.5"/>
	<path fill="#BCBEC0" d="M212.5,0c0,0,18.6,29.7,22,35.2c3.4,5.4,7.3,9.8,21,12.7c13.8,2.9,19.7,4.3,19.7,4.3v1.1
		c0,0-8.7-1.9-20-4.4c-11.2-2.5-15.8-3.4-21-10.5C230,32.3,212.5,7,212.5,7V0z"/>
	<path fill="#BCBEC0" d="M212.5,33.9c0,0,16.9,17.8,21.8,22.9c5.2,5.4,11.8,7.4,21.1,9.1c8.8,1.6,19.9,3.4,19.9,3.4v1
		c0,0-10.4-1.7-19.9-3.3c-9.3-1.6-15.8-2.5-21.1-7.4c-4.8-4.4-21.8-20.4-21.8-20.4V33.9z"/>
	<path fill="#BCBEC0" d="M212.5,41.9c0,0,16.1,15,21.8,20.1c5.3,4.7,9.5,6.2,21.1,8.2c11.6,2.1,19.8,3.3,19.8,3.3v1.1
		c0,0-10.5-1.7-19.9-3.2c-9.4-1.5-15.4-2.1-21.1-6.7c-6.5-5.3-21.8-17.9-21.8-17.9V41.9z"/>
	<path fill="#BCBEC0" d="M212.5,50.5c0,0,18.4,14.6,21.8,17.2c3.4,2.6,8,5.5,21.2,7.5c13.1,1.9,19.8,2.8,19.8,2.8v1.1
		c0,0-11.9-1.7-19.8-2.7c-7.9-1-14-1.4-21.1-6.2c-6.9-4.6-21.9-15.2-21.9-15.2V50.5z"/>
	<path fill="#BCBEC0" d="M212.5,58.7c0,0,18.4,12.3,21.9,14.3c3.5,1.9,7.6,5.1,21.1,6.8c13.5,1.7,19.8,2.5,19.8,2.5v1.1
		c0,0-11.1-1.2-19.8-2.2c-8.7-0.9-14.6-2.2-21.1-5.8c-6.5-3.6-21.8-12.6-21.8-12.6V58.7z"/>
	<path fill="#BCBEC0" d="M212.5,66.9c0,0,16.3,8.9,21.8,11.7c6.2,3.1,11.5,4.6,21.1,5.7c9.5,1.1,19.8,2.2,19.8,2.2v1
		c0,0-9.6-1-19.8-2c-10.2-1-13.8-1.4-21.1-4.7c-6.6-2.9-21.8-10.1-21.8-10.1V66.9z"/>
	<path fill="#BCBEC0" d="M212.5,75.2c0,0,12.9,5.5,21.9,9.1c8.9,3.5,15.7,3.8,21.1,4.5c2.4,0.3,19.7,2.1,19.7,2.1v1
		c0,0-10.4-0.8-19.8-1.7c-9.4-0.8-13.5-1.2-21.1-3.7c-7.7-2.6-21.9-7.5-21.9-7.5V75.2z"/>
	<path fill="#BCBEC0" d="M212.5,83.7c0,0,13,4,21.9,6.4c8.9,2.3,17,3.3,21.1,3.6c4.1,0.3,19.8,1.6,19.8,1.6v0.9
		c0,0-8.9-0.6-19.8-1.4c-8.8-0.6-15.9-1.3-21.1-2.4c-5.8-1.3-21.8-5.1-21.8-5.1V83.7z"/>
	<path fill="#BCBEC0" d="M212.5,92.1c0,0,10.6,1.8,21.9,3.7c8.4,1.4,19.8,2.3,21.1,2.3c1.2,0.1,19.8,1.3,19.8,1.3v1
		c0,0-11.9-0.6-19.8-1.1c-8.3-0.5-16.5-1-21.1-1.4c-10.4-1.1-21.8-2.5-21.8-2.5V92.1z"/>
	<path fill="#BCBEC0" d="M212.5,100.7c0,0,16.8,0.6,21.9,0.7c5.1,0.1,40.9,1.6,40.9,1.6v1h-62.8V100.7z"/>
	<path fill="#BCBEC0" d="M255.4,52.4c-15.2-3.3-18.6-8.9-21.2-12.3c-2.5-3.5-21.8-31.6-21.8-31.6v6.4c0.8,1,17.2,22.6,21.8,28.5
		c5.2,6.7,13.4,8.2,21.1,9.9c7.8,1.7,19.8,4,19.8,4v-0.9C275.2,56.4,259.3,53.3,255.4,52.4"/>
	<path fill="#BCBEC0" d="M255.4,56.9c-12.5-2.4-17.5-6.4-21.2-11.2c-3.7-4.8-21.8-28.7-21.8-28.7v6c0.8,0.9,17.3,20.6,21.8,25.7
		c5.2,6,12.4,7.5,21.2,9.1c8.8,1.6,19.8,3.7,19.8,3.7v-0.9C275.2,60.7,262.6,58.3,255.4,56.9"/>
	<path fill="#BCBEC0" d="M255.4,61.5c-13-2.5-15.6-4.6-21.1-10.6c-3.4-3.8-21.1-24.7-21.8-25.5v5.6c0,0,16.5,17.6,21.8,22.8
		c6.9,6.8,13.5,7.3,21.2,8.7c7.7,1.4,19.8,3.6,19.8,3.6v-0.9C275.2,65.1,260.6,62.5,255.4,61.5"/>
	<rect x="108.2" y="43.3" fill="#0D4F9E" width="90.5" height="60.7"/>
	<polygon fill="#FAEA27" points="154.4,51.9 157.5,51.9 155,53.9 156,57 153.5,55.1 150.9,57 151.9,53.9 149.4,51.9 152.5,51.9 
		153.5,48.8 	"/>
	<polygon fill="#FAEA27" points="154.5,92.4 157.7,92.4 155.1,94.3 156.1,97.3 153.6,95.5 151,97.3 152,94.3 149.5,92.4 152.6,92.4 
		153.6,89.4 	"/>
	<polygon fill="#FAEA27" points="164.5,89.7 167.6,89.7 165.1,91.6 166.1,94.7 163.6,92.8 161,94.7 162,91.6 159.5,89.7 162.6,89.7 
		163.6,86.8 	"/>
	<polygon fill="#FAEA27" points="164.5,54.6 167.6,54.6 165.1,56.5 166.1,59.5 163.6,57.7 161,59.5 162,56.5 159.5,54.6 162.6,54.6 
		163.6,51.6 	"/>
	<polygon fill="#FAEA27" points="171.9,62 175,62 172.5,63.9 173.5,67 171,65.1 168.4,67 169.4,63.9 166.9,62 170,62 171,59.1 	"/>
	<polygon fill="#FAEA27" points="171.9,82.4 175,82.4 172.5,84.3 173.5,87.3 171,85.5 168.4,87.3 169.4,84.3 166.9,82.4 170,82.4 
		171,79.4 	"/>
	<polygon fill="#FAEA27" points="174.7,72.1 177.8,72.1 175.3,74 176.3,77 173.7,75.1 171.2,77 172.2,74 169.7,72.1 172.8,72.1 
		173.7,69.1 	"/>
	<polygon fill="#FAEA27" points="144.2,54.6 147.4,54.6 144.8,56.5 145.8,59.6 143.3,57.7 140.7,59.6 141.7,56.5 139.2,54.6 
		142.3,54.6 143.3,51.7 	"/>
	<polygon fill="#FAEA27" points="137,62.1 140.2,62.1 137.6,64 138.6,67 136.1,65.1 133.5,67 134.5,64 132,62.1 135.1,62.1 
		136.1,59.1 	"/>
	<polygon fill="#FAEA27" points="134.3,72.1 137.5,72.1 134.9,74 135.9,77 133.4,75.2 130.9,77 131.9,74 129.3,72.1 132.4,72.1 
		133.4,69.1 	"/>
	<polygon fill="#FAEA27" points="137,82.4 140.2,82.4 137.6,84.3 138.6,87.4 136.1,85.5 133.5,87.4 134.5,84.3 132,82.4 135.1,82.4 
		136.1,79.5 	"/>
	<polygon fill="#FAEA27" points="144.3,89.7 147.5,89.7 144.9,91.7 145.9,94.7 143.4,92.8 140.9,94.7 141.8,91.7 139.3,89.7 
		142.4,89.7 143.4,86.8 	"/>
</g>
</svg>
