<?xml version="1.0" encoding="utf-8"?>
<!-- Generator: Adobe Illustrator 18.1.1, SVG Export Plug-In . SVG Version: 6.00 Build 0)  -->
<svg version="1.1" id="Layer_1" xmlns="http://www.w3.org/2000/svg" xmlns:xlink="http://www.w3.org/1999/xlink" x="0px" y="0px"
	 viewBox="0 293 594.8 255.7" enable-background="new 0 293 594.8 255.7" xml:space="preserve">
<g>
	<path fill="#404040" d="M0,516.6c0-2.7,0.2-5.4,0.6-7.9c0.5-2.7,1.3-4.9,2.5-7s3-3.6,5.2-4.9s5.1-1.9,8.7-1.9c0.8,0,1.6,0,2.7,0.2
		c0.9,0,2.1,0.2,3,0.3c1.1,0.2,2.1,0.3,3.2,0.6c0.9,0.2,1.9,0.5,2.8,0.8c0.5,0.2,0.8,0.5,1.1,0.8c0.2,0.3,0.3,0.6,0.2,1.3l-0.6,2.5
		c-0.2,0.3-0.2,0.6-0.5,0.8c-0.2,0.2-0.6,0.2-1.3,0.2c-1.6-0.2-3.2-0.5-5.1-0.6c-1.7-0.2-3.5-0.3-5.2-0.3c-2.2,0-4,0.5-5.2,1.3
		s-2.4,1.9-3,3.3c-0.6,1.4-1.1,3-1.4,4.9c-0.2,1.9-0.3,3.8-0.3,5.9s0.2,4,0.3,5.9c0.3,1.7,0.8,3.3,1.4,4.7c0.8,1.3,1.7,2.4,3,3.2
		c1.3,0.8,3,1.1,5.1,1.1c1.9,0,3.6-0.2,5.2-0.3c1.6-0.2,3.3-0.3,5.1-0.6c0.6-0.2,0.9,0,1.3,0.2c0.2,0.2,0.3,0.5,0.5,0.9l0.5,2.4
		c0.3,0.9-0.2,1.6-1.1,2.1c-0.8,0.3-1.6,0.6-2.7,0.8c-1.1,0.2-2.1,0.5-3.2,0.6c-1.1,0.2-2.1,0.3-3.2,0.3c-1.1,0-1.9,0.2-2.7,0.2
		c-3.5,0-6.5-0.6-8.7-1.7c-2.2-1.3-4-2.8-5.2-4.7c-1.3-2.1-2.1-4.3-2.5-6.8C0.2,521.8,0,519.3,0,516.6z"/>
	<path fill="#404040" d="M61.9,521.2c0,1.7-0.2,3.6-0.3,5.7c-0.2,1.9-0.8,3.8-1.7,5.4s-2.4,3-4.1,4c-1.9,1.1-4.4,1.6-7.8,1.6
		c-3.2,0-5.7-0.5-7.4-1.6s-3.2-2.4-4.1-4c-0.9-1.6-1.4-3.5-1.7-5.4c-0.2-1.9-0.3-3.8-0.3-5.7c0-1.4,0.2-3.2,0.5-4.9
		c0.3-1.7,0.9-3.5,1.7-5.1c0.9-1.6,2.2-2.8,4.1-4c1.7-1.1,4.3-1.6,7.3-1.6c3,0,5.5,0.5,7.3,1.4c1.9,0.9,3.2,2.2,4.3,3.6
		c0.9,1.4,1.6,3.2,1.9,5.1C61.7,517.4,61.9,519.3,61.9,521.2z M54.9,521.6c0-1.7-0.2-3.2-0.3-4.4c-0.2-1.3-0.5-2.2-0.9-3.2
		c-0.5-0.8-1.3-1.4-2.1-1.9c-0.8-0.5-2.1-0.6-3.5-0.6s-2.4,0.2-3.3,0.6c-0.8,0.5-1.6,1.1-2.1,1.9c-0.5,0.8-0.8,1.9-0.9,3.2
		c-0.2,1.3-0.3,2.7-0.3,4.3c0,1.7,0.2,3.2,0.3,4.4c0.2,1.3,0.5,2.2,0.9,3.2c0.5,0.8,1.1,1.4,1.9,1.9s1.9,0.6,3.3,0.6
		c1.4,0,2.5-0.2,3.5-0.6c0.9-0.5,1.6-0.9,2.1-1.9c0.5-0.8,0.8-1.9,0.9-3.2C54.8,524.8,54.9,523.2,54.9,521.6z"/>
	<path fill="#404040" d="M113.4,536.8c-0.2,0.2-0.5,0.3-0.9,0.3h-4.6c-0.8,0-1.3-0.5-1.3-1.3v-18c0-2.4-0.3-4-0.9-4.7
		c-0.6-0.8-1.7-1.3-3.3-1.3c-0.6,0-1.3,0.2-2.1,0.3s-1.4,0.5-2.2,0.8c-0.8,0.3-1.4,0.6-2.1,0.9c-0.6,0.3-1.3,0.6-1.7,0.9
		c0,0.3,0,0.8,0,1.3c0,0.5,0,1.1,0,1.9v17.9c0,0.3-0.2,0.6-0.3,0.9c-0.2,0.2-0.5,0.3-0.9,0.3h-4.6c-0.8,0-1.1-0.5-1.1-1.3v-18.4
		c0-1.9-0.3-3.3-0.9-4.3c-0.6-0.9-1.7-1.4-3.3-1.4c-0.5,0-1.1,0.2-1.9,0.3c-0.8,0.2-1.4,0.5-2.2,0.6c-0.8,0.3-1.4,0.6-2.2,0.9
		s-1.4,0.6-1.9,0.9v21.2c0,0.8-0.5,1.3-1.3,1.3h-4.6c-0.8,0-1.1-0.5-1.1-1.3v-28.5c0-0.8,0.3-1.3,1.1-1.3h4.4c0.8,0,1.3,0.5,1.3,1.3
		v1.9l0,0c0.6-0.5,1.3-0.8,2.1-1.3c0.8-0.5,1.4-0.8,2.4-1.1c0.8-0.3,1.6-0.6,2.5-0.8c0.8-0.2,1.7-0.3,2.5-0.5c1.7,0,3.5,0.3,4.9,0.8
		c1.4,0.6,2.7,1.7,3.6,3.6c1.6-1.1,3.3-2.2,5.2-3.2s3.8-1.3,5.9-1.3c2.1,0,3.6,0.3,4.9,0.9c1.3,0.6,2.2,1.4,2.8,2.5
		c0.6,1.1,1.1,2.4,1.3,3.8c0.2,1.4,0.3,3,0.3,4.4V536C113.5,536.4,113.5,536.7,113.4,536.8z"/>
	<path fill="#404040" d="M165.4,536.8c-0.2,0.2-0.5,0.3-0.9,0.3h-4.6c-0.8,0-1.3-0.5-1.3-1.3v-18c0-2.4-0.3-4-0.9-4.7
		c-0.6-0.8-1.7-1.3-3.3-1.3c-0.6,0-1.3,0.2-2.1,0.3s-1.4,0.5-2.2,0.8c-0.8,0.3-1.4,0.6-2.1,0.9c-0.6,0.3-1.3,0.6-1.7,0.9
		c0,0.3,0,0.8,0,1.3c0,0.5,0,1.1,0,1.9v17.9c0,0.3-0.2,0.6-0.3,0.9c-0.2,0.2-0.5,0.3-0.9,0.3h-4.6c-0.8,0-1.1-0.5-1.1-1.3v-18.4
		c0-1.9-0.3-3.3-0.9-4.3c-0.6-0.9-1.7-1.4-3.3-1.4c-0.5,0-1.1,0.2-1.9,0.3c-0.8,0.2-1.4,0.5-2.2,0.6c-0.8,0.3-1.4,0.6-2.2,0.9
		c-0.8,0.3-1.4,0.6-1.9,0.9v21.2c0,0.8-0.5,1.3-1.3,1.3H121c-0.8,0-1.1-0.5-1.1-1.3v-28.5c0-0.8,0.3-1.3,1.1-1.3h4.4
		c0.8,0,1.3,0.5,1.3,1.3v1.9l0,0c0.6-0.5,1.3-0.8,2.1-1.3c0.8-0.5,1.4-0.8,2.4-1.1c0.8-0.3,1.6-0.6,2.5-0.8c0.8-0.2,1.7-0.3,2.5-0.5
		c1.7,0,3.5,0.3,4.9,0.8c1.4,0.6,2.7,1.7,3.6,3.6c1.6-1.1,3.3-2.2,5.2-3.2c1.9-0.9,3.8-1.3,5.9-1.3c2.1,0,3.6,0.3,4.9,0.9
		s2.2,1.4,2.8,2.5s1.1,2.4,1.3,3.8c0.2,1.4,0.3,3,0.3,4.4V536C165.8,536.4,165.6,536.7,165.4,536.8z"/>
	<path fill="#404040" d="M180.8,497.9c0,0.5,0,0.9-0.2,1.4c-0.2,0.5-0.3,0.8-0.5,1.1c-0.3,0.3-0.6,0.6-1.1,0.8
		c-0.5,0.2-1.1,0.3-1.9,0.3s-1.6-0.2-2.1-0.3c-0.5-0.2-0.8-0.5-1.1-0.8c-0.3-0.3-0.5-0.8-0.5-1.1c-0.2-0.5-0.2-0.9-0.2-1.4
		c0-0.9,0.3-1.9,0.8-2.5c0.5-0.6,1.4-1.1,3-1.1s2.5,0.3,3,0.9C180.5,496,180.8,496.8,180.8,497.9z M180.3,535.9c0,0.3,0,0.6-0.2,0.8
		c-0.2,0.2-0.5,0.3-0.9,0.3h-4.4c-0.8,0-1.3-0.5-1.3-1.3v-28.7c0-0.8,0.5-1.3,1.3-1.3h4.4c0.5,0,0.8,0.2,0.9,0.3
		c0.2,0.2,0.2,0.5,0.2,0.8V535.9z"/>
	<path fill="#404040" d="M211.4,527.8c0,1.9-0.3,3.5-1.1,4.6c-0.8,1.3-1.7,2.2-2.8,3c-1.3,0.8-2.5,1.3-4.1,1.6s-3.2,0.5-4.7,0.5
		s-3.3-0.2-5.2-0.3c-1.9-0.2-3.3-0.6-4.6-1.1c-0.6-0.3-1.1-0.5-1.3-0.8c-0.2-0.3-0.2-0.8-0.2-1.3l0.5-2.1c0.2-0.5,0.3-0.8,0.5-0.9
		c0.3-0.2,0.6-0.2,1.1,0c0.6,0.2,1.4,0.2,2.2,0.3s1.6,0.2,2.5,0.2c0.9,0,1.6,0.2,2.4,0.2c0.8,0,1.4,0,1.9,0c2.1,0,3.5-0.3,4.4-0.8
		c0.9-0.6,1.3-1.4,1.3-2.7c0-0.8,0-1.3-0.2-1.7c-0.2-0.5-0.5-0.8-0.8-1.1c-0.3-0.3-0.9-0.5-1.6-0.8c-0.6-0.2-1.4-0.3-2.5-0.5
		c-1.6-0.2-3-0.5-4.4-0.8c-1.4-0.3-2.7-0.8-3.6-1.4c-1.1-0.6-1.9-1.6-2.5-2.5c-0.6-1.1-0.9-2.5-0.9-4.3c0-3.2,1.1-5.5,3.3-7.1
		c2.2-1.6,5.1-2.4,8.5-2.4c0.6,0,1.4,0,2.2,0c0.8,0,1.7,0.2,2.5,0.3s1.7,0.3,2.5,0.5s1.6,0.3,2.2,0.6c1.1,0.5,1.4,1.1,1.3,1.9
		l-0.5,2.2c-0.2,0.5-0.3,0.8-0.5,0.8c-0.2,0.2-0.6,0.2-1.3,0c-1.4-0.2-2.8-0.3-4.4-0.5s-3-0.2-4.1-0.2c-2.1,0-3.3,0.3-4,0.8
		c-0.6,0.6-0.9,1.4-0.9,2.7c0,1.3,0.5,2.1,1.3,2.4s2.2,0.8,4.1,0.9c1.6,0.2,3,0.5,4.3,0.8c1.4,0.3,2.5,0.8,3.6,1.6
		c1.1,0.6,1.9,1.6,2.5,2.7C211,524.5,211.4,525.9,211.4,527.8z"/>
	<path fill="#404040" d="M240.5,527.8c0,1.9-0.3,3.5-1.1,4.6c-0.8,1.3-1.7,2.2-2.8,3c-1.3,0.8-2.5,1.3-4.1,1.6s-3.2,0.5-4.7,0.5
		s-3.3-0.2-5.2-0.3s-3.3-0.6-4.6-1.1c-0.6-0.3-1.1-0.5-1.3-0.8c-0.2-0.3-0.2-0.8-0.2-1.3l0.5-2.1c0.2-0.5,0.3-0.8,0.5-0.9
		c0.3-0.2,0.6-0.2,1.1,0c0.6,0.2,1.4,0.2,2.2,0.3s1.6,0.2,2.5,0.2s1.6,0.2,2.4,0.2s1.4,0,1.9,0c2.1,0,3.5-0.3,4.4-0.8
		c0.9-0.6,1.3-1.4,1.3-2.7c0-0.8,0-1.3-0.2-1.7s-0.5-0.8-0.8-1.1c-0.3-0.3-0.9-0.5-1.6-0.8c-0.6-0.2-1.4-0.3-2.5-0.5
		c-1.6-0.2-3-0.5-4.4-0.8c-1.4-0.3-2.7-0.8-3.6-1.4c-1.1-0.6-1.9-1.6-2.5-2.5c-0.6-1.1-0.9-2.5-0.9-4.3c0-3.2,1.1-5.5,3.3-7.1
		c2.2-1.6,5.1-2.4,8.5-2.4c0.6,0,1.4,0,2.2,0s1.7,0.2,2.5,0.3s1.7,0.3,2.5,0.5s1.6,0.3,2.2,0.6c1.1,0.5,1.4,1.1,1.3,1.9l-0.5,2.2
		c-0.2,0.5-0.3,0.8-0.5,0.8c-0.2,0.2-0.6,0.2-1.3,0c-1.4-0.2-2.8-0.3-4.4-0.5s-3-0.2-4.1-0.2c-2.1,0-3.3,0.3-4,0.8
		c-0.6,0.6-0.9,1.4-0.9,2.7c0,1.3,0.5,2.1,1.3,2.4s2.2,0.8,4.1,0.9c1.6,0.2,3,0.5,4.3,0.8c1.4,0.3,2.5,0.8,3.6,1.6
		c1.1,0.6,1.9,1.6,2.5,2.7C240.2,524.5,240.5,525.9,240.5,527.8z"/>
	<path fill="#404040" d="M254.6,497.9c0,0.5,0,0.9-0.2,1.4c-0.2,0.5-0.3,0.8-0.5,1.1c-0.3,0.3-0.6,0.6-1.1,0.8s-1.1,0.3-1.9,0.3
		s-1.6-0.2-2.1-0.3c-0.5-0.2-0.8-0.5-1.1-0.8c-0.3-0.3-0.5-0.8-0.5-1.1c-0.2-0.5-0.2-0.9-0.2-1.4c0-0.9,0.3-1.9,0.8-2.5
		c0.5-0.6,1.4-1.1,3-1.1s2.5,0.3,3,0.9C254.3,496,254.6,496.8,254.6,497.9z M254.1,535.9c0,0.3,0,0.6-0.2,0.8
		c-0.2,0.2-0.5,0.3-0.9,0.3h-4.4c-0.8,0-1.3-0.5-1.3-1.3v-28.7c0-0.8,0.5-1.3,1.3-1.3h4.4c0.5,0,0.8,0.2,0.9,0.3
		c0.2,0.2,0.2,0.5,0.2,0.8L254.1,535.9L254.1,535.9z"/>
	<path fill="#404040" d="M288.8,521.2c0,1.7-0.2,3.6-0.3,5.7c-0.2,1.9-0.8,3.8-1.7,5.4s-2.4,3-4.1,4c-1.9,1.1-4.4,1.6-7.8,1.6
		c-3.2,0-5.7-0.5-7.4-1.6s-3.2-2.4-4.1-4s-1.4-3.5-1.7-5.4c-0.2-1.9-0.3-3.8-0.3-5.7c0-1.4,0.2-3.2,0.5-4.9s0.9-3.5,1.7-5.1
		c0.9-1.6,2.2-2.8,4.1-4c1.7-1.1,4.3-1.6,7.3-1.6c3,0,5.5,0.5,7.3,1.4c1.9,0.9,3.2,2.2,4.3,3.6c0.9,1.4,1.6,3.2,1.9,5.1
		C288.6,517.4,288.8,519.3,288.8,521.2z M281.8,521.6c0-1.7-0.2-3.2-0.3-4.4c-0.2-1.3-0.5-2.2-0.9-3.2c-0.5-0.8-1.3-1.4-2.1-1.9
		s-2.1-0.6-3.5-0.6s-2.4,0.2-3.3,0.6c-0.8,0.5-1.6,1.1-2.1,1.9c-0.5,0.8-0.8,1.9-0.9,3.2c-0.2,1.3-0.3,2.7-0.3,4.3
		c0,1.7,0.2,3.2,0.3,4.4c0.2,1.3,0.5,2.2,0.9,3.2c0.5,0.8,1.1,1.4,1.9,1.9s1.9,0.6,3.3,0.6c1.4,0,2.5-0.2,3.5-0.6
		c0.9-0.5,1.6-0.9,2.1-1.9c0.5-0.8,0.8-1.9,0.9-3.2C281.6,524.8,281.8,523.2,281.8,521.6z"/>
	<path fill="#404040" d="M321.7,536.8c-0.2,0.2-0.5,0.3-0.9,0.3h-4.6c-0.8,0-1.3-0.5-1.3-1.3v-17.7c0-1.9-0.3-3.3-0.9-4.4
		s-1.9-1.7-3.6-1.7c-0.6,0-1.4,0.2-2.2,0.3c-0.8,0.2-1.6,0.5-2.5,0.8c-0.8,0.3-1.6,0.6-2.4,0.9c-0.8,0.3-1.3,0.6-1.7,0.8V536
		c0,0.8-0.5,1.3-1.3,1.3h-4.1c-0.8,0-1.3-0.5-1.3-1.3v-28.5c0-0.8,0.5-1.3,1.3-1.3h4.4c0.8,0,1.3,0.5,1.3,1.3v1.9c0,0,0,0,0.2,0
		c0,0,0,0,0.2,0c0.6-0.5,1.3-0.8,2.1-1.3c0.8-0.5,1.7-0.8,2.7-1.3c0.9-0.3,1.9-0.6,2.8-0.9c0.9-0.2,2.1-0.3,3-0.3
		c2.2,0,3.8,0.3,5.1,0.9c1.3,0.6,2.2,1.6,2.8,2.7c0.6,1.1,1.1,2.4,1.3,3.8c0.2,1.4,0.3,3,0.3,4.6V536
		C322,536.4,321.9,536.7,321.7,536.8z"/>
	<path fill="#404040" d="M335,523.5c0,1.6,0.2,3,0.5,4c0.3,1.1,0.8,1.9,1.4,2.5s1.4,1.1,2.4,1.3c0.9,0.3,2.1,0.3,3.3,0.3
		c1.1,0,2.5-0.2,4.1-0.3s3-0.3,4.1-0.5c0.6-0.2,0.9,0,1.3,0c0.2,0.2,0.3,0.5,0.5,1.1l0.3,2.1c0.2,0.5,0,0.8,0,1.1
		c-0.2,0.3-0.5,0.6-1.1,0.8c-0.6,0.3-1.4,0.5-2.2,0.6s-1.7,0.3-2.7,0.5c-0.9,0.2-1.9,0.2-2.8,0.3c-0.9,0.2-1.7,0.2-2.5,0.2
		c-3,0-5.5-0.5-7.3-1.3c-1.7-0.9-3.2-2.1-4.1-3.5s-1.6-3.2-1.9-5.1c-0.3-1.9-0.5-4-0.5-6c0-1.6,0.2-3.2,0.3-5.1
		c0.2-1.9,0.8-3.6,1.7-5.4c0.9-1.6,2.2-3,4.1-4.1c1.7-1.1,4.3-1.7,7.3-1.7c2.8,0,5.1,0.5,6.8,1.3c1.7,0.8,3.2,1.9,4.1,3.3
		c0.9,1.3,1.6,2.8,2.1,4.6c0.3,1.7,0.6,3.5,0.6,5.1c0,1.1-0.2,2.1-0.6,2.8c-0.5,0.8-1.3,1.1-2.5,1.1H335z M341.3,511.2
		c-1.1,0-2.2,0.2-2.8,0.5c-0.6,0.3-1.4,0.8-1.9,1.4c-0.5,0.6-0.8,1.4-1.1,2.4c-0.2,0.9-0.3,2.1-0.5,3.2h12.5c0-0.9-0.2-1.9-0.3-2.8
		c-0.2-0.9-0.5-1.7-0.9-2.4c-0.5-0.6-1.1-1.3-1.9-1.7C343.7,511.5,342.8,511.2,341.3,511.2z"/>
	<path fill="#404040" d="M385,523.5c0,1.6,0.2,3,0.5,4c0.3,1.1,0.8,1.9,1.4,2.5s1.4,1.1,2.4,1.3c0.9,0.3,2.1,0.3,3.3,0.3
		c1.1,0,2.5-0.2,4.1-0.3s3-0.3,4.1-0.5c0.6-0.2,0.9,0,1.3,0c0.2,0.2,0.3,0.5,0.5,1.1l0.3,2.1c0.2,0.5,0,0.8,0,1.1
		c-0.2,0.3-0.5,0.6-1.1,0.8c-0.6,0.3-1.4,0.5-2.2,0.6s-1.7,0.3-2.7,0.5c-0.9,0.2-1.9,0.2-2.8,0.3c-0.9,0.2-1.7,0.2-2.5,0.2
		c-3,0-5.5-0.5-7.3-1.3c-1.7-0.9-3.2-2.1-4.1-3.5s-1.6-3.2-1.9-5.1c-0.3-1.9-0.5-4-0.5-6c0-1.6,0.2-3.2,0.3-5.1
		c0.2-1.9,0.8-3.6,1.7-5.4c0.9-1.6,2.2-3,4.1-4.1c1.7-1.1,4.3-1.7,7.3-1.7c2.8,0,5.1,0.5,6.8,1.3c1.7,0.8,3.2,1.9,4.1,3.3
		c0.9,1.3,1.6,2.8,2.1,4.6c0.3,1.7,0.6,3.5,0.6,5.1c0,1.1-0.2,2.1-0.6,2.8c-0.5,0.8-1.3,1.1-2.5,1.1H385z M391.4,511.2
		c-1.1,0-2.2,0.2-2.8,0.5c-0.8,0.3-1.4,0.8-1.9,1.4c-0.5,0.6-0.8,1.4-1.1,2.4c-0.2,0.9-0.3,2.1-0.5,3.2h12.5c0-0.9-0.2-1.9-0.3-2.8
		c-0.2-0.9-0.5-1.7-0.9-2.4c-0.5-0.6-1.1-1.3-1.9-1.7C393.7,511.5,392.6,511.2,391.4,511.2z"/>
	<path fill="#404040" d="M436.3,537.2h-4.4c-0.5,0-0.8-0.2-0.9-0.3c-0.2-0.2-0.3-0.5-0.3-0.9V534h-0.2c-0.6,0.5-1.4,0.8-2.2,1.3
		c-0.8,0.5-1.7,0.8-2.7,1.3c-0.9,0.3-1.9,0.6-2.8,0.9c-0.9,0.2-1.9,0.3-3,0.3c-2.2,0-3.8-0.3-5.1-0.9c-1.3-0.6-2.2-1.4-2.8-2.5
		s-1.1-2.4-1.3-3.8c-0.2-1.4-0.3-3-0.3-4.6v-18.7c0-0.8,0.5-1.3,1.3-1.3h4.6c0.8,0,1.1,0.5,1.1,1.3V525c0,0.9,0,1.9,0.2,2.5
		c0.2,0.8,0.3,1.4,0.6,1.9c0.3,0.5,0.8,0.9,1.4,1.3c0.6,0.3,1.4,0.5,2.4,0.5c0.6,0,1.4-0.2,2.2-0.3c0.8-0.2,1.6-0.5,2.4-0.8
		s1.6-0.6,2.2-0.9s1.3-0.6,1.6-0.8v-21.2c0-0.3,0.2-0.6,0.3-0.9c0.2-0.2,0.5-0.3,0.9-0.3h4.4c0.8,0,1.3,0.5,1.3,1.3v28.5
		C437.6,536.7,437.1,537.2,436.3,537.2z"/>
	<path fill="#404040" d="M452.5,535.9c0,0.8-0.5,1.3-1.3,1.3h-4.6c-0.8,0-1.3-0.5-1.3-1.3v-28.5c0-0.8,0.5-1.3,1.3-1.3h4.6
		c0.8,0,1.3,0.5,1.3,1.3v2.8l0.2,0.2c0.5-0.5,1.1-0.9,1.9-1.4s1.6-0.9,2.4-1.3c0.8-0.5,1.7-0.8,2.7-1.1c0.9-0.3,1.7-0.6,2.5-0.6
		c0.5-0.2,0.8,0,0.9,0c0.3,0.2,0.5,0.5,0.5,0.9l0.5,4.3c0,0.5,0,0.8,0,0.9c-0.2,0.2-0.5,0.3-1.1,0.5c-0.9,0.2-1.7,0.3-2.8,0.6
		c-0.9,0.2-1.9,0.5-2.8,0.8c-0.9,0.3-1.7,0.5-2.5,0.8s-1.4,0.5-2.1,0.8v20.3H452.5z"/>
	<path fill="#404040" d="M494.3,521.2c0,1.7-0.2,3.6-0.3,5.7c-0.2,1.9-0.8,3.8-1.7,5.4s-2.4,3-4.1,4c-1.9,1.1-4.4,1.6-7.8,1.6
		c-3.2,0-5.7-0.5-7.4-1.6c-1.7-1.1-3.2-2.4-4.1-4s-1.4-3.5-1.7-5.4c-0.2-1.9-0.3-3.8-0.3-5.7c0-1.4,0.2-3.2,0.5-4.9
		c0.3-1.7,0.9-3.5,1.7-5.1c0.9-1.6,2.2-2.8,4.1-4c1.9-1.1,4.3-1.6,7.3-1.6s5.5,0.5,7.3,1.4c1.9,0.9,3.2,2.2,4.3,3.6
		c0.9,1.4,1.6,3.2,1.9,5.1C494.1,517.4,494.3,519.3,494.3,521.2z M487.1,521.6c0-1.7-0.2-3.2-0.3-4.4c-0.2-1.3-0.5-2.2-0.9-3.2
		c-0.5-0.9-1.3-1.4-2.1-1.9c-0.9-0.5-2.1-0.6-3.5-0.6c-1.4,0-2.4,0.2-3.3,0.6c-0.8,0.5-1.6,1.1-2.1,1.9c-0.5,0.8-0.8,1.9-0.9,3.2
		c-0.2,1.3-0.3,2.7-0.3,4.3c0,1.7,0.2,3.2,0.3,4.4s0.5,2.2,0.9,3.2c0.5,0.8,1.1,1.4,1.9,1.9s1.9,0.6,3.3,0.6s2.5-0.2,3.5-0.6
		c0.9-0.5,1.6-0.9,2.1-1.9c0.5-0.9,0.8-1.9,0.9-3.2C486.8,524.6,487.1,523.2,487.1,521.6z"/>
	<path fill="#404040" d="M527.8,521.5c0,2.5-0.2,4.9-0.6,7c-0.3,2.1-1.1,3.8-2.1,5.1c-0.9,1.4-2.2,2.4-3.8,3.2
		c-1.6,0.8-3.6,1.1-6.2,1.1c-1.1,0-2.2-0.2-3.6-0.3s-2.8-0.6-4.3-1.1l0,0v11.1c0,0.3,0,0.6-0.2,0.9c-0.2,0.3-0.5,0.3-0.9,0.3h-4.4
		c-0.5,0-0.8-0.2-0.9-0.3c-0.2-0.2-0.2-0.5-0.2-0.9v-40.2c0-0.8,0.5-1.3,1.3-1.3h4.4c0.5,0,0.8,0.2,0.9,0.3c0.2,0.2,0.2,0.5,0.2,0.9
		v1.9l0.2,0.2c0.5-0.3,1.3-0.8,2.1-1.3c0.8-0.5,1.6-0.8,2.5-1.3c0.9-0.3,1.7-0.6,2.7-0.9c0.9-0.3,1.9-0.3,2.8-0.3
		c2.1,0,3.8,0.3,5.1,1.1c1.3,0.8,2.4,1.9,3.2,3.2c0.8,1.4,1.3,3,1.6,4.9C527.7,516.9,527.8,519.1,527.8,521.5z M520.7,521.3
		c0-2.1-0.2-3.6-0.3-4.9s-0.5-2.2-0.9-2.8c-0.5-0.6-0.9-1.1-1.6-1.4c-0.6-0.2-1.3-0.3-2.2-0.3c-0.6,0-1.4,0.2-2.2,0.3
		c-0.8,0.2-1.6,0.5-2.4,0.8c-0.8,0.3-1.6,0.6-2.2,0.9s-1.3,0.6-1.7,0.9v15.8c1.4,0.5,2.7,0.6,4,0.8c1.1,0.2,2.2,0.2,3.3,0.2
		s2.1-0.2,2.8-0.5c0.8-0.3,1.4-0.9,1.9-1.7c0.5-0.8,0.8-1.9,1.1-3.2C520.6,525,520.7,523.4,520.7,521.3z"/>
	<path fill="#404040" d="M540,523.5c0,1.6,0.2,3,0.5,4c0.3,1.1,0.8,1.9,1.4,2.5c0.6,0.6,1.4,1.1,2.4,1.3c0.9,0.3,2.1,0.3,3.3,0.3
		c1.1,0,2.5-0.2,4.1-0.3s3-0.3,4.1-0.5c0.6-0.2,0.9,0,1.3,0c0.2,0.2,0.3,0.5,0.5,1.1l0.3,2.1c0.2,0.5,0,0.8,0,1.1
		c-0.2,0.3-0.5,0.6-1.1,0.8c-0.6,0.3-1.4,0.5-2.2,0.6c-0.8,0.2-1.7,0.3-2.7,0.5c-0.9,0.2-1.9,0.2-2.8,0.3c-0.9,0.2-1.7,0.2-2.5,0.2
		c-3,0-5.5-0.5-7.3-1.3c-1.7-0.8-3.2-2.1-4.1-3.5c-0.9-1.4-1.6-3.2-1.9-5.1c-0.3-1.9-0.5-4-0.5-6c0-1.6,0.2-3.2,0.3-5.1
		c0.2-1.9,0.8-3.6,1.7-5.4c0.9-1.7,2.2-3,4.1-4.1c1.7-1.1,4.3-1.7,7.3-1.7c2.8,0,5.1,0.5,6.8,1.3c1.7,0.8,3.2,1.9,4.1,3.3
		c0.9,1.3,1.6,2.8,2.1,4.6c0.3,1.7,0.6,3.5,0.6,5.1c0,1.1-0.2,2.1-0.6,2.8c-0.5,0.8-1.3,1.1-2.5,1.1H540z M546.4,511.2
		c-1.1,0-2.2,0.2-2.8,0.5c-0.8,0.3-1.4,0.8-1.9,1.4c-0.5,0.6-0.8,1.4-1.1,2.4c-0.2,0.9-0.3,2.1-0.5,3.2h12.5c0-0.9-0.2-1.9-0.3-2.8
		c-0.2-0.9-0.5-1.7-0.9-2.4c-0.5-0.6-1.1-1.3-1.9-1.7C548.7,511.5,547.6,511.2,546.4,511.2z"/>
	<path fill="#404040" d="M585.1,533.5c-1.6,1.3-3.5,2.2-5.4,3c-1.9,0.8-4.1,1.1-6.2,1.1c-1.7,0-3.2-0.2-4.3-0.6s-2.1-1.1-2.7-1.9
		c-0.6-0.8-1.1-1.7-1.4-2.8s-0.5-2.4-0.5-3.6c0-3.6,0.9-6.3,2.8-8.1c2.1-1.7,4.9-2.5,9-2.5h8.1v-1.6c0-0.9-0.2-1.7-0.3-2.4
		c-0.2-0.6-0.5-1.3-1.1-1.6c-0.5-0.5-1.1-0.8-2.1-0.9c-0.8-0.2-1.9-0.3-3.2-0.3c-0.5,0-1.1,0-1.9,0c-0.8,0-1.4,0.2-2.2,0.2
		c-0.8,0-1.6,0.2-2.4,0.2c-0.8,0.2-1.4,0.2-2.1,0.2c-0.6,0.2-1.1,0.2-1.3,0c-0.2,0-0.3-0.3-0.5-0.8l-0.6-2.4c-0.2-0.5,0-0.8,0.2-1.1
		c0.2-0.3,0.6-0.5,1.3-0.8c0.6-0.3,1.4-0.5,2.4-0.6c0.9-0.2,1.9-0.3,2.8-0.5s1.9-0.2,2.8-0.3c0.9,0,1.7-0.2,2.5-0.2
		c2.7,0,4.9,0.3,6.5,0.8c1.6,0.5,2.8,1.3,3.6,2.4c0.8,0.9,1.4,2.2,1.6,3.6c0.3,1.4,0.3,3,0.3,4.7v12.2c0,0.6,0,1.1,0.2,1.4
		c0,0.3,0.2,0.6,0.3,0.8s0.3,0.3,0.6,0.5s0.6,0.2,1.3,0.2c0.5,0,0.8,0.2,0.9,0.3c0.2,0.2,0.3,0.3,0.3,0.6v2.7c0,0.8-0.5,1.1-1.6,1.3
		c-0.5,0.2-0.9,0.2-1.6,0.2c-0.6,0-0.9,0.2-1.4,0.2c-1.4,0-2.7-0.3-3.6-0.8C586.3,536,585.6,535.1,585.1,533.5L585.1,533.5z
		 M584.8,523.1h-7.8c-1.6,0-2.8,0.3-3.8,1.1c-0.9,0.8-1.4,2.2-1.4,4.3c0,1.4,0.3,2.4,0.8,2.8c0.6,0.5,1.6,0.8,3,0.8
		c0.6,0,1.4-0.2,2.2-0.3c0.8-0.2,1.6-0.5,2.4-0.6c0.8-0.2,1.6-0.6,2.4-0.9c0.8-0.3,1.4-0.6,2.1-1.1v-6H584.8z"/>
</g>
<g>
	<path fill="#BCBEC0" d="M156.9,353.8c0,0,98.5-12.8,101.3-13.3c4.3-0.6,8.1-1.6,11.6-2.5c7.9-2.2,15.4-5.5,21.8-10
		c6.2-4.3,12-10.3,17.7-17.1c3.6-4.3,7.4-9.8,11.1-15.2V293c-4.3,6.3-8.4,11.9-12.7,16.6c-5.7,6.3-11.7,11.7-17.7,15.5
		c-6.3,4.1-13.3,7.1-21.1,9c-3.5,0.9-7.1,1.6-11.2,2.2c-2.7,0.3-5.5,0.6-8.2,0.9c-1.1,0.2-92.5,10-92.5,10v6.5H156.9z"/>
	<path fill="#BCBEC0" d="M288.9,337.2c-6.2,3.6-13.3,6.2-21.2,7.8c-3.3,0.6-7,1.3-11.2,1.7c-2.5,0.3-4.9,0.5-7.4,0.6
		c-1.3,0.2-2.7,0.2-4,0.3c-30.2,2.7-60.2,5.7-88.3,8.4v6.6c28.3-3.5,58.6-7.1,88.8-10.6c1.3-0.2,2.7-0.3,4-0.5
		c2.5-0.3,4.9-0.5,7.4-0.9c4.3-0.6,8.1-1.3,11.6-2.1c8.2-1.9,15.5-4.7,22-8.7c6.3-3.8,12-9.2,18-15.8c3.8-4.1,7.9-10,11.9-15.4v-2.2
		c-4.6,6.3-9,11.6-13.3,16.1C301.1,328.8,295.1,333.7,288.9,337.2"/>
	<path fill="#BCBEC0" d="M306.2,335.6c-6,5.5-12.3,10-18.7,13c-6.2,3-13.1,5.2-21.4,6.5c-3.3,0.6-7,0.9-11.1,1.4l-98.3,8.2v6.5
		l87.4-9.3l11.2-1.3c4.3-0.5,7.9-1.1,11.4-1.7c8.4-1.6,15.7-4,22-7.3c6.5-3.3,13.1-8.9,19.2-14.9c4.1-4,8.1-9,12.2-14.4v-2.2
		C315.5,326.3,310.9,331.3,306.2,335.6"/>
	<path fill="#BCBEC0" d="M282.4,369c-5.7,3.2-10,5.1-18.2,6c-4.9,0.5-10,0.8-14.9,1.1c-2.4,0.2-4.7,0.3-7.1,0.3
		c-14.9,0.8-29.4,1.7-44.3,2.8l-41,2.8v6.5l41.5-3.8c13.5-1.3,29-2.7,44.2-3.8l11.1-0.8c4.3-0.3,7.9-0.6,11.1-1.1
		c8.4-1.1,15.5-2.8,22-5.2c6.8-2.5,13.3-6.6,19.8-11.4c5.9-4.3,13.9-12.7,13.9-12.8v-2.2c-5.2,5.2-8.4,8.1-14.1,12
		C299.4,363.8,287.7,366.2,282.4,369"/>
	<path fill="#BCBEC0" d="M284.5,381.4c-6.2,1.9-13.1,3-21.4,3.8c-3.3,0.3-6.8,0.5-10.9,0.6l-10.9,0.5c-27.4,1.3-54.5,2.7-84.5,4.3
		v6.5c28.7-2.2,56.7-4.4,84.7-6.5l10.9-0.8c4.3-0.3,7.8-0.6,11.1-0.9c8.4-0.9,15.5-2.4,21.8-4.4c7-2.2,13.9-5.5,20.4-9.7
		c4.7-3,9.7-6.8,14.6-11.1v-0.2c-5.5,4.7-10.8,5.7-15.8,9C298.1,376.3,291.5,379.3,284.5,381.4"/>
	<path fill="#BCBEC0" d="M283.5,392c-6.2,1.4-13,2.4-21.4,3c-3.2,0.2-6.6,0.3-10.8,0.5l-10.9,0.3c-27.4,1.1-55.3,2.2-83.8,3.5v6.5
		c28.2-1.9,55.9-3.8,83.9-5.5l10.9-0.6c4.3-0.3,7.8-0.5,10.9-0.8c8.4-0.8,15.4-1.9,21.7-3.6c7.1-1.9,14.1-4.6,20.7-8.1
		c5.1-2.7,10.1-6,15.4-10v-2.7c-5.7,4.1-11.1,7.6-16.6,10.3C297.3,387.9,290.5,390.4,283.5,392"/>
	<path fill="#BCBEC0" d="M282.6,402.4c-6.3,1.1-13,1.9-21.2,2.4c-3.2,0.2-6.3,0.3-10.8,0.3l-93.7,2.5v6.5l83.1-4.4l10.8-0.5
		c4.3-0.2,7.6-0.5,10.8-0.6c8.4-0.6,15.2-1.6,21.5-2.8c7.3-1.6,14.2-3.8,20.9-6.6c5.4-2.2,10.8-5.1,16.3-8.5V388
		c-6,3.5-11.6,6.3-17.3,8.5C296.5,399.3,289.7,401.2,282.6,402.4"/>
	<path fill="#BCBEC0" d="M281.8,413c-11.6,1.6-23.4,1.7-34.8,1.9c-2.7,0-5.2,0-7.9,0.2l-82.3,1.4v6.5l82.5-3.6
		c2.7-0.2,5.2-0.2,7.9-0.3c11.6-0.5,23.4-0.9,35.1-2.8c7.4-1.1,14.6-2.8,21.1-5.2c5.5-1.9,11.2-4.3,16.9-7.1v-2.5
		c-6,2.8-12,5.2-17.7,7C296.1,410.5,289.1,412.1,281.8,413"/>
	<path fill="#BCBEC0" d="M281.2,423.6c-10.8,0.9-21.8,0.9-32.5,0.9c-3.3,0-6.6,0-10,0c-27.2,0.2-54.3,0.3-81.9,0.6v6.5
		c26.3-0.9,54.1-1.9,82-2.7c3.3-0.2,6.6-0.2,10-0.3c10.8-0.3,21.8-0.6,32.8-1.7c7.6-0.8,14.6-2.1,21.2-3.6
		c5.9-1.4,11.7-3.3,17.7-5.7v-2.4c-6.2,2.2-12.3,4.1-18.2,5.4C295.6,421.9,288.6,423,281.2,423.6"/>
	<path fill="#BCBEC0" d="M280.9,434.1c-4.4,0.2-9.3,0.3-14.9,0.3c-2.1,0-4.1,0-6.2,0l-21.4-0.5c-14.4-0.2-29-0.2-42.4-0.2h-39.1v6.5
		l39.3-1.1c13.5-0.3,28-0.6,42.4-0.9l21.2-0.3c5.9-0.2,13.5-0.3,21.2-0.8c7.6-0.5,14.6-1.3,21.2-2.4c6-0.9,12-2.2,18.2-3.8v-2.2
		c-6.3,1.4-12.5,2.7-18.5,3.5C295.1,433.1,288.3,433.8,280.9,434.1"/>
	<path fill="#BCBEC0" d="M259.5,444.1l-21.2-0.2c-26.9-0.3-54-0.9-81.4-1.4v6.5c26.3-0.2,54-0.3,81.4-0.6l21.2-0.3
		c7.1-0.2,14.1-0.3,21.2-0.5c14.6-0.5,27.5-1.6,39.7-3.2v-2.2c-12.2,1.3-25.3,2.1-39.7,2.1C273.6,444.2,266.5,444.2,259.5,444.1"/>
	<polygon fill="#BCBEC0" points="320.4,455.5 156.9,451.3 156.9,457.7 320.4,457.7 	"/>
	<path fill="#BCBEC0" d="M305.7,347.6c-6.2,5.1-11.1,8.7-18.7,11.7c-6.6,2.7-13.8,3.8-21.8,4.9c-5.2,0.8-10.8,1.9-16,2.2
		c-2.2,0.2-4.3,0.3-6.5,0.5l-86,6.3v6.5l86.3-8.4l11.2-1.1c4.1-0.5,7.8-0.8,11.2-1.4c8.4-1.4,15.5-3.5,22-6.3
		c6.6-3,13.5-7.9,19.8-13.3c4.3-3.6,8.4-8.2,13-13.3v-2.4C314.9,339.3,310.5,343.8,305.7,347.6"/>
	<path fill="#BCBEC0" d="M389.9,293c0,0,29.4,47,34.8,55.7c5.4,8.5,11.6,15.5,33.2,20.1c21.8,4.6,31.2,6.8,31.2,6.8v1.7
		c0,0-13.8-3-31.7-7c-17.7-4-25-5.4-33.2-16.6c-6.8-9.5-34.5-49.6-34.5-49.6V293H389.9z"/>
	<path fill="#BCBEC0" d="M389.9,346.7c0,0,26.8,28.2,34.5,36.3c8.2,8.5,18.7,11.7,33.4,14.4c13.9,2.5,31.5,5.4,31.5,5.4v1.6
		c0,0-16.5-2.7-31.5-5.2c-14.7-2.5-25-4-33.4-11.7c-7.6-7-34.5-32.3-34.5-32.3V346.7z"/>
	<path fill="#BCBEC0" d="M389.9,359.4c0,0,25.5,23.7,34.5,31.8c8.4,7.4,15,9.8,33.4,13c18.4,3.3,31.3,5.2,31.3,5.2v1.7
		c0,0-16.6-2.7-31.5-5.1s-24.4-3.3-33.4-10.6c-10.3-8.4-34.5-28.3-34.5-28.3v-7.8H389.9z"/>
	<path fill="#BCBEC0" d="M389.9,373c0,0,29.1,23.1,34.5,27.2s12.7,8.7,33.6,11.9c20.7,3,31.3,4.4,31.3,4.4v1.7
		c0,0-18.8-2.7-31.3-4.3s-22.2-2.2-33.4-9.8c-10.9-7.3-34.7-24.1-34.7-24.1L389.9,373L389.9,373z"/>
	<path fill="#BCBEC0" d="M389.9,386c0,0,29.1,19.5,34.7,22.6c5.5,3,12,8.1,33.4,10.8s31.3,4,31.3,4v1.7c0,0-17.6-1.9-31.3-3.5
		c-13.8-1.4-23.1-3.5-33.4-9.2c-10.3-5.7-34.5-19.9-34.5-19.9V386H389.9z"/>
	<path fill="#BCBEC0" d="M389.9,398.9c0,0,25.8,14.1,34.5,18.5c9.8,4.9,18.2,7.3,33.4,9c15,1.7,31.3,3.5,31.3,3.5v1.6
		c0,0-15.2-1.6-31.3-3.2c-16.1-1.6-21.8-2.2-33.4-7.4c-10.4-4.6-34.5-16-34.5-16V398.9z"/>
	<path fill="#BCBEC0" d="M389.9,412.1c0,0,20.4,8.7,34.7,14.4c14.1,5.5,24.9,6,33.4,7.1c3.8,0.5,31.2,3.3,31.2,3.3v1.6
		c0,0-16.5-1.3-31.3-2.7c-14.9-1.3-21.4-1.9-33.4-5.9c-12.2-4.1-34.7-11.9-34.7-11.9v-6H389.9z"/>
	<path fill="#BCBEC0" d="M389.9,425.5c0,0,20.6,6.3,34.7,10.1c14.1,3.6,26.9,5.2,33.4,5.7c6.5,0.5,31.3,2.5,31.3,2.5v1.4
		c0,0-14.1-0.9-31.3-2.2c-13.9-0.9-25.2-2.1-33.4-3.8c-9.2-2.1-34.5-8.1-34.5-8.1v-5.7H389.9z"/>
	<path fill="#BCBEC0" d="M389.9,438.8c0,0,16.8,2.8,34.7,5.9c13.3,2.2,31.3,3.6,33.4,3.6c1.9,0.2,31.3,2.1,31.3,2.1v1.6
		c0,0-18.8-0.9-31.3-1.7c-13.1-0.8-26.1-1.6-33.4-2.2c-16.5-1.7-34.5-4-34.5-4v-5.2H389.9z"/>
	<path fill="#BCBEC0" d="M389.9,452.5c0,0,26.6,0.9,34.7,1.1c8.1,0.2,64.8,2.5,64.8,2.5v1.6h-99.4V452.5z"/>
	<path fill="#BCBEC0" d="M457.9,376c-24.1-5.2-29.4-14.1-33.6-19.5c-4-5.5-34.5-50-34.5-50v10.1c1.3,1.6,27.2,35.8,34.5,45.1
		c8.2,10.6,21.2,13,33.4,15.7c12.3,2.7,31.3,6.3,31.3,6.3v-1.4C489.4,382.3,464.2,377.4,457.9,376"/>
	<path fill="#BCBEC0" d="M457.9,383.1c-19.8-3.8-27.7-10.1-33.6-17.7c-5.9-7.6-34.5-45.4-34.5-45.4v9.5c1.3,1.4,27.4,32.6,34.5,40.7
		c8.2,9.5,19.6,11.9,33.6,14.4c13.9,2.5,31.3,5.9,31.3,5.9V389C489.4,389.1,469.3,385.3,457.9,383.1"/>
	<path fill="#BCBEC0" d="M457.9,390.4c-20.6-4-24.7-7.3-33.4-16.8c-5.4-6-33.4-39.1-34.5-40.4v8.9c0,0,26.1,27.9,34.5,36.1
		c10.9,10.8,21.4,11.6,33.6,13.8c12.2,2.2,31.3,5.7,31.3,5.7v-1.4C489.4,396.1,466.1,392,457.9,390.4"/>
	<rect x="224.8" y="361.6" fill="#0D4F9E" width="143.3" height="96.1"/>
	<polygon fill="#FAEA27" points="298,375.2 303,375.2 298.9,378.4 300.5,383.3 296.5,380.3 292.6,383.3 294.2,378.4 290,375.2 
		294.9,375.2 296.5,370.3 	"/>
	<polygon fill="#FAEA27" points="298.1,439.3 303.2,439.3 299.2,442.3 300.6,447.1 296.7,444.2 292.7,447.1 294.3,442.3 
		290.2,439.3 295.3,439.3 296.7,434.6 	"/>
	<polygon fill="#FAEA27" points="313.9,435 319,435 314.9,438 316.5,443 312.5,439.9 308.6,443 310.1,438 306,435 310.9,435 
		312.5,430.4 	"/>
	<polygon fill="#FAEA27" points="313.9,379.5 319,379.5 314.9,382.5 316.5,387.2 312.5,384.4 308.6,387.2 310.1,382.5 306,379.5 
		310.9,379.5 312.5,374.7 	"/>
	<polygon fill="#FAEA27" points="325.7,391.2 330.7,391.2 326.6,394.2 328.2,399.1 324.2,396.1 320.3,399.1 321.9,394.2 
		317.7,391.2 322.8,391.2 324.2,386.6 	"/>
	<polygon fill="#FAEA27" points="325.7,423.5 330.7,423.5 326.6,426.5 328.2,431.2 324.2,428.4 320.3,431.2 321.9,426.5 
		317.7,423.5 322.8,423.5 324.2,418.7 	"/>
	<polygon fill="#FAEA27" points="330.1,407.2 335.2,407.2 331,410.2 332.6,414.9 328.7,411.9 324.7,414.9 326.3,410.2 322.2,407.2 
		327.1,407.2 328.7,402.4 	"/>
	<polygon fill="#FAEA27" points="281.8,379.5 286.9,379.5 282.9,382.5 284.3,387.4 280.4,384.4 276.4,387.4 278,382.5 273.9,379.5 
		279,379.5 280.4,374.9 	"/>
	<polygon fill="#FAEA27" points="270.4,391.3 275.5,391.3 271.5,394.3 272.9,399.1 269,396.1 265,399.1 266.6,394.3 262.5,391.3 
		267.6,391.3 269,386.6 	"/>
	<polygon fill="#FAEA27" points="266.3,407.2 271.2,407.2 267.2,410.2 268.8,414.9 264.7,412.1 260.8,414.9 262.3,410.2 
		258.2,407.2 263.3,407.2 264.7,402.4 	"/>
	<polygon fill="#FAEA27" points="270.4,423.5 275.5,423.5 271.5,426.5 272.9,431.4 269,428.4 265,431.4 266.6,426.5 262.5,423.5 
		267.6,423.5 269,418.9 	"/>
	<polygon fill="#FAEA27" points="282.1,435 287,435 283.1,438.2 284.5,443 280.5,439.9 276.6,443 278.2,438.2 274.1,435 279.1,435 
		280.5,430.4 	"/>
</g>
</svg>
