<?xml version="1.0" encoding="utf-8"?>
<!-- Generator: Adobe Illustrator 18.1.1, SVG Export Plug-In . SVG Version: 6.00 Build 0)  -->
<svg version="1.1" id="Layer_1" xmlns="http://www.w3.org/2000/svg" xmlns:xlink="http://www.w3.org/1999/xlink" x="0px" y="0px"
	 viewBox="0 0 358.9 161.6" enable-background="new 0 0 358.9 161.6" xml:space="preserve">
<g>
	<path fill="#404040" d="M4.5,145.6c0,1,0.1,1.9,0.3,2.5c0.2,0.7,0.5,1.2,0.9,1.6c0.4,0.4,0.9,0.7,1.5,0.8c0.6,0.2,1.3,0.2,2.1,0.2
		c0.7,0,1.6-0.1,2.6-0.2c1-0.1,1.9-0.2,2.6-0.3c0.4-0.1,0.6,0,0.8,0c0.1,0.1,0.2,0.3,0.3,0.7l0.2,1.3c0.1,0.3,0,0.5,0,0.7
		c-0.1,0.2-0.3,0.4-0.7,0.5c-0.4,0.2-0.9,0.3-1.4,0.4c-0.5,0.1-1.1,0.2-1.7,0.3c-0.6,0.1-1.2,0.1-1.8,0.2c-0.6,0.1-1.1,0.1-1.6,0.1
		c-1.9,0-3.5-0.3-4.6-0.8c-1.1-0.6-2-1.3-2.6-2.2c-0.6-0.9-1-2-1.2-3.2C0.1,147,0,145.8,0,144.5c0-1,0.1-2,0.2-3.2s0.5-2.3,1.1-3.4
		c0.6-1,1.4-1.9,2.6-2.6c1.1-0.7,2.7-1.1,4.6-1.1c1.8,0,3.2,0.3,4.3,0.8c1.1,0.5,2,1.2,2.6,2.1c0.6,0.8,1,1.8,1.3,2.9
		c0.2,1.1,0.4,2.2,0.4,3.2c0,0.7-0.1,1.3-0.4,1.8c-0.3,0.5-0.8,0.7-1.6,0.7H4.5z M8.5,137.8c-0.7,0-1.4,0.1-1.8,0.3
		s-0.9,0.5-1.2,0.9c-0.3,0.4-0.5,0.9-0.7,1.5c-0.1,0.6-0.2,1.3-0.3,2h7.9c0-0.6-0.1-1.2-0.2-1.8c-0.1-0.6-0.3-1.1-0.6-1.5
		c-0.3-0.4-0.7-0.8-1.2-1.1C10,138,9.3,137.8,8.5,137.8z"/>
	<path fill="#404040" d="M21.6,154.2c-0.4,0-0.7-0.1-0.8-0.2c-0.1-0.1-0.2-0.4-0.2-0.6v-18c0-0.3,0.1-0.5,0.2-0.6
		c0.1-0.1,0.4-0.2,0.7-0.2H30c2.3,0,4,0.5,5.1,1.4c1.1,1,1.6,2.3,1.6,3.9c0,0.5-0.1,1.2-0.4,2c-0.3,0.8-0.9,1.4-1.9,2
		c0.6,0.2,1.1,0.6,1.4,0.9c0.4,0.4,0.7,0.8,0.9,1.2c0.2,0.4,0.4,0.8,0.4,1.3c0.1,0.4,0.1,0.8,0.1,1.2c0,0.9-0.2,1.7-0.5,2.4
		c-0.4,0.7-0.8,1.3-1.5,1.8c-0.6,0.5-1.3,0.9-2.2,1.2c-0.8,0.3-1.7,0.4-2.6,0.4H21.6z M32.2,140.2c0-0.3,0-0.5-0.1-0.8
		c-0.1-0.2-0.2-0.5-0.5-0.7c-0.2-0.2-0.5-0.4-0.9-0.5c-0.4-0.1-0.8-0.2-1.3-0.2h-4.5v4.3h4.8c0.8,0,1.4-0.2,1.8-0.7
		C32,141.4,32.2,140.9,32.2,140.2z M32.8,148.1c0-0.7-0.2-1.2-0.6-1.8c-0.4-0.5-1.1-0.8-2.1-0.8h-5.1v5h4.7c0.6,0,1.2-0.1,1.6-0.2
		c0.4-0.2,0.7-0.4,1-0.6c0.2-0.2,0.4-0.5,0.5-0.8C32.8,148.6,32.8,148.4,32.8,148.1z"/>
	<path fill="#404040" d="M58.3,144.3c0,1.6-0.1,3.1-0.4,4.4c-0.2,1.3-0.7,2.4-1.3,3.2c-0.6,0.9-1.4,1.5-2.4,2
		c-1,0.5-2.3,0.7-3.9,0.7c-0.7,0-1.4-0.1-2.3-0.2c-0.9-0.1-1.8-0.4-2.7-0.7l0,0v7c0,0.2,0,0.4-0.1,0.6c-0.1,0.2-0.3,0.2-0.6,0.2
		h-2.8c-0.3,0-0.5-0.1-0.6-0.2c-0.1-0.1-0.1-0.3-0.1-0.6v-25.4c0-0.5,0.3-0.8,0.8-0.8h2.8c0.3,0,0.5,0.1,0.6,0.2
		c0.1,0.1,0.1,0.3,0.1,0.6v1.2l0.1,0.1c0.3-0.2,0.8-0.5,1.3-0.8c0.5-0.3,1-0.5,1.6-0.8c0.6-0.2,1.1-0.4,1.7-0.6
		c0.6-0.2,1.2-0.2,1.8-0.2c1.3,0,2.4,0.2,3.2,0.7c0.9,0.5,1.5,1.2,2,2c0.5,0.9,0.8,1.9,1,3.1C58.2,141.4,58.3,142.8,58.3,144.3z
		 M53.8,144.2c0-1.3-0.1-2.3-0.2-3.1c-0.1-0.8-0.3-1.4-0.6-1.8c-0.3-0.4-0.6-0.7-1-0.9c-0.4-0.1-0.8-0.2-1.4-0.2
		c-0.4,0-0.9,0.1-1.4,0.2c-0.5,0.1-1,0.3-1.5,0.5c-0.5,0.2-1,0.4-1.4,0.6c-0.4,0.2-0.8,0.4-1.1,0.6v10c0.9,0.3,1.7,0.4,2.5,0.5
		c0.7,0.1,1.4,0.1,2.1,0.1c0.7,0,1.3-0.1,1.8-0.3c0.5-0.2,0.9-0.6,1.2-1.1c0.3-0.5,0.5-1.2,0.7-2C53.7,146.5,53.8,145.5,53.8,144.2z
		"/>
	<path fill="#404040" d="M78.8,144.1c0,1.1-0.1,2.3-0.2,3.6c-0.1,1.2-0.5,2.4-1.1,3.4c-0.6,1-1.5,1.9-2.6,2.5c-1.2,0.7-2.8,1-4.9,1
		c-2,0-3.6-0.3-4.7-1c-1.1-0.7-2-1.5-2.6-2.5c-0.6-1-0.9-2.2-1.1-3.4c-0.1-1.2-0.2-2.4-0.2-3.6c0-0.9,0.1-2,0.3-3.1
		c0.2-1.1,0.6-2.2,1.1-3.2c0.6-1,1.4-1.8,2.6-2.5c1.1-0.7,2.7-1,4.6-1c1.9,0,3.5,0.3,4.6,0.9c1.2,0.6,2,1.4,2.7,2.3
		c0.6,0.9,1,2,1.2,3.2C78.7,141.7,78.8,142.9,78.8,144.1z M74.4,144.4c0-1.1-0.1-2-0.2-2.8c-0.1-0.8-0.3-1.4-0.6-2
		c-0.3-0.5-0.8-0.9-1.3-1.2S70.9,138,70,138c-0.9,0-1.5,0.1-2.1,0.4c-0.5,0.3-1,0.7-1.3,1.2c-0.3,0.5-0.5,1.2-0.6,2
		c-0.1,0.8-0.2,1.7-0.2,2.7c0,1.1,0.1,2,0.2,2.8c0.1,0.8,0.3,1.4,0.6,2c0.3,0.5,0.7,0.9,1.2,1.2c0.5,0.3,1.2,0.4,2.1,0.4
		c0.9,0,1.6-0.1,2.2-0.4c0.6-0.3,1-0.6,1.3-1.2c0.3-0.5,0.5-1.2,0.6-2C74.3,146.4,74.4,145.4,74.4,144.4z"/>
	<path fill="#404040" d="M99.8,153.4c0,0.5-0.3,0.8-0.8,0.8h-2.9c-0.5,0-0.8-0.3-0.8-0.8l0-15.2H87v15.2c0,0.2-0.1,0.4-0.2,0.5
		c-0.1,0.1-0.3,0.2-0.6,0.2h-2.8c-0.5,0-0.8-0.3-0.8-0.8v-18.1c0-0.5,0.3-0.8,0.8-0.8h15.6c0.3,0,0.5,0.1,0.6,0.2
		c0.1,0.1,0.2,0.3,0.2,0.6V153.4z"/>
	<path fill="#404040" d="M108.2,145.6c0,1,0.1,1.9,0.3,2.5c0.2,0.7,0.5,1.2,0.9,1.6c0.4,0.4,0.9,0.7,1.5,0.8
		c0.6,0.2,1.3,0.2,2.1,0.2c0.7,0,1.6-0.1,2.6-0.2c1-0.1,1.9-0.2,2.6-0.3c0.4-0.1,0.6,0,0.8,0c0.1,0.1,0.2,0.3,0.3,0.7l0.2,1.3
		c0.1,0.3,0,0.5,0,0.7c-0.1,0.2-0.3,0.4-0.7,0.5c-0.4,0.2-0.9,0.3-1.4,0.4c-0.5,0.1-1.1,0.2-1.7,0.3c-0.6,0.1-1.2,0.1-1.8,0.2
		c-0.6,0.1-1.1,0.1-1.6,0.1c-1.9,0-3.5-0.3-4.6-0.8c-1.1-0.6-2-1.3-2.6-2.2c-0.6-0.9-1-2-1.2-3.2c-0.2-1.2-0.3-2.5-0.3-3.8
		c0-1,0.1-2,0.2-3.2s0.5-2.3,1.1-3.4c0.6-1,1.4-1.9,2.6-2.6c1.1-0.7,2.7-1.1,4.6-1.1c1.8,0,3.2,0.3,4.3,0.8c1.1,0.5,2,1.2,2.6,2.1
		c0.6,0.8,1,1.8,1.3,2.9c0.2,1.1,0.4,2.2,0.4,3.2c0,0.7-0.1,1.3-0.4,1.8c-0.3,0.5-0.8,0.7-1.6,0.7H108.2z M112.2,137.8
		c-0.7,0-1.4,0.1-1.8,0.3s-0.9,0.5-1.2,0.9c-0.3,0.4-0.5,0.9-0.7,1.5c-0.1,0.6-0.2,1.3-0.3,2h7.9c0-0.6-0.1-1.2-0.2-1.8
		c-0.1-0.6-0.3-1.1-0.6-1.5c-0.3-0.4-0.7-0.8-1.2-1.1C113.7,138,113,137.8,112.2,137.8z"/>
	<path fill="#404040" d="M124.3,135.5c0-0.3,0.1-0.5,0.2-0.7c0.1-0.1,0.3-0.2,0.7-0.2h2.6c0.4,0,0.6,0.1,0.7,0.2
		c0.1,0.2,0.2,0.4,0.2,0.6v11.7h0.1l5.2-7.1l3.6-4.7c0.2-0.2,0.3-0.4,0.5-0.5c0.2-0.1,0.5-0.2,0.9-0.2h2.1c0.3,0,0.5,0.1,0.7,0.3
		c0.1,0.2,0.2,0.4,0.2,0.6v17.9c0,0.6-0.3,0.8-0.9,0.8h-2.5c-0.6,0-0.9-0.3-0.9-0.8v-12.2h0c-0.9,1.3-1.9,2.5-2.8,3.8
		c-0.9,1.3-1.9,2.5-2.8,3.8c-0.6,0.8-1.2,1.6-1.8,2.4c-0.6,0.8-1.2,1.6-1.8,2.4c-0.2,0.2-0.3,0.4-0.5,0.5c-0.2,0.1-0.5,0.2-0.9,0.2
		h-1.7c-0.3,0-0.5-0.1-0.7-0.2c-0.1-0.1-0.2-0.3-0.2-0.6V135.5z M133.1,132.8c-1.3,0-2.6-0.3-3.8-1c-1.2-0.7-2.2-1.7-2.8-3.1
		c-0.1-0.2-0.2-0.4-0.3-0.7c-0.1-0.2,0-0.5,0.2-0.6l1.1-0.9c0.2-0.2,0.4-0.2,0.6-0.1c0.1,0.1,0.3,0.2,0.5,0.4c0.8,1,1.5,1.7,2.2,2.1
		c0.7,0.5,1.5,0.7,2.5,0.7c0.5,0,0.9-0.1,1.2-0.2c0.4-0.1,0.7-0.3,1-0.5c0.3-0.2,0.7-0.5,1-0.9c0.3-0.3,0.7-0.8,1.2-1.2
		c0.3-0.4,0.7-0.4,1-0.2l1.1,0.7c0.3,0.2,0.4,0.4,0.3,0.6c-0.1,0.3-0.2,0.5-0.3,0.8c-0.7,1.4-1.7,2.5-2.8,3.2
		C135.7,132.4,134.4,132.8,133.1,132.8z"/>
	<path fill="#404040" d="M160.9,152.4c0.1,0.3,0.1,0.5,0,0.7c-0.1,0.2-0.3,0.4-0.7,0.5c-0.8,0.3-1.7,0.6-2.9,0.7
		c-1.1,0.1-2.2,0.2-3.2,0.2c-1.9,0-3.4-0.3-4.5-0.8s-2-1.3-2.6-2.2c-0.6-0.9-1-2-1.2-3.3c-0.2-1.2-0.3-2.5-0.3-3.9
		c0-1.2,0.1-2.4,0.3-3.7c0.2-1.2,0.6-2.3,1.2-3.2c0.6-0.9,1.5-1.7,2.6-2.3c1.1-0.6,2.6-0.9,4.5-0.9c0.5,0,1,0,1.5,0
		c0.5,0,1.1,0.1,1.6,0.2c0.5,0.1,1.1,0.2,1.6,0.3c0.5,0.1,1,0.3,1.4,0.5c0.5,0.2,0.7,0.6,0.6,1.1l-0.3,1.6c-0.1,0.3-0.2,0.5-0.4,0.5
		c-0.2,0.1-0.5,0.1-0.8,0c-0.8-0.1-1.7-0.2-2.5-0.2c-0.9-0.1-1.6-0.1-2.3-0.1c-1.6,0-2.8,0.5-3.4,1.4c-0.6,0.9-1,2.5-1,4.7
		c0,1.2,0.1,2.3,0.2,3.1c0.1,0.8,0.4,1.5,0.7,2c0.3,0.5,0.8,0.9,1.3,1.1c0.5,0.2,1.2,0.3,2,0.3c0.6,0,1.4,0,2.4-0.1
		c1-0.1,1.9-0.2,2.7-0.3c0.3-0.1,0.6-0.1,0.7,0c0.2,0.1,0.3,0.3,0.3,0.6L160.9,152.4z"/>
	<path fill="#404040" d="M168.2,153.5c0,0.2,0,0.4-0.1,0.5c-0.1,0.1-0.3,0.2-0.6,0.2h-3c-0.5,0-0.7-0.2-0.7-0.7v-18.2
		c0-0.5,0.2-0.7,0.7-0.7h3c0.3,0,0.5,0.1,0.6,0.2c0.1,0.1,0.1,0.3,0.1,0.5v7.1h2c0.4,0,0.7,0,1.1-0.1c0.3-0.1,0.6-0.2,0.9-0.4
		c0.3-0.2,0.5-0.5,0.8-0.9c0.3-0.4,0.5-0.9,0.7-1.5l1.6-4.3c0.1-0.2,0.2-0.4,0.4-0.5c0.2-0.1,0.4-0.1,0.7-0.1h2.4
		c0.4,0,0.6,0.1,0.7,0.2c0.1,0.2,0.1,0.4,0,0.6l-1.4,4.2c-0.4,1.3-0.9,2.2-1.4,3c-0.5,0.7-1.1,1.2-1.8,1.4v0
		c0.9,0.3,1.6,0.8,2.1,1.4c0.5,0.6,0.9,1.4,1.2,2.5l1.8,5.3c0.1,0.2,0.1,0.4,0,0.6c-0.1,0.2-0.3,0.3-0.7,0.3h-2.7
		c-0.3,0-0.5,0-0.7-0.1s-0.3-0.2-0.4-0.5l-1.6-4.6c-0.4-1.2-1-2-1.7-2.4c-0.7-0.4-1.4-0.6-2.2-0.6h-2.1V153.5z"/>
	<path fill="#404040" d="M195.8,151.9c-1,0.8-2.2,1.4-3.4,1.9c-1.3,0.5-2.6,0.7-3.9,0.7c-1.1,0-2-0.1-2.7-0.4
		c-0.7-0.3-1.3-0.7-1.7-1.2c-0.4-0.5-0.7-1.1-0.9-1.8c-0.2-0.7-0.3-1.5-0.3-2.3c0-2.3,0.6-4,1.8-5.1c1.3-1.1,3.1-1.6,5.7-1.6h5.1v-1
		c0-0.6-0.1-1.1-0.2-1.5c-0.1-0.4-0.3-0.8-0.7-1c-0.3-0.3-0.7-0.5-1.3-0.6c-0.5-0.1-1.2-0.2-2-0.2c-0.3,0-0.7,0-1.2,0
		c-0.5,0-0.9,0.1-1.4,0.1c-0.5,0-1,0.1-1.5,0.1c-0.5,0.1-0.9,0.1-1.3,0.1c-0.4,0.1-0.7,0.1-0.8,0c-0.1,0-0.2-0.2-0.3-0.5l-0.4-1.5
		c-0.1-0.3,0-0.5,0.1-0.7c0.1-0.2,0.4-0.3,0.8-0.5c0.4-0.2,0.9-0.3,1.5-0.4c0.6-0.1,1.2-0.2,1.8-0.3c0.6-0.1,1.2-0.1,1.8-0.2
		c0.6,0,1.1-0.1,1.6-0.1c1.7,0,3.1,0.2,4.1,0.5c1,0.3,1.8,0.8,2.3,1.5c0.5,0.6,0.9,1.4,1,2.3c0.2,0.9,0.2,1.9,0.2,3v7.7
		c0,0.4,0,0.7,0.1,0.9c0,0.2,0.1,0.4,0.2,0.5c0.1,0.1,0.2,0.2,0.4,0.3c0.2,0.1,0.4,0.1,0.8,0.1c0.3,0,0.5,0.1,0.6,0.2
		c0.1,0.1,0.2,0.2,0.2,0.4v1.7c0,0.5-0.3,0.7-1,0.8c-0.3,0.1-0.6,0.1-1,0.1s-0.6,0.1-0.9,0.1c-0.9,0-1.7-0.2-2.3-0.5
		C196.4,153.5,196.1,152.9,195.8,151.9L195.8,151.9z M195.5,145.3h-4.9c-1,0-1.8,0.2-2.4,0.7c-0.6,0.5-0.9,1.4-0.9,2.7
		c0,0.9,0.2,1.5,0.5,1.8c0.4,0.3,1,0.5,1.9,0.5c0.4,0,0.9-0.1,1.4-0.2c0.5-0.1,1-0.3,1.5-0.4c0.5-0.2,1-0.4,1.5-0.6
		c0.5-0.2,0.9-0.4,1.3-0.7V145.3z"/>
	<path fill="#404040" d="M220.5,153.5c0,0.2,0,0.4-0.1,0.5c-0.1,0.1-0.3,0.2-0.6,0.2h-3c-0.5,0-0.7-0.2-0.7-0.7v-18.2
		c0-0.5,0.2-0.7,0.7-0.7h3c0.3,0,0.5,0.1,0.6,0.2c0.1,0.1,0.1,0.3,0.1,0.5v7.1h2c0.4,0,0.7,0,1.1-0.1c0.3-0.1,0.6-0.2,0.9-0.4
		c0.3-0.2,0.5-0.5,0.8-0.9c0.3-0.4,0.5-0.9,0.7-1.5l1.6-4.3c0.1-0.2,0.2-0.4,0.4-0.5c0.2-0.1,0.4-0.1,0.7-0.1h2.4
		c0.4,0,0.6,0.1,0.7,0.2c0.1,0.2,0.1,0.4,0,0.6l-1.4,4.2c-0.4,1.3-0.9,2.2-1.4,3c-0.5,0.7-1.1,1.2-1.8,1.4v0
		c0.9,0.3,1.6,0.8,2.1,1.4c0.5,0.6,0.9,1.4,1.2,2.5l1.8,5.3c0.1,0.2,0.1,0.4,0,0.6c-0.1,0.2-0.3,0.3-0.7,0.3h-2.7
		c-0.3,0-0.5,0-0.7-0.1s-0.3-0.2-0.4-0.5l-1.6-4.6c-0.4-1.2-1-2-1.7-2.4c-0.7-0.4-1.4-0.6-2.2-0.6h-2.1V153.5z"/>
	<path fill="#404040" d="M252.6,144.1c0,1.1-0.1,2.3-0.2,3.6c-0.1,1.2-0.5,2.4-1.1,3.4c-0.6,1-1.5,1.9-2.6,2.5c-1.2,0.7-2.8,1-4.9,1
		c-2,0-3.6-0.3-4.7-1c-1.1-0.7-2-1.5-2.6-2.5c-0.6-1-0.9-2.2-1.1-3.4c-0.1-1.2-0.2-2.4-0.2-3.6c0-0.9,0.1-2,0.3-3.1
		c0.2-1.1,0.6-2.2,1.1-3.2c0.6-1,1.4-1.8,2.6-2.5s2.7-1,4.6-1c1.9,0,3.5,0.3,4.6,0.9c1.2,0.6,2,1.4,2.7,2.3c0.6,0.9,1,2,1.2,3.2
		C252.5,141.7,252.6,142.9,252.6,144.1z M248.2,144.4c0-1.1-0.1-2-0.2-2.8c-0.1-0.8-0.3-1.4-0.6-2s-0.8-0.9-1.3-1.2
		c-0.6-0.3-1.3-0.4-2.2-0.4c-0.9,0-1.5,0.1-2.1,0.4c-0.5,0.3-1,0.7-1.3,1.2c-0.3,0.5-0.5,1.2-0.6,2c-0.1,0.8-0.2,1.7-0.2,2.7
		c0,1.1,0.1,2,0.2,2.8c0.1,0.8,0.3,1.4,0.6,2c0.3,0.5,0.7,0.9,1.2,1.2c0.5,0.3,1.2,0.4,2.1,0.4c0.9,0,1.6-0.1,2.2-0.4
		c0.6-0.3,1-0.6,1.3-1.2s0.5-1.2,0.6-2S248.2,145.4,248.2,144.4z"/>
	<path fill="#404040" d="M272.8,142.9l-1.8,3.4c-0.4,0.7-0.7,1.4-1.1,2.1c-0.3,0.7-0.7,1.4-1.2,2.2c-0.2,0.5-0.6,0.7-1.2,0.7h-1.4
		c-0.4,0-0.6-0.1-0.8-0.2c-0.2-0.1-0.3-0.3-0.4-0.5c-0.4-0.7-0.7-1.3-1.1-1.9c-0.3-0.6-0.7-1.2-1-1.8c-0.3-0.6-0.7-1.3-1-2
		c-0.3-0.7-0.7-1.4-1-2h-0.1v10.5c0,0.5-0.3,0.8-0.9,0.8h-2.5c-0.6,0-0.8-0.3-0.8-0.8v-18c0-0.5,0.3-0.8,0.8-0.8h2.3
		c0.4,0,0.7,0.1,0.9,0.2c0.2,0.1,0.3,0.3,0.5,0.5c0.4,0.8,0.8,1.5,1.3,2.3c0.4,0.8,0.8,1.5,1.2,2.3c0.6,1.1,1.2,2.2,1.7,3.3
		c0.5,1.1,1.1,2.2,1.7,3.3l3.1-5.9l2.8-5.3c0.1-0.2,0.3-0.4,0.5-0.5c0.2-0.1,0.5-0.2,0.9-0.2h2.1c0.5,0,0.8,0.3,0.8,0.8v18
		c0,0.5-0.3,0.8-0.8,0.8h-2.5c-0.6,0-0.9-0.3-0.9-0.8v-10.5H272.8z"/>
	<path fill="#404040" d="M281.3,135.5c0-0.3,0.1-0.5,0.2-0.7c0.1-0.1,0.3-0.2,0.7-0.2h2.6c0.4,0,0.6,0.1,0.7,0.2
		c0.1,0.2,0.2,0.4,0.2,0.6v11.7h0.1l5.2-7.1l3.6-4.7c0.2-0.2,0.3-0.4,0.5-0.5c0.2-0.1,0.5-0.2,0.9-0.2h2.1c0.3,0,0.5,0.1,0.7,0.3
		c0.1,0.2,0.2,0.4,0.2,0.6v17.9c0,0.6-0.3,0.8-0.9,0.8h-2.5c-0.6,0-0.9-0.3-0.9-0.8v-12.2h0c-0.9,1.3-1.9,2.5-2.8,3.8
		c-0.9,1.3-1.9,2.5-2.8,3.8c-0.6,0.8-1.2,1.6-1.8,2.4c-0.6,0.8-1.2,1.6-1.8,2.4c-0.2,0.2-0.3,0.4-0.5,0.5c-0.2,0.1-0.5,0.2-0.9,0.2
		h-1.7c-0.3,0-0.5-0.1-0.7-0.2c-0.1-0.1-0.2-0.3-0.2-0.6V135.5z"/>
	<path fill="#404040" d="M318,152.4c0.1,0.3,0.1,0.5,0,0.7c-0.1,0.2-0.3,0.4-0.7,0.5c-0.8,0.3-1.7,0.6-2.9,0.7
		c-1.1,0.1-2.2,0.2-3.2,0.2c-1.9,0-3.4-0.3-4.5-0.8c-1.1-0.6-2-1.3-2.6-2.2c-0.6-0.9-1-2-1.2-3.3c-0.2-1.2-0.3-2.5-0.3-3.9
		c0-1.2,0.1-2.4,0.3-3.7c0.2-1.2,0.6-2.3,1.2-3.2c0.6-0.9,1.5-1.7,2.6-2.3c1.1-0.6,2.6-0.9,4.5-0.9c0.5,0,1,0,1.5,0
		c0.5,0,1.1,0.1,1.6,0.2c0.5,0.1,1.1,0.2,1.6,0.3c0.5,0.1,1,0.3,1.4,0.5c0.5,0.2,0.7,0.6,0.6,1.1l-0.3,1.6c-0.1,0.3-0.2,0.5-0.4,0.5
		c-0.2,0.1-0.5,0.1-0.8,0c-0.8-0.1-1.7-0.2-2.5-0.2c-0.9-0.1-1.6-0.1-2.3-0.1c-1.6,0-2.8,0.5-3.4,1.4c-0.6,0.9-1,2.5-1,4.7
		c0,1.2,0.1,2.3,0.2,3.1s0.4,1.5,0.7,2c0.3,0.5,0.8,0.9,1.3,1.1c0.5,0.2,1.2,0.3,2,0.3c0.6,0,1.4,0,2.4-0.1c1-0.1,1.9-0.2,2.7-0.3
		c0.3-0.1,0.6-0.1,0.7,0c0.2,0.1,0.3,0.3,0.3,0.6L318,152.4z"/>
	<path fill="#404040" d="M320.9,135.5c0-0.3,0.1-0.5,0.2-0.7c0.1-0.1,0.3-0.2,0.7-0.2h2.6c0.4,0,0.6,0.1,0.7,0.2
		c0.1,0.2,0.2,0.4,0.2,0.6v11.7h0.1l5.2-7.1l3.6-4.7c0.2-0.2,0.3-0.4,0.5-0.5c0.2-0.1,0.5-0.2,0.9-0.2h2.1c0.3,0,0.5,0.1,0.7,0.3
		c0.1,0.2,0.2,0.4,0.2,0.6v17.9c0,0.6-0.3,0.8-0.9,0.8H335c-0.6,0-0.9-0.3-0.9-0.8v-12.2h0c-0.9,1.3-1.9,2.5-2.8,3.8
		c-0.9,1.3-1.9,2.5-2.8,3.8c-0.6,0.8-1.2,1.6-1.8,2.4c-0.6,0.8-1.2,1.6-1.8,2.4c-0.2,0.2-0.3,0.4-0.5,0.5c-0.2,0.1-0.5,0.2-0.9,0.2
		h-1.7c-0.3,0-0.5-0.1-0.7-0.2c-0.1-0.1-0.2-0.3-0.2-0.6V135.5z"/>
	<path fill="#404040" d="M358,134.6c0.4,0,0.6,0.1,0.8,0.2c0.1,0.1,0.2,0.3,0.2,0.6v18c0,0.5-0.3,0.8-1,0.8h-2.5
		c-0.3,0-0.6-0.1-0.7-0.2c-0.1-0.1-0.2-0.3-0.2-0.6v-6.8h-4c-0.7,0.1-1.3,0.3-1.7,0.7c-0.5,0.4-0.9,1.1-1.3,2.3l-1.3,3.9
		c-0.1,0.3-0.2,0.5-0.4,0.7c-0.2,0.1-0.4,0.2-0.8,0.2h-2.6c-0.4,0-0.6-0.1-0.7-0.2c-0.1-0.1-0.1-0.4,0-0.7l1.4-4.3
		c0.3-0.8,0.6-1.5,0.9-2.1c0.3-0.6,0.8-1.1,1.4-1.4c-0.6-0.2-1.1-0.5-1.4-0.9c-0.4-0.4-0.7-0.8-0.9-1.2c-0.2-0.4-0.4-0.9-0.4-1.4
		s-0.1-0.9-0.1-1.4c0-1,0.2-1.9,0.6-2.7c0.4-0.8,0.9-1.4,1.5-1.9s1.4-0.9,2.3-1.2c0.9-0.3,1.8-0.4,2.7-0.4H358z M346.9,140.7
		c0,0.8,0.2,1.4,0.7,1.8s1.3,0.6,2.4,0.6h4.6v-5h-4.4c-1,0-1.7,0.2-2.4,0.6C347.2,139.3,346.9,139.9,346.9,140.7z"/>
</g>
<g>
	<path fill="#BCBEC0" d="M91.6,38.4c0,0,62.2-8.1,64-8.4c2.7-0.4,5.1-1,7.3-1.6c5-1.4,9.7-3.5,13.8-6.3c3.9-2.7,7.6-6.5,11.2-10.8
		c2.3-2.7,4.7-6.2,7-9.6V0c-2.7,4-5.3,7.5-8,10.5c-3.6,4-7.4,7.4-11.2,9.8c-4,2.6-8.4,4.5-13.3,5.7c-2.2,0.6-4.5,1-7.1,1.4
		c-1.7,0.2-3.5,0.4-5.2,0.6c-0.7,0.1-58.4,6.3-58.4,6.3V38.4z"/>
	<path fill="#BCBEC0" d="M175,27.9c-3.9,2.3-8.4,3.9-13.4,4.9c-2.1,0.4-4.4,0.8-7.1,1.1c-1.6,0.2-3.1,0.3-4.7,0.4
		c-0.8,0.1-1.7,0.1-2.5,0.2c-19.1,1.7-38,3.6-55.8,5.3V44c17.9-2.2,37-4.5,56.1-6.7c0.8-0.1,1.7-0.2,2.5-0.3
		c1.6-0.2,3.1-0.3,4.7-0.6c2.7-0.4,5.1-0.8,7.3-1.3c5.2-1.2,9.8-3,13.9-5.5c4-2.4,7.6-5.8,11.4-10c2.4-2.6,5-6.3,7.5-9.7V8.5
		c-2.9,4-5.7,7.3-8.4,10.2C182.7,22.6,178.9,25.7,175,27.9"/>
	<path fill="#BCBEC0" d="M185.9,26.9c-3.8,3.5-7.8,6.3-11.8,8.2c-3.9,1.9-8.3,3.3-13.5,4.1c-2.1,0.4-4.4,0.6-7,0.9l-62.1,5.2v4.1
		l55.2-5.9l7.1-0.8c2.7-0.3,5-0.7,7.2-1.1c5.3-1,9.9-2.5,13.9-4.6c4.1-2.1,8.3-5.6,12.1-9.4c2.6-2.5,5.1-5.7,7.7-9.1v-1.4
		C191.8,21,188.9,24.2,185.9,26.9"/>
	<path fill="#BCBEC0" d="M170.9,48c-3.6,2-6.3,3.2-11.5,3.8c-3.1,0.3-6.3,0.5-9.4,0.7c-1.5,0.1-3,0.2-4.5,0.2
		c-9.4,0.5-18.6,1.1-28,1.8l-25.9,1.8v4.1l26.2-2.4c8.5-0.8,18.3-1.7,27.9-2.4l7-0.5c2.7-0.2,5-0.4,7-0.7c5.3-0.7,9.8-1.8,13.9-3.3
		c4.3-1.6,8.4-4.2,12.5-7.2c3.7-2.7,8.8-8,8.8-8.1v-1.4c-3.3,3.3-5.3,5.1-8.9,7.6C181.6,44.7,174.2,46.2,170.9,48"/>
	<path fill="#BCBEC0" d="M172.2,55.8c-3.9,1.2-8.3,1.9-13.5,2.4c-2.1,0.2-4.3,0.3-6.9,0.4l-6.9,0.3c-17.3,0.8-34.4,1.7-53.4,2.7v4.1
		c18.1-1.4,35.8-2.8,53.5-4.1l6.9-0.5c2.7-0.2,4.9-0.4,7-0.6c5.3-0.6,9.8-1.5,13.8-2.8c4.4-1.4,8.8-3.5,12.9-6.1
		c3-1.9,6.1-4.3,9.2-7v-0.1c-3.5,3-6.8,3.6-10,5.7C180.8,52.6,176.6,54.5,172.2,55.8"/>
	<path fill="#BCBEC0" d="M171.6,62.5c-3.9,0.9-8.2,1.5-13.5,1.9c-2,0.1-4.2,0.2-6.8,0.3l-6.9,0.2c-17.3,0.7-34.9,1.4-52.9,2.2v4.1
		c17.8-1.2,35.3-2.4,53-3.5l6.9-0.4c2.7-0.2,4.9-0.3,6.9-0.5c5.3-0.5,9.7-1.2,13.7-2.3c4.5-1.2,8.9-2.9,13.1-5.1
		c3.2-1.7,6.4-3.8,9.7-6.3v-1.7c-3.6,2.6-7,4.8-10.5,6.5C180.3,59.9,176,61.5,171.6,62.5"/>
	<path fill="#BCBEC0" d="M171,69.1c-4,0.7-8.2,1.2-13.4,1.5c-2,0.1-4,0.2-6.8,0.2l-59.2,1.6v4.1l52.5-2.8l6.8-0.3
		c2.7-0.1,4.8-0.3,6.8-0.4c5.3-0.4,9.6-1,13.6-1.8c4.6-1,9-2.4,13.2-4.2c3.4-1.4,6.8-3.2,10.3-5.4V60c-3.8,2.2-7.3,4-10.9,5.4
		C179.8,67.1,175.5,68.3,171,69.1"/>
	<path fill="#BCBEC0" d="M170.5,75.8c-7.3,1-14.8,1.1-22,1.2c-1.7,0-3.3,0-5,0.1l-52,0.9v4.1l52.1-2.3c1.7-0.1,3.3-0.1,5-0.2
		c7.3-0.3,14.8-0.6,22.2-1.8c4.7-0.7,9.2-1.8,13.3-3.3c3.5-1.2,7.1-2.7,10.7-4.5v-1.6c-3.8,1.8-7.6,3.3-11.2,4.4
		C179.5,74.2,175.1,75.2,170.5,75.8"/>
	<path fill="#BCBEC0" d="M170.1,82.5c-6.8,0.6-13.8,0.6-20.5,0.6c-2.1,0-4.2,0-6.3,0c-17.2,0.1-34.3,0.2-51.7,0.4v4.1
		c16.6-0.6,34.2-1.2,51.8-1.7c2.1-0.1,4.2-0.1,6.3-0.2c6.8-0.2,13.8-0.4,20.7-1.1c4.8-0.5,9.2-1.3,13.4-2.3
		c3.7-0.9,7.4-2.1,11.2-3.6v-1.5c-3.9,1.4-7.8,2.6-11.5,3.4C179.2,81.4,174.8,82.1,170.1,82.5"/>
	<path fill="#BCBEC0" d="M169.9,89.1c-2.8,0.1-5.9,0.2-9.4,0.2c-1.3,0-2.6,0-3.9,0L143.1,89C134,89,124.9,89,116.3,89l-24.7,0V93
		l24.8-0.7c8.5-0.2,17.7-0.4,26.8-0.6l13.4-0.2c3.7-0.1,8.5-0.2,13.4-0.5c4.8-0.3,9.2-0.8,13.4-1.5c3.8-0.6,7.6-1.4,11.5-2.4v-1.4
		c-4,0.9-7.9,1.7-11.7,2.2C178.9,88.5,174.6,88.9,169.9,89.1"/>
	<path fill="#BCBEC0" d="M156.4,95.4L143,95.3c-17-0.2-34.1-0.6-51.4-0.9v4.1c16.6-0.1,34.1-0.2,51.4-0.4l13.4-0.2
		c4.5-0.1,8.9-0.2,13.4-0.3c9.2-0.3,17.4-1,25.1-2v-1.4c-7.7,0.8-16,1.3-25.1,1.3C165.3,95.5,160.8,95.5,156.4,95.4"/>
	<polygon fill="#BCBEC0" points="194.9,102.6 91.6,100 91.6,104 194.9,104 	"/>
	<path fill="#BCBEC0" d="M185.6,34.5c-3.9,3.2-7,5.5-11.8,7.4c-4.2,1.7-8.7,2.4-13.8,3.1c-3.3,0.5-6.8,1.2-10.1,1.4
		c-1.4,0.1-2.7,0.2-4.1,0.3l-54.3,4v4.1l54.5-5.3l7.1-0.7c2.6-0.3,4.9-0.5,7.1-0.9c5.3-0.9,9.8-2.2,13.9-4c4.2-1.9,8.5-5,12.5-8.4
		c2.7-2.3,5.3-5.2,8.2-8.4v-1.5C191.4,29.2,188.6,32.1,185.6,34.5"/>
	<path fill="#BCBEC0" d="M238.8,0c0,0,18.6,29.7,22,35.2c3.4,5.4,7.3,9.8,21,12.7c13.8,2.9,19.7,4.3,19.7,4.3v1.1
		c0,0-8.7-1.9-20-4.4c-11.2-2.5-15.8-3.4-21-10.5c-4.3-6-21.8-31.3-21.8-31.3V0z"/>
	<path fill="#BCBEC0" d="M238.8,33.9c0,0,16.9,17.8,21.8,22.9c5.2,5.4,11.8,7.4,21.1,9.1c8.8,1.6,19.9,3.4,19.9,3.4v1
		c0,0-10.4-1.7-19.9-3.3c-9.3-1.6-15.8-2.5-21.1-7.4c-4.8-4.4-21.8-20.4-21.8-20.4V33.9z"/>
	<path fill="#BCBEC0" d="M238.8,41.9c0,0,16.1,15,21.8,20.1c5.3,4.7,9.5,6.2,21.1,8.2c11.6,2.1,19.8,3.3,19.8,3.3v1.1
		c0,0-10.5-1.7-19.9-3.2c-9.4-1.5-15.4-2.1-21.1-6.7c-6.5-5.3-21.8-17.9-21.8-17.9V41.9z"/>
	<path fill="#BCBEC0" d="M238.8,50.5c0,0,18.4,14.6,21.8,17.2c3.4,2.6,8,5.5,21.2,7.5c13.1,1.9,19.8,2.8,19.8,2.8v1.1
		c0,0-11.9-1.7-19.8-2.7c-7.9-1-14-1.4-21.1-6.2c-6.9-4.6-21.9-15.2-21.9-15.2V50.5z"/>
	<path fill="#BCBEC0" d="M238.8,58.7c0,0,18.4,12.3,21.9,14.3c3.5,1.9,7.6,5.1,21.1,6.8c13.5,1.7,19.8,2.5,19.8,2.5v1.1
		c0,0-11.1-1.2-19.8-2.2c-8.7-0.9-14.6-2.2-21.1-5.8c-6.5-3.6-21.8-12.6-21.8-12.6V58.7z"/>
	<path fill="#BCBEC0" d="M238.8,66.9c0,0,16.3,8.9,21.8,11.7c6.2,3.1,11.5,4.6,21.1,5.7c9.5,1.1,19.8,2.2,19.8,2.2v1
		c0,0-9.6-1-19.8-2c-10.2-1-13.8-1.4-21.1-4.7c-6.6-2.9-21.8-10.1-21.8-10.1V66.9z"/>
	<path fill="#BCBEC0" d="M238.8,75.2c0,0,12.9,5.5,21.9,9.1c8.9,3.5,15.7,3.8,21.1,4.5c2.4,0.3,19.7,2.1,19.7,2.1v1
		c0,0-10.4-0.8-19.8-1.7c-9.4-0.8-13.5-1.2-21.1-3.7c-7.7-2.6-21.9-7.5-21.9-7.5V75.2z"/>
	<path fill="#BCBEC0" d="M238.8,83.7c0,0,13,4,21.9,6.4c8.9,2.3,17,3.3,21.1,3.6c4.1,0.3,19.8,1.6,19.8,1.6v0.9
		c0,0-8.9-0.6-19.8-1.4c-8.8-0.6-15.9-1.3-21.1-2.4c-5.8-1.3-21.8-5.1-21.8-5.1V83.7z"/>
	<path fill="#BCBEC0" d="M238.8,92.1c0,0,10.6,1.8,21.9,3.7c8.4,1.4,19.8,2.3,21.1,2.3c1.2,0.1,19.8,1.3,19.8,1.3v1
		c0,0-11.9-0.6-19.8-1.1c-8.3-0.5-16.5-1-21.1-1.4c-10.4-1.1-21.8-2.5-21.8-2.5V92.1z"/>
	<path fill="#BCBEC0" d="M238.8,100.7c0,0,16.8,0.6,21.9,0.7c5.1,0.1,40.9,1.6,40.9,1.6v1h-62.8V100.7z"/>
	<path fill="#BCBEC0" d="M281.7,52.4c-15.2-3.3-18.6-8.9-21.2-12.3c-2.5-3.5-21.8-31.6-21.8-31.6v6.4c0.8,1,17.2,22.6,21.8,28.5
		c5.2,6.7,13.4,8.2,21.1,9.9c7.8,1.7,19.8,4,19.8,4v-0.9C301.6,56.4,285.7,53.3,281.7,52.4"/>
	<path fill="#BCBEC0" d="M281.7,56.9c-12.5-2.4-17.5-6.4-21.2-11.2c-3.7-4.8-21.8-28.7-21.8-28.7v6c0.8,0.9,17.3,20.6,21.8,25.7
		c5.2,6,12.4,7.5,21.2,9.1c8.8,1.6,19.8,3.7,19.8,3.7v-0.9C301.6,60.7,288.9,58.3,281.7,56.9"/>
	<path fill="#BCBEC0" d="M281.7,61.5c-13-2.5-15.6-4.6-21.1-10.6c-3.4-3.8-21.1-24.7-21.8-25.5v5.6c0,0,16.5,17.6,21.8,22.8
		c6.9,6.8,13.5,7.3,21.2,8.7c7.7,1.4,19.8,3.6,19.8,3.6v-0.9C301.6,65.1,286.9,62.5,281.7,61.5"/>
	<rect x="134.5" y="43.3" fill="#0D4F9E" width="90.5" height="60.7"/>
	<polygon fill="#FAEA27" points="180.7,51.9 183.9,51.9 181.3,53.9 182.3,57 179.8,55.1 177.3,57 178.3,53.9 175.7,51.9 178.8,51.9 
		179.8,48.8 	"/>
	<polygon fill="#FAEA27" points="180.8,92.4 184,92.4 181.5,94.3 182.4,97.3 179.9,95.5 177.4,97.3 178.4,94.3 175.8,92.4 179,92.4 
		179.9,89.4 	"/>
	<polygon fill="#FAEA27" points="190.8,89.7 194,89.7 191.4,91.6 192.4,94.7 189.9,92.8 187.4,94.7 188.4,91.6 185.8,89.7 
		188.9,89.7 189.9,86.8 	"/>
	<polygon fill="#FAEA27" points="190.8,54.6 194,54.6 191.4,56.5 192.4,59.5 189.9,57.7 187.4,59.5 188.4,56.5 185.8,54.6 
		188.9,54.6 189.9,51.6 	"/>
	<polygon fill="#FAEA27" points="198.2,62 201.4,62 198.8,63.9 199.8,67 197.3,65.1 194.8,67 195.8,63.9 193.2,62 196.4,62 
		197.3,59.1 	"/>
	<polygon fill="#FAEA27" points="198.2,82.4 201.4,82.4 198.8,84.3 199.8,87.3 197.3,85.5 194.8,87.3 195.8,84.3 193.2,82.4 
		196.4,82.4 197.3,79.4 	"/>
	<polygon fill="#FAEA27" points="201,72.1 204.2,72.1 201.6,74 202.6,77 200.1,75.1 197.6,77 198.6,74 196,72.1 199.1,72.1 
		200.1,69.1 	"/>
	<polygon fill="#FAEA27" points="170.5,54.6 173.7,54.6 171.2,56.5 172.1,59.6 169.6,57.7 167.1,59.6 168.1,56.5 165.5,54.6 
		168.7,54.6 169.6,51.7 	"/>
	<polygon fill="#FAEA27" points="163.3,62.1 166.5,62.1 164,64 164.9,67 162.4,65.1 159.9,67 160.9,64 158.3,62.1 161.5,62.1 
		162.4,59.1 	"/>
	<polygon fill="#FAEA27" points="160.7,72.1 163.8,72.1 161.3,74 162.3,77 159.7,75.2 157.2,77 158.2,74 155.6,72.1 158.8,72.1 
		159.7,69.1 	"/>
	<polygon fill="#FAEA27" points="163.3,82.4 166.5,82.4 164,84.3 164.9,87.4 162.4,85.5 159.9,87.4 160.9,84.3 158.3,82.4 
		161.5,82.4 162.4,79.5 	"/>
	<polygon fill="#FAEA27" points="170.7,89.7 173.8,89.7 171.3,91.7 172.2,94.7 169.7,92.8 167.2,94.7 168.2,91.7 165.6,89.7 
		168.8,89.7 169.7,86.8 	"/>
</g>
</svg>
