<?xml version="1.0" encoding="UTF-8" standalone="no"?>
<svg width="300px" height="300px" viewBox="0 0 300 300" version="1.1" xmlns="http://www.w3.org/2000/svg" xmlns:xlink="http://www.w3.org/1999/xlink" xmlns:sketch="http://www.bohemiancoding.com/sketch/ns">
    <!-- Generator: Sketch 3.0.3 (7891) - http://www.bohemiancoding.com/sketch -->
    <title>Artboard 1</title>
    <desc>Created with Sketch.</desc>
    <defs></defs>
    <g id="Page-1" stroke="none" stroke-width="1" fill="none" fill-rule="evenodd" sketch:type="MSPage">
        <g id="Artboard-1" sketch:type="MSArtboardGroup" fill="#010202">
            <g id="SM" sketch:type="MSLayerGroup" transform="translate(9.000000, 42.000000)">
                <path d="M141.184918,0.277011494 C63.4268852,0.277011494 0.369836066,47.2766284 0.369836066,105.079693 C0.369836066,130.841762 19.8786885,160.204981 40.5895082,178.487739 L20.4334426,241.369349 L81.5488525,200.002299 C99.6708197,206.281226 119.826885,209.974713 141.092459,209.974713 C218.850492,209.974713 281.907541,163.067433 281.907541,105.172031 C282,47.2766284 218.942951,0.277011494 141.184918,0.277011494 L141.184918,0.277011494 Z M171.326557,85.6888889 L168.552787,99.0777778 L122.045902,99.0777778 C121.953443,100.370498 121.953443,102.124904 121.953443,104.156322 C121.953443,106.187739 122.045902,108.311494 122.138361,110.435249 L166.056393,110.435249 L163.282623,123.824138 L123.895082,123.824138 C125.374426,130.010728 127.593443,134.812261 130.552131,138.321073 C136.28459,145.061686 143.77377,148.478161 153.019672,148.478161 C164.114754,148.478161 172.898361,145.061686 179.462951,138.321073 L179.462951,164.729502 C171.97377,168.422989 163.282623,170.362069 153.297049,170.362069 C136.469508,170.362069 122.693115,164.637165 111.87541,153.095019 C104.478689,145.24636 99.6708197,135.550958 97.2668852,123.824138 L84.507541,123.824138 L87.2813115,110.435249 L95.787541,110.435249 C95.695082,109.050192 95.695082,107.572797 95.695082,106.003065 C95.695082,103.325287 95.787541,101.016858 95.88,98.9854406 L84.507541,98.9854406 L87.2813115,85.5965517 L97.5442623,85.5965517 C99.9481967,74.1467433 104.756066,64.5436782 111.967869,56.8796935 C122.878033,45.2452107 137.116721,39.4279693 154.868852,39.4279693 C164.577049,39.4279693 172.99082,41.1823755 180.110164,44.6911877 L175.024918,68.6065134 C170.12459,63.7126437 163.005246,61.3118774 153.574426,61.3118774 C144.143607,61.3118774 136.561967,64.6360153 130.737049,71.3766284 C127.500984,75.1624521 125.097049,79.8716475 123.710164,85.5965517 L171.326557,85.5965517 L171.326557,85.6888889 Z" id="Shape" sketch:type="MSShapeGroup"></path>
            </g>
        </g>
    </g>
</svg>