<?xml version="1.0" encoding="utf-8"?>
<!-- Generator: Adobe Illustrator 18.1.1, SVG Export Plug-In . SVG Version: 6.00 Build 0)  -->
<svg version="1.1" id="Layer_1" xmlns="http://www.w3.org/2000/svg" xmlns:xlink="http://www.w3.org/1999/xlink" x="0px" y="0px"
	 viewBox="0 0 346.4 161.6" enable-background="new 0 0 346.4 161.6" xml:space="preserve">
<g>
	<path fill="#404040" d="M0,128.4c0-0.5,0.3-0.8,0.8-0.8h14.7c0.5,0,0.8,0.3,0.8,0.8v2.5c0,0.5-0.3,0.7-0.8,0.7H4.6v6.9h9.7
		c0.5,0,0.8,0.2,0.8,0.7v2.5c0,0.5-0.3,0.7-0.8,0.7H4.6v7.9h11.2c0.5,0,0.7,0.3,0.7,0.8v2.4c0,0.5-0.3,0.7-0.8,0.7H0.8
		c-0.5,0-0.8-0.2-0.8-0.7V128.4z"/>
	<path fill="#404040" d="M24.9,148.3c0.1,0.5,0.3,0.9,0.6,1.3c0.3,0.4,0.7,0.6,1.2,0.9s1.2,0.3,2.1,0.3c0.8,0,1.5-0.1,2-0.3
		c0.5-0.2,1-0.5,1.3-0.9c0.3-0.4,0.5-0.8,0.7-1.3c0.1-0.5,0.2-1,0.2-1.6v-11.3c0-0.5,0.3-0.8,0.8-0.8h2.9c0.5,0,0.8,0.3,0.8,0.8
		v11.5c0,1.1-0.2,2.1-0.5,3c-0.3,0.9-0.9,1.7-1.6,2.4c-0.7,0.7-1.6,1.2-2.7,1.6s-2.4,0.6-3.8,0.6c-1.5,0-2.8-0.2-3.8-0.5
		c-1.1-0.4-1.9-0.9-2.6-1.5c-0.7-0.7-1.2-1.5-1.5-2.4c-0.3-0.9-0.5-2-0.5-3.1v-11.5c0-0.2,0.1-0.4,0.2-0.5c0.1-0.1,0.3-0.2,0.6-0.2
		H24c0.5,0,0.8,0.3,0.8,0.8v11.3C24.8,147.2,24.8,147.8,24.9,148.3z"/>
	<path fill="#404040" d="M58.7,144.3c0,1.6-0.1,3.1-0.4,4.3c-0.2,1.3-0.7,2.3-1.3,3.2c-0.6,0.9-1.4,1.6-2.5,2s-2.4,0.7-4,0.7
		c-0.6,0-1.4-0.1-2.3-0.2c-0.9-0.1-1.8-0.4-2.7-0.7v7.1c0,0.2,0,0.4-0.1,0.6c-0.1,0.2-0.3,0.2-0.6,0.2H42c-0.3,0-0.5-0.1-0.6-0.2
		c-0.1-0.1-0.1-0.3-0.1-0.6v-16.5c0-3.4,0.8-5.9,2.3-7.6c1.5-1.6,3.6-2.5,6.4-2.5c1.6,0,3,0.2,4.1,0.7c1.1,0.5,2,1.2,2.7,2
		c0.7,0.9,1.2,1.9,1.5,3.2C58.5,141.4,58.7,142.8,58.7,144.3z M54.2,144.2c0-1.2-0.1-2.2-0.3-3c-0.2-0.8-0.5-1.4-0.9-1.9
		c-0.4-0.5-0.8-0.8-1.3-1c-0.5-0.2-1.1-0.3-1.7-0.3c-1,0-1.8,0.2-2.4,0.6c-0.6,0.4-1,0.9-1.3,1.5s-0.5,1.3-0.5,2
		c-0.1,0.7-0.1,1.4-0.1,2.1v5.8c0.9,0.2,1.7,0.4,2.4,0.5c0.7,0.1,1.5,0.1,2.1,0.1c0.7,0,1.3-0.1,1.8-0.3c0.5-0.2,0.9-0.5,1.2-1
		c0.3-0.5,0.6-1.2,0.7-2S54.2,145.5,54.2,144.2z"/>
	<path fill="#404040" d="M75.7,151.8c-0.5,0.8-1.2,1.4-2.2,2c-1,0.5-2.1,0.8-3.5,0.8c-1.5,0-2.8-0.3-3.8-0.8c-1-0.5-1.8-1.3-2.4-2.2
		c-0.6-0.9-1-2-1.2-3.2s-0.4-2.5-0.4-3.8c0-1,0.1-2,0.2-3c0.1-1,0.4-1.9,0.8-2.8c0.4-0.9,1-1.7,1.8-2.5c0.8-0.7,1.8-1.4,3-1.8
		c0.3-0.1,0.5-0.2,0.7-0.2s0.4,0.1,0.5,0.4l0.9,1.6c0.2,0.3,0.2,0.5,0.1,0.6s-0.3,0.3-0.6,0.5c-0.7,0.5-1.2,0.9-1.6,1.4
		c-0.4,0.5-0.7,1-0.9,1.6c-0.2,0.6-0.4,1.2-0.4,1.9c-0.1,0.7-0.1,1.4-0.1,2.3c0,0.9,0.1,1.7,0.2,2.4c0.1,0.7,0.3,1.4,0.6,1.9
		c0.3,0.5,0.6,1,1.1,1.3c0.4,0.3,1,0.5,1.7,0.5c0.8,0,1.4-0.1,1.8-0.4c0.5-0.2,0.8-0.6,1-0.9c0.2-0.4,0.4-0.8,0.5-1.3
		c0.1-0.5,0.1-1,0.1-1.5v-5.2c0-0.5,0.3-0.8,0.8-0.8h2.6c0.3,0,0.5,0.1,0.6,0.2c0.1,0.1,0.1,0.3,0.1,0.6v5.2c0,0.5,0.1,1,0.2,1.5
		c0.1,0.5,0.3,0.9,0.6,1.3c0.3,0.4,0.6,0.7,1.1,0.9c0.4,0.2,1,0.4,1.6,0.4c1.2,0,2.1-0.5,2.7-1.4c0.6-0.9,0.9-2.5,0.9-4.8
		c0-0.9,0-1.7-0.1-2.4c-0.1-0.7-0.2-1.3-0.5-1.8c-0.2-0.5-0.6-1.1-1-1.5c-0.4-0.5-0.9-0.9-1.6-1.4c-0.3-0.2-0.5-0.4-0.5-0.5
		s0-0.4,0.1-0.6l0.8-1.5c0.2-0.5,0.7-0.6,1.3-0.4c1.2,0.5,2.2,1,3,1.8c0.8,0.7,1.4,1.6,1.8,2.5c0.4,0.9,0.7,1.9,0.9,2.9
		c0.1,1,0.2,2,0.2,3c0,1.3-0.1,2.6-0.4,3.8c-0.2,1.2-0.7,2.3-1.2,3.2c-0.6,0.9-1.4,1.6-2.4,2.2s-2.3,0.8-3.8,0.8
		c-1.4,0-2.5-0.3-3.5-0.8c-1-0.5-1.7-1.2-2.2-2H75.7z"/>
	<path fill="#404040" d="M110.4,153.4c0,0.5-0.3,0.8-0.8,0.8h-2.9c-0.5,0-0.8-0.3-0.8-0.8l0-15.2h-8.4v15.2c0,0.2-0.1,0.4-0.2,0.5
		c-0.1,0.1-0.3,0.2-0.6,0.2H94c-0.5,0-0.8-0.3-0.8-0.8v-18.1c0-0.5,0.3-0.8,0.8-0.8h15.6c0.3,0,0.5,0.1,0.6,0.2
		c0.1,0.1,0.2,0.3,0.2,0.6V153.4z"/>
	<path fill="#404040" d="M131.4,149.4c0,0.8,0.1,1.2,0.2,1.4c0.2,0.2,0.5,0.3,1.1,0.3c0.3,0,0.5,0.1,0.6,0.2
		c0.1,0.1,0.1,0.2,0.1,0.4v1.7c0,0.5-0.3,0.7-0.9,0.8c-0.3,0.1-0.6,0.1-1,0.1c-0.3,0-0.6,0.1-0.9,0.1c-1,0-1.7-0.2-2.3-0.5
		s-0.9-1-1.1-1.9l-0.1,0c-1,0.8-2.1,1.4-3.2,1.9c-1.1,0.5-2.2,0.7-3.4,0.7c-1.3,0-2.3-0.2-3.2-0.7s-1.5-1.1-2-2
		c-0.5-0.9-0.8-1.9-1-3.1c-0.2-1.2-0.3-2.6-0.3-4.1c0-1.5,0.2-3,0.5-4.2c0.3-1.3,0.8-2.4,1.4-3.3c0.7-0.9,1.5-1.6,2.5-2.1
		c1-0.5,2.2-0.8,3.5-0.8c0.6,0,1.4,0.1,2.4,0.3c0.9,0.2,1.9,0.6,2.8,1.2l0.1,0v-0.4c0-0.3,0-0.5,0.1-0.6c0.1-0.1,0.3-0.2,0.6-0.2
		h2.7c0.3,0,0.5,0.1,0.6,0.2c0.1,0.1,0.1,0.3,0.1,0.6V149.4z M118.4,144.6c0,1.3,0.1,2.3,0.2,3.1c0.1,0.8,0.3,1.4,0.6,1.8
		s0.6,0.7,1,0.9s0.9,0.2,1.4,0.2c0.4,0,0.9-0.1,1.3-0.2s1-0.3,1.5-0.5c0.5-0.2,1-0.4,1.4-0.6c0.4-0.2,0.8-0.4,1.1-0.6v-9.6
		c-0.9-0.4-1.7-0.6-2.5-0.8c-0.8-0.2-1.4-0.2-1.7-0.2c-1.4,0-2.5,0.5-3.3,1.5C118.8,140.6,118.4,142.3,118.4,144.6z"/>
	<path fill="#404040" d="M135.3,131.9c-0.5,0-0.9-0.1-1.2-0.2s-0.5-0.3-0.7-0.5c-0.2-0.2-0.3-0.5-0.3-0.7c0-0.3-0.1-0.5-0.1-0.8
		c0-0.6,0.1-1.1,0.4-1.5c0.3-0.4,0.9-0.6,1.8-0.6c0.9,0,1.5,0.2,1.8,0.6c0.3,0.4,0.4,0.9,0.4,1.5c0,0.6-0.1,1.1-0.4,1.6
		C136.8,131.7,136.2,131.9,135.3,131.9z M141.2,153.4c0,0.2,0,0.4-0.1,0.5c-0.1,0.1-0.3,0.2-0.6,0.2h-2.8c-0.5,0-0.8-0.3-0.8-0.8
		v-18.1c0-0.5,0.3-0.8,0.8-0.8h2.8c0.3,0,0.5,0.1,0.6,0.2c0.1,0.1,0.1,0.3,0.1,0.5V153.4z M143,131.9c-1,0-1.6-0.2-1.8-0.7
		c-0.3-0.5-0.4-1-0.4-1.6c0-0.6,0.1-1.1,0.4-1.5c0.3-0.4,0.9-0.6,1.8-0.6c0.9,0,1.5,0.2,1.8,0.6c0.3,0.4,0.4,0.9,0.4,1.5
		c0,0.6-0.1,1.1-0.4,1.6C144.6,131.7,144,131.9,143,131.9z"/>
	<path fill="#404040" d="M150.8,141.8l3-3.2l3.3-3.4c0.2-0.2,0.4-0.4,0.6-0.5c0.2-0.1,0.5-0.2,0.8-0.2h3.2c0.4,0,0.6,0.1,0.7,0.3
		c0.1,0.2,0,0.4-0.2,0.6l-6.4,6.5l7.2,11.3c0.1,0.2,0.2,0.5,0.1,0.6c-0.1,0.2-0.3,0.3-0.6,0.3h-3.2c-0.4,0-0.7-0.1-0.9-0.2
		c-0.2-0.1-0.3-0.3-0.5-0.6l-5-8.2l-2.2,2.3v5.9c0,0.2-0.1,0.4-0.2,0.5c-0.1,0.1-0.3,0.2-0.6,0.2H147c-0.5,0-0.8-0.3-0.8-0.8v-18
		c0-0.5,0.3-0.8,0.8-0.8h2.8c0.3,0,0.5,0.1,0.6,0.2c0.1,0.1,0.2,0.3,0.2,0.6v6.4L150.8,141.8z"/>
	<path fill="#404040" d="M182.5,153.4c0,0.2-0.1,0.4-0.2,0.6c-0.1,0.1-0.3,0.2-0.6,0.2h-2.9c-0.5,0-0.8-0.3-0.8-0.8l0-11.2
		c0-1.2-0.2-2.1-0.6-2.8c-0.4-0.7-1.2-1.1-2.3-1.1c-0.4,0-0.9,0.1-1.4,0.2c-0.5,0.1-1,0.3-1.6,0.5c-0.5,0.2-1,0.4-1.5,0.6
		c-0.5,0.2-0.8,0.4-1.1,0.5v13.4c0,0.5-0.3,0.8-0.8,0.8h-2.8c-0.5,0-0.8-0.3-0.8-0.8v-18c0-0.5,0.3-0.8,0.8-0.8h2.8
		c0.5,0,0.8,0.3,0.8,0.8v1.2c0,0,0,0,0.1,0c0,0,0,0,0.1,0c0.4-0.3,0.8-0.5,1.3-0.8c0.5-0.3,1.1-0.5,1.7-0.8c0.6-0.2,1.2-0.4,1.8-0.6
		c0.6-0.1,1.3-0.2,1.9-0.2c1.4,0,2.4,0.2,3.2,0.6c0.8,0.4,1.4,1,1.8,1.7c0.4,0.7,0.7,1.5,0.8,2.4c0.1,0.9,0.2,1.9,0.2,2.9V153.4z
		 M177.6,125.8c0.4,0.2,0.5,0.5,0.2,0.9l-4,5.6c-0.1,0.1-0.2,0.2-0.3,0.3c-0.1,0.1-0.2,0-0.5,0l-1.6-0.7c-0.3-0.2-0.3-0.4-0.2-0.8
		l3.2-6.2c0.2-0.3,0.5-0.4,0.9-0.2L177.6,125.8z"/>
	<path fill="#404040" d="M198.6,128.4c0-0.5,0.3-0.8,0.8-0.8h14.7c0.5,0,0.8,0.3,0.8,0.8v2.5c0,0.5-0.3,0.7-0.8,0.7h-10.9v6.9h9.7
		c0.5,0,0.8,0.2,0.8,0.7v2.5c0,0.5-0.3,0.7-0.8,0.7h-9.7v7.9h11.2c0.5,0,0.7,0.3,0.7,0.8v2.4c0,0.5-0.3,0.7-0.8,0.7h-14.9
		c-0.5,0-0.8-0.2-0.8-0.7V128.4z"/>
	<path fill="#404040" d="M236.1,153.4c0,0.5-0.3,0.8-0.8,0.8h-2.9c-0.5,0-0.8-0.3-0.8-0.8l0-15.2h-8.4v15.2c0,0.2-0.1,0.4-0.2,0.5
		c-0.1,0.1-0.3,0.2-0.6,0.2h-2.8c-0.5,0-0.8-0.3-0.8-0.8v-18.1c0-0.5,0.3-0.8,0.8-0.8h15.6c0.3,0,0.5,0.1,0.6,0.2
		c0.1,0.1,0.2,0.3,0.2,0.6V153.4z"/>
	<path fill="#404040" d="M245.2,153.4c0,0.2,0,0.4-0.1,0.5c-0.1,0.1-0.3,0.2-0.6,0.2h-2.8c-0.5,0-0.8-0.3-0.8-0.8v-18.1
		c0-0.5,0.3-0.8,0.8-0.8h2.8c0.3,0,0.5,0.1,0.6,0.2c0.1,0.1,0.1,0.3,0.1,0.5V153.4z"/>
	<path fill="#404040" d="M262.2,134.6c0.3,0,0.5,0.1,0.6,0.2c0.1,0.1,0.1,0.3,0.1,0.6v2.1c0,0.3,0,0.5-0.1,0.6
		c-0.1,0.1-0.3,0.2-0.6,0.2h-4.8v9.7c0,0.7,0.1,1.3,0.2,1.6c0.1,0.4,0.4,0.6,0.8,0.8c0.4,0.1,0.9,0.2,1.5,0.2c0.6,0,1.4-0.1,2.3-0.1
		c0.3,0,0.6,0,0.7,0c0.1,0.1,0.2,0.2,0.3,0.5l0.3,1.7c0,0.5-0.1,0.8-0.5,1c-0.3,0.2-0.7,0.3-1.2,0.4c-0.4,0.1-0.9,0.2-1.3,0.3
		c-0.5,0.1-0.9,0.1-1.3,0.1c-0.4,0-0.8,0-1.1,0c-1,0-1.8-0.1-2.4-0.3c-0.6-0.2-1.1-0.6-1.5-1c-0.4-0.4-0.7-0.9-0.8-1.5
		c-0.2-0.6-0.2-1.3-0.2-2v-11.4h-3.9c-0.5,0-0.8-0.3-0.8-0.8v-2.1c0-0.5,0.3-0.8,0.8-0.8H262.2z"/>
	<path fill="#404040" d="M283.2,144.3c0,1.6-0.1,3.1-0.4,4.3c-0.2,1.3-0.7,2.3-1.3,3.2c-0.6,0.9-1.4,1.6-2.5,2s-2.4,0.7-4,0.7
		c-0.6,0-1.4-0.1-2.3-0.2c-0.9-0.1-1.8-0.4-2.7-0.7v7.1c0,0.2,0,0.4-0.1,0.6c-0.1,0.2-0.3,0.2-0.6,0.2h-2.8c-0.3,0-0.5-0.1-0.6-0.2
		c-0.1-0.1-0.1-0.3-0.1-0.6v-16.5c0-3.4,0.8-5.9,2.3-7.6s3.6-2.5,6.4-2.5c1.6,0,3,0.2,4.1,0.7s2,1.2,2.7,2c0.7,0.9,1.2,1.9,1.5,3.2
		C283.1,141.4,283.2,142.8,283.2,144.3z M278.7,144.2c0-1.2-0.1-2.2-0.3-3c-0.2-0.8-0.5-1.4-0.9-1.9c-0.4-0.5-0.8-0.8-1.3-1
		c-0.5-0.2-1.1-0.3-1.7-0.3c-1,0-1.8,0.2-2.4,0.6s-1,0.9-1.3,1.5c-0.3,0.6-0.5,1.3-0.5,2c-0.1,0.7-0.1,1.4-0.1,2.1v5.8
		c0.9,0.2,1.7,0.4,2.4,0.5c0.7,0.1,1.5,0.1,2.1,0.1c0.7,0,1.3-0.1,1.8-0.3c0.5-0.2,0.9-0.5,1.2-1c0.3-0.5,0.6-1.2,0.7-2
		C278.6,146.6,278.7,145.5,278.7,144.2z"/>
	<path fill="#404040" d="M304.2,144.1c0,1.1-0.1,2.3-0.2,3.6c-0.1,1.2-0.5,2.4-1.1,3.4c-0.6,1-1.5,1.9-2.6,2.5c-1.2,0.7-2.8,1-4.9,1
		c-2,0-3.6-0.3-4.7-1c-1.1-0.7-2-1.5-2.6-2.5c-0.6-1-0.9-2.2-1.1-3.4c-0.1-1.2-0.2-2.4-0.2-3.6c0-0.9,0.1-2,0.3-3.1
		c0.2-1.1,0.6-2.2,1.1-3.2c0.6-1,1.4-1.8,2.6-2.5s2.7-1,4.6-1c1.9,0,3.5,0.3,4.6,0.9c1.2,0.6,2,1.4,2.7,2.3c0.6,0.9,1,2,1.2,3.2
		C304.1,141.7,304.2,142.9,304.2,144.1z M299.7,144.4c0-1.1-0.1-2-0.2-2.8c-0.1-0.8-0.3-1.4-0.6-2s-0.8-0.9-1.3-1.2
		c-0.6-0.3-1.3-0.4-2.2-0.4c-0.9,0-1.5,0.1-2.1,0.4c-0.5,0.3-1,0.7-1.3,1.2c-0.3,0.5-0.5,1.2-0.6,2c-0.1,0.8-0.2,1.7-0.2,2.7
		c0,1.1,0.1,2,0.2,2.8c0.1,0.8,0.3,1.4,0.6,2c0.3,0.5,0.7,0.9,1.2,1.2c0.5,0.3,1.2,0.4,2.1,0.4c0.9,0,1.6-0.1,2.2-0.4
		c0.6-0.3,1-0.6,1.3-1.2s0.5-1.2,0.6-2S299.7,145.4,299.7,144.4z"/>
	<path fill="#404040" d="M325.2,153.4c0,0.5-0.3,0.8-0.8,0.8h-2.9c-0.5,0-0.8-0.3-0.8-0.8l0-15.2h-8.4v15.2c0,0.2-0.1,0.4-0.2,0.5
		c-0.1,0.1-0.3,0.2-0.6,0.2h-2.8c-0.5,0-0.8-0.3-0.8-0.8v-18.1c0-0.5,0.3-0.8,0.8-0.8h15.6c0.3,0,0.5,0.1,0.6,0.2
		c0.1,0.1,0.2,0.3,0.2,0.6V153.4z"/>
	<path fill="#404040" d="M346.4,153.4c0,0.2-0.1,0.4-0.2,0.6c-0.1,0.1-0.3,0.2-0.6,0.2h-2.9c-0.5,0-0.8-0.3-0.8-0.8l0-11.2
		c0-1.2-0.2-2.1-0.6-2.8c-0.4-0.7-1.2-1.1-2.3-1.1c-0.4,0-0.9,0.1-1.4,0.2c-0.5,0.1-1,0.3-1.6,0.5c-0.5,0.2-1,0.4-1.5,0.6
		c-0.5,0.2-0.8,0.4-1.1,0.5v13.4c0,0.5-0.3,0.8-0.8,0.8H330c-0.5,0-0.8-0.3-0.8-0.8v-18c0-0.5,0.3-0.8,0.8-0.8h2.8
		c0.5,0,0.8,0.3,0.8,0.8v1.2c0,0,0,0,0.1,0c0,0,0,0,0.1,0c0.4-0.3,0.8-0.5,1.3-0.8c0.5-0.3,1.1-0.5,1.7-0.8c0.6-0.2,1.2-0.4,1.8-0.6
		c0.6-0.1,1.3-0.2,1.9-0.2c1.4,0,2.4,0.2,3.2,0.6c0.8,0.4,1.4,1,1.8,1.7c0.4,0.7,0.7,1.5,0.8,2.4c0.1,0.9,0.2,1.9,0.2,2.9V153.4z
		 M341.5,125.8c0.4,0.2,0.5,0.5,0.2,0.9l-4,5.6c-0.1,0.1-0.2,0.2-0.3,0.3c-0.1,0.1-0.2,0-0.5,0l-1.6-0.7c-0.3-0.2-0.3-0.4-0.2-0.8
		l3.2-6.2c0.2-0.3,0.5-0.4,0.9-0.2L341.5,125.8z"/>
</g>
<g>
	<path fill="#BCBEC0" d="M84.7,38.4c0,0,62.2-8.1,64-8.4c2.7-0.4,5.1-1,7.3-1.6c5-1.4,9.7-3.5,13.8-6.3c3.9-2.7,7.6-6.5,11.2-10.8
		c2.3-2.7,4.7-6.2,7-9.6V0c-2.7,4-5.3,7.5-8,10.5c-3.6,4-7.4,7.4-11.2,9.8c-4,2.6-8.4,4.5-13.3,5.7c-2.2,0.6-4.5,1-7.1,1.4
		c-1.7,0.2-3.5,0.4-5.2,0.6c-0.7,0.1-58.4,6.3-58.4,6.3V38.4z"/>
	<path fill="#BCBEC0" d="M168.2,27.9c-3.9,2.3-8.4,3.9-13.4,4.9c-2.1,0.4-4.4,0.8-7.1,1.1c-1.6,0.2-3.1,0.3-4.7,0.4
		c-0.8,0.1-1.7,0.1-2.5,0.2c-19.1,1.7-38,3.6-55.8,5.3V44c17.9-2.2,37-4.5,56.1-6.7c0.8-0.1,1.7-0.2,2.5-0.3
		c1.6-0.2,3.1-0.3,4.7-0.6c2.7-0.4,5.1-0.8,7.3-1.3c5.2-1.2,9.8-3,13.9-5.5c4-2.4,7.6-5.8,11.4-10c2.4-2.6,5-6.3,7.5-9.7V8.5
		c-2.9,4-5.7,7.3-8.4,10.2C175.9,22.6,172,25.7,168.2,27.9"/>
	<path fill="#BCBEC0" d="M179.1,26.9c-3.8,3.5-7.8,6.3-11.8,8.2c-3.9,1.9-8.3,3.3-13.5,4.1c-2.1,0.4-4.4,0.6-7,0.9l-62.1,5.2v4.1
		l55.2-5.9l7.1-0.8c2.7-0.3,5-0.7,7.2-1.1c5.3-1,9.9-2.5,13.9-4.6c4.1-2.1,8.3-5.6,12.1-9.4c2.6-2.5,5.1-5.7,7.7-9.1v-1.4
		C184.9,21,182,24.2,179.1,26.9"/>
	<path fill="#BCBEC0" d="M164.1,48c-3.6,2-6.3,3.2-11.5,3.8c-3.1,0.3-6.3,0.5-9.4,0.7c-1.5,0.1-3,0.2-4.5,0.2
		c-9.4,0.5-18.6,1.1-28,1.8l-25.9,1.8v4.1l26.2-2.4c8.5-0.8,18.3-1.7,27.9-2.4l7-0.5c2.7-0.2,5-0.4,7-0.7c5.3-0.7,9.8-1.8,13.9-3.3
		c4.3-1.6,8.4-4.2,12.5-7.2c3.7-2.7,8.8-8,8.8-8.1v-1.4c-3.3,3.3-5.3,5.1-8.9,7.6C174.7,44.7,167.3,46.2,164.1,48"/>
	<path fill="#BCBEC0" d="M165.4,55.8c-3.9,1.2-8.3,1.9-13.5,2.4c-2.1,0.2-4.3,0.3-6.9,0.4l-6.9,0.3c-17.3,0.8-34.4,1.7-53.4,2.7v4.1
		c18.1-1.4,35.8-2.8,53.5-4.1l6.9-0.5c2.7-0.2,4.9-0.4,7-0.6c5.3-0.6,9.8-1.5,13.8-2.8c4.4-1.4,8.8-3.5,12.9-6.1
		c3-1.9,6.1-4.3,9.2-7v-0.1c-3.5,3-6.8,3.6-10,5.7C173.9,52.6,169.7,54.5,165.4,55.8"/>
	<path fill="#BCBEC0" d="M164.7,62.5c-3.9,0.9-8.2,1.5-13.5,1.9c-2,0.1-4.2,0.2-6.8,0.3l-6.9,0.2c-17.3,0.7-34.9,1.4-52.9,2.2v4.1
		c17.8-1.2,35.3-2.4,53-3.5l6.9-0.4c2.7-0.2,4.9-0.3,6.9-0.5c5.3-0.5,9.7-1.2,13.7-2.3c4.5-1.2,8.9-2.9,13.1-5.1
		c3.2-1.7,6.4-3.8,9.7-6.3v-1.7c-3.6,2.6-7,4.8-10.5,6.5C173.5,59.9,169.1,61.5,164.7,62.5"/>
	<path fill="#BCBEC0" d="M164.1,69.1c-4,0.7-8.2,1.2-13.4,1.5c-2,0.1-4,0.2-6.8,0.2l-59.2,1.6v4.1l52.5-2.8l6.8-0.3
		c2.7-0.1,4.8-0.3,6.8-0.4c5.3-0.4,9.6-1,13.6-1.8c4.6-1,9-2.4,13.2-4.2c3.4-1.4,6.8-3.2,10.3-5.4V60c-3.8,2.2-7.3,4-10.9,5.4
		C173,67.1,168.6,68.3,164.1,69.1"/>
	<path fill="#BCBEC0" d="M163.7,75.8c-7.3,1-14.8,1.1-22,1.2c-1.7,0-3.3,0-5,0.1l-52,0.9v4.1l52.1-2.3c1.7-0.1,3.3-0.1,5-0.2
		c7.3-0.3,14.8-0.6,22.2-1.8c4.7-0.7,9.2-1.8,13.3-3.3c3.5-1.2,7.1-2.7,10.7-4.5v-1.6c-3.8,1.8-7.6,3.3-11.2,4.4
		C172.7,74.2,168.2,75.2,163.7,75.8"/>
	<path fill="#BCBEC0" d="M163.3,82.5c-6.8,0.6-13.8,0.6-20.5,0.6c-2.1,0-4.2,0-6.3,0c-17.2,0.1-34.3,0.2-51.7,0.4v4.1
		c16.6-0.6,34.2-1.2,51.8-1.7c2.1-0.1,4.2-0.1,6.3-0.2c6.8-0.2,13.8-0.4,20.7-1.1c4.8-0.5,9.2-1.3,13.4-2.3
		c3.7-0.9,7.4-2.1,11.2-3.6v-1.5c-3.9,1.4-7.8,2.6-11.5,3.4C172.3,81.4,168,82.1,163.3,82.5"/>
	<path fill="#BCBEC0" d="M163,89.1c-2.8,0.1-5.9,0.2-9.4,0.2c-1.3,0-2.6,0-3.9,0L136.3,89C127.1,89,118,89,109.5,89l-24.7,0V93
		l24.8-0.7c8.5-0.2,17.7-0.4,26.8-0.6l13.4-0.2c3.7-0.1,8.5-0.2,13.4-0.5c4.8-0.3,9.2-0.8,13.4-1.5c3.8-0.6,7.6-1.4,11.5-2.4v-1.4
		c-4,0.9-7.9,1.7-11.7,2.2C172.1,88.5,167.8,88.9,163,89.1"/>
	<path fill="#BCBEC0" d="M149.5,95.4l-13.4-0.1c-17-0.2-34.1-0.6-51.4-0.9v4.1c16.6-0.1,34.1-0.2,51.4-0.4l13.4-0.2
		c4.5-0.1,8.9-0.2,13.4-0.3c9.2-0.3,17.4-1,25.1-2v-1.4c-7.7,0.8-16,1.3-25.1,1.3C158.4,95.5,154,95.5,149.5,95.4"/>
	<polygon fill="#BCBEC0" points="188,102.6 84.7,100 84.7,104 188,104 	"/>
	<path fill="#BCBEC0" d="M178.7,34.5c-3.9,3.2-7,5.5-11.8,7.4c-4.2,1.7-8.7,2.4-13.8,3.1c-3.3,0.5-6.8,1.2-10.1,1.4
		c-1.4,0.1-2.7,0.2-4.1,0.3l-54.3,4v4.1l54.5-5.3l7.1-0.7c2.6-0.3,4.9-0.5,7.1-0.9c5.3-0.9,9.8-2.2,13.9-4c4.2-1.9,8.5-5,12.5-8.4
		c2.7-2.3,5.3-5.2,8.2-8.4v-1.5C184.6,29.2,181.7,32.1,178.7,34.5"/>
	<path fill="#BCBEC0" d="M232,0c0,0,18.6,29.7,22,35.2c3.4,5.4,7.3,9.8,21,12.7c13.8,2.9,19.7,4.3,19.7,4.3v1.1c0,0-8.7-1.9-20-4.4
		c-11.2-2.5-15.8-3.4-21-10.5C249.5,32.3,232,7,232,7V0z"/>
	<path fill="#BCBEC0" d="M232,33.9c0,0,16.9,17.8,21.8,22.9c5.2,5.4,11.8,7.4,21.1,9.1c8.8,1.6,19.9,3.4,19.9,3.4v1
		c0,0-10.4-1.7-19.9-3.3c-9.3-1.6-15.8-2.5-21.1-7.4c-4.8-4.4-21.8-20.4-21.8-20.4V33.9z"/>
	<path fill="#BCBEC0" d="M232,41.9c0,0,16.1,15,21.8,20.1c5.3,4.7,9.5,6.2,21.1,8.2c11.6,2.1,19.8,3.3,19.8,3.3v1.1
		c0,0-10.5-1.7-19.9-3.2c-9.4-1.5-15.4-2.1-21.1-6.7c-6.5-5.3-21.8-17.9-21.8-17.9V41.9z"/>
	<path fill="#BCBEC0" d="M232,50.5c0,0,18.4,14.6,21.8,17.2c3.4,2.6,8,5.5,21.2,7.5C288,77,294.7,78,294.7,78v1.1
		c0,0-11.9-1.7-19.8-2.7c-7.9-1-14-1.4-21.1-6.2C246.9,65.6,232,55,232,55V50.5z"/>
	<path fill="#BCBEC0" d="M232,58.7c0,0,18.4,12.3,21.9,14.3c3.5,1.9,7.6,5.1,21.1,6.8c13.5,1.7,19.8,2.5,19.8,2.5v1.1
		c0,0-11.1-1.2-19.8-2.2c-8.7-0.9-14.6-2.2-21.1-5.8c-6.5-3.6-21.8-12.6-21.8-12.6V58.7z"/>
	<path fill="#BCBEC0" d="M232,66.9c0,0,16.3,8.9,21.8,11.7c6.2,3.1,11.5,4.6,21.1,5.7c9.5,1.1,19.8,2.2,19.8,2.2v1c0,0-9.6-1-19.8-2
		c-10.2-1-13.8-1.4-21.1-4.7c-6.6-2.9-21.8-10.1-21.8-10.1V66.9z"/>
	<path fill="#BCBEC0" d="M232,75.2c0,0,12.9,5.5,21.9,9.1c8.9,3.5,15.7,3.8,21.1,4.5c2.4,0.3,19.7,2.1,19.7,2.1v1
		c0,0-10.4-0.8-19.8-1.7c-9.4-0.8-13.5-1.2-21.1-3.7C246.1,83.9,232,79,232,79V75.2z"/>
	<path fill="#BCBEC0" d="M232,83.7c0,0,13,4,21.9,6.4c8.9,2.3,17,3.3,21.1,3.6c4.1,0.3,19.8,1.6,19.8,1.6v0.9c0,0-8.9-0.6-19.8-1.4
		c-8.8-0.6-15.9-1.3-21.1-2.4c-5.8-1.3-21.8-5.1-21.8-5.1V83.7z"/>
	<path fill="#BCBEC0" d="M232,92.1c0,0,10.6,1.8,21.9,3.7c8.4,1.4,19.8,2.3,21.1,2.3c1.2,0.1,19.8,1.3,19.8,1.3v1
		c0,0-11.9-0.6-19.8-1.1c-8.3-0.5-16.5-1-21.1-1.4c-10.4-1.1-21.8-2.5-21.8-2.5V92.1z"/>
	<path fill="#BCBEC0" d="M232,100.7c0,0,16.8,0.6,21.9,0.7c5.1,0.1,40.9,1.6,40.9,1.6v1H232V100.7z"/>
	<path fill="#BCBEC0" d="M274.9,52.4c-15.2-3.3-18.6-8.9-21.2-12.3C251.2,36.7,232,8.5,232,8.5v6.4c0.8,1,17.2,22.6,21.8,28.5
		c5.2,6.7,13.4,8.2,21.1,9.9c7.8,1.7,19.8,4,19.8,4v-0.9C294.7,56.4,278.8,53.3,274.9,52.4"/>
	<path fill="#BCBEC0" d="M274.9,56.9c-12.5-2.4-17.5-6.4-21.2-11.2C250.1,40.9,232,17,232,17v6c0.8,0.9,17.3,20.6,21.8,25.7
		c5.2,6,12.4,7.5,21.2,9.1c8.8,1.6,19.8,3.7,19.8,3.7v-0.9C294.7,60.7,282.1,58.3,274.9,56.9"/>
	<path fill="#BCBEC0" d="M274.9,61.5c-13-2.5-15.6-4.6-21.1-10.6c-3.4-3.8-21.1-24.7-21.8-25.5v5.6c0,0,16.5,17.6,21.8,22.8
		c6.9,6.8,13.5,7.3,21.2,8.7c7.7,1.4,19.8,3.6,19.8,3.6v-0.9C294.7,65.1,280.1,62.5,274.9,61.5"/>
	<rect x="127.6" y="43.3" fill="#0D4F9E" width="90.5" height="60.7"/>
	<polygon fill="#FAEA27" points="173.9,51.9 177,51.9 174.5,53.9 175.5,57 172.9,55.1 170.4,57 171.4,53.9 168.8,51.9 172,51.9 
		172.9,48.8 	"/>
	<polygon fill="#FAEA27" points="174,92.4 177.1,92.4 174.6,94.3 175.6,97.3 173.1,95.5 170.5,97.3 171.5,94.3 169,92.4 172.1,92.4 
		173.1,89.4 	"/>
	<polygon fill="#FAEA27" points="184,89.7 187.1,89.7 184.6,91.6 185.6,94.7 183,92.8 180.5,94.7 181.5,91.6 178.9,89.7 182.1,89.7 
		183,86.8 	"/>
	<polygon fill="#FAEA27" points="184,54.6 187.1,54.6 184.6,56.5 185.6,59.5 183,57.7 180.5,59.5 181.5,56.5 178.9,54.6 182.1,54.6 
		183,51.6 	"/>
	<polygon fill="#FAEA27" points="191.4,62 194.5,62 192,63.9 193,67 190.4,65.1 187.9,67 188.9,63.9 186.4,62 189.5,62 190.4,59.1 	
		"/>
	<polygon fill="#FAEA27" points="191.4,82.4 194.5,82.4 192,84.3 193,87.3 190.4,85.5 187.9,87.3 188.9,84.3 186.4,82.4 189.5,82.4 
		190.4,79.4 	"/>
	<polygon fill="#FAEA27" points="194.2,72.1 197.3,72.1 194.8,74 195.8,77 193.2,75.1 190.7,77 191.7,74 189.1,72.1 192.3,72.1 
		193.2,69.1 	"/>
	<polygon fill="#FAEA27" points="163.7,54.6 166.8,54.6 164.3,56.5 165.3,59.6 162.8,57.7 160.2,59.6 161.2,56.5 158.7,54.6 
		161.8,54.6 162.8,51.7 	"/>
	<polygon fill="#FAEA27" points="156.5,62.1 159.6,62.1 157.1,64 158.1,67 155.6,65.1 153,67 154,64 151.5,62.1 154.6,62.1 
		155.6,59.1 	"/>
	<polygon fill="#FAEA27" points="153.8,72.1 157,72.1 154.4,74 155.4,77 152.9,75.2 150.3,77 151.3,74 148.8,72.1 151.9,72.1 
		152.9,69.1 	"/>
	<polygon fill="#FAEA27" points="156.5,82.4 159.6,82.4 157.1,84.3 158.1,87.4 155.6,85.5 153,87.4 154,84.3 151.5,82.4 154.6,82.4 
		155.6,79.5 	"/>
	<polygon fill="#FAEA27" points="163.8,89.7 166.9,89.7 164.4,91.7 165.4,94.7 162.9,92.8 160.3,94.7 161.3,91.7 158.8,89.7 
		161.9,89.7 162.9,86.8 	"/>
</g>
</svg>
