<?xml version="1.0" encoding="utf-8"?>
<!-- Generator: Adobe Illustrator 18.1.1, SVG Export Plug-In . SVG Version: 6.00 Build 0)  -->
<svg version="1.1" id="Layer_1" xmlns="http://www.w3.org/2000/svg" xmlns:xlink="http://www.w3.org/1999/xlink" x="0px" y="0px"
	 viewBox="0 0 324 161.6" enable-background="new 0 0 324 161.6" xml:space="preserve">
<g>
	<path fill="#404040" d="M0,141.2c0-1.7,0.1-3.4,0.4-5c0.3-1.7,0.8-3.1,1.6-4.4c0.8-1.3,1.9-2.3,3.3-3.1c1.4-0.8,3.2-1.2,5.5-1.2
		c0.5,0,1,0,1.7,0.1c0.6,0,1.3,0.1,1.9,0.2c0.7,0.1,1.3,0.2,2,0.4c0.6,0.1,1.2,0.3,1.8,0.5c0.3,0.1,0.5,0.3,0.7,0.5
		c0.1,0.2,0.2,0.4,0.1,0.8l-0.4,1.6c-0.1,0.2-0.1,0.4-0.3,0.5c-0.1,0.1-0.4,0.1-0.8,0.1c-1-0.1-2-0.3-3.2-0.4
		c-1.1-0.1-2.2-0.2-3.3-0.2c-1.4,0-2.5,0.3-3.3,0.8c-0.8,0.5-1.5,1.2-1.9,2.1s-0.7,1.9-0.9,3.1c-0.1,1.2-0.2,2.4-0.2,3.7
		c0,1.3,0.1,2.5,0.2,3.7c0.2,1.1,0.5,2.1,0.9,3c0.5,0.8,1.1,1.5,1.9,2s1.9,0.7,3.2,0.7c1.2,0,2.3-0.1,3.3-0.2c1-0.1,2.1-0.2,3.2-0.4
		c0.4-0.1,0.6,0,0.8,0.1c0.1,0.1,0.2,0.3,0.3,0.6l0.3,1.5c0.2,0.6-0.1,1-0.7,1.3c-0.5,0.2-1,0.4-1.7,0.5c-0.7,0.1-1.3,0.3-2,0.4
		c-0.7,0.1-1.3,0.2-2,0.2c-0.7,0-1.2,0.1-1.7,0.1c-2.2,0-4.1-0.4-5.5-1.1c-1.4-0.8-2.5-1.8-3.3-3c-0.8-1.3-1.3-2.7-1.6-4.3
		C0.1,144.5,0,142.9,0,141.2z"/>
	<path fill="#404040" d="M39.1,144.1c0,1.1-0.1,2.3-0.2,3.6c-0.1,1.2-0.5,2.4-1.1,3.4c-0.6,1-1.5,1.9-2.6,2.5c-1.2,0.7-2.8,1-4.9,1
		c-2,0-3.6-0.3-4.7-1c-1.1-0.7-2-1.5-2.6-2.5c-0.6-1-0.9-2.2-1.1-3.4c-0.1-1.2-0.2-2.4-0.2-3.6c0-0.9,0.1-2,0.3-3.1
		c0.2-1.1,0.6-2.2,1.1-3.2c0.6-1,1.4-1.8,2.6-2.5c1.1-0.7,2.7-1,4.6-1c1.9,0,3.5,0.3,4.6,0.9c1.2,0.6,2,1.4,2.7,2.3
		c0.6,0.9,1,2,1.2,3.2C39,141.7,39.1,142.9,39.1,144.1z M34.7,144.4c0-1.1-0.1-2-0.2-2.8c-0.1-0.8-0.3-1.4-0.6-2
		c-0.3-0.5-0.8-0.9-1.3-1.2s-1.3-0.4-2.2-0.4c-0.9,0-1.5,0.1-2.1,0.4c-0.5,0.3-1,0.7-1.3,1.2c-0.3,0.5-0.5,1.2-0.6,2
		c-0.1,0.8-0.2,1.7-0.2,2.7c0,1.1,0.1,2,0.2,2.8c0.1,0.8,0.3,1.4,0.6,2c0.3,0.5,0.7,0.9,1.2,1.2c0.5,0.3,1.2,0.4,2.1,0.4
		c0.9,0,1.6-0.1,2.2-0.4c0.6-0.3,1-0.6,1.3-1.2c0.3-0.5,0.5-1.2,0.6-2C34.6,146.4,34.7,145.4,34.7,144.4z"/>
	<path fill="#404040" d="M71.6,154c-0.1,0.1-0.3,0.2-0.6,0.2h-2.9c-0.5,0-0.8-0.3-0.8-0.8v-11.4c0-1.5-0.2-2.5-0.6-3
		c-0.4-0.5-1.1-0.8-2.1-0.8c-0.4,0-0.8,0.1-1.3,0.2c-0.5,0.1-0.9,0.3-1.4,0.5c-0.5,0.2-0.9,0.4-1.3,0.6c-0.4,0.2-0.8,0.4-1.1,0.6
		c0,0.2,0,0.5,0,0.8c0,0.3,0,0.7,0,1.2v11.3c0,0.2-0.1,0.4-0.2,0.6c-0.1,0.1-0.3,0.2-0.6,0.2h-2.9c-0.5,0-0.7-0.3-0.7-0.8v-11.6
		c0-1.2-0.2-2.1-0.6-2.7c-0.4-0.6-1.1-0.9-2.1-0.9c-0.3,0-0.7,0.1-1.2,0.2s-0.9,0.3-1.4,0.4c-0.5,0.2-0.9,0.4-1.4,0.6
		c-0.5,0.2-0.9,0.4-1.2,0.6v13.4c0,0.5-0.3,0.8-0.8,0.8h-2.9c-0.5,0-0.7-0.3-0.7-0.8v-18c0-0.5,0.2-0.8,0.7-0.8h2.8
		c0.5,0,0.8,0.3,0.8,0.8v1.2l0,0c0.4-0.3,0.8-0.5,1.3-0.8c0.5-0.3,0.9-0.5,1.5-0.7c0.5-0.2,1-0.4,1.6-0.5c0.5-0.1,1.1-0.2,1.6-0.3
		c1.1,0,2.2,0.2,3.1,0.5c0.9,0.4,1.7,1.1,2.3,2.3c1-0.7,2.1-1.4,3.3-2c1.2-0.6,2.4-0.8,3.7-0.8c1.3,0,2.3,0.2,3.1,0.6
		c0.8,0.4,1.4,0.9,1.8,1.6c0.4,0.7,0.7,1.5,0.8,2.4c0.1,0.9,0.2,1.9,0.2,2.8v11.8C71.7,153.7,71.7,153.9,71.6,154z"/>
	<path fill="#404040" d="M81.2,129.4c0,0.3,0,0.6-0.1,0.9c-0.1,0.3-0.2,0.5-0.3,0.7c-0.2,0.2-0.4,0.4-0.7,0.5
		c-0.3,0.1-0.7,0.2-1.2,0.2c-0.5,0-1-0.1-1.3-0.2c-0.3-0.1-0.5-0.3-0.7-0.5c-0.2-0.2-0.3-0.5-0.3-0.7c-0.1-0.3-0.1-0.6-0.1-0.9
		c0-0.6,0.2-1.2,0.5-1.6c0.3-0.4,0.9-0.7,1.9-0.7c1,0,1.6,0.2,1.9,0.6C81.1,128.2,81.2,128.7,81.2,129.4z M81,153.4
		c0,0.2,0,0.4-0.1,0.5c-0.1,0.1-0.3,0.2-0.6,0.2h-2.8c-0.5,0-0.8-0.3-0.8-0.8v-18.1c0-0.5,0.3-0.8,0.8-0.8h2.8
		c0.3,0,0.5,0.1,0.6,0.2c0.1,0.1,0.1,0.3,0.1,0.5V153.4z"/>
	<path fill="#404040" d="M100.6,148.3c0,1.2-0.2,2.2-0.7,2.9c-0.5,0.8-1.1,1.4-1.8,1.9c-0.8,0.5-1.6,0.8-2.6,1c-1,0.2-2,0.3-3,0.3
		c-1,0-2.1-0.1-3.3-0.2c-1.2-0.1-2.1-0.4-2.9-0.7c-0.4-0.2-0.7-0.3-0.8-0.5c-0.1-0.2-0.1-0.5-0.1-0.8l0.3-1.3
		c0.1-0.3,0.2-0.5,0.3-0.6c0.2-0.1,0.4-0.1,0.7,0c0.4,0.1,0.9,0.1,1.4,0.2c0.5,0.1,1,0.1,1.6,0.1s1,0.1,1.5,0.1c0.5,0,0.9,0,1.2,0
		c1.3,0,2.2-0.2,2.8-0.5c0.6-0.4,0.8-0.9,0.8-1.7c0-0.5,0-0.8-0.1-1.1c-0.1-0.3-0.3-0.5-0.5-0.7c-0.2-0.2-0.6-0.3-1-0.5
		c-0.4-0.1-0.9-0.2-1.6-0.3c-1-0.1-1.9-0.3-2.8-0.5c-0.9-0.2-1.7-0.5-2.3-0.9c-0.7-0.4-1.2-1-1.6-1.6c-0.4-0.7-0.6-1.6-0.6-2.7
		c0-2,0.7-3.5,2.1-4.5c1.4-1,3.2-1.5,5.4-1.5c0.4,0,0.9,0,1.4,0c0.5,0,1.1,0.1,1.6,0.2c0.5,0.1,1.1,0.2,1.6,0.3
		c0.5,0.1,1,0.2,1.4,0.4c0.7,0.3,0.9,0.7,0.8,1.2l-0.3,1.4c-0.1,0.3-0.2,0.5-0.3,0.5c-0.1,0.1-0.4,0.1-0.8,0
		c-0.9-0.1-1.8-0.2-2.8-0.3c-1-0.1-1.9-0.1-2.6-0.1c-1.3,0-2.1,0.2-2.5,0.5c-0.4,0.4-0.6,0.9-0.6,1.7c0,0.8,0.3,1.3,0.8,1.5
		c0.5,0.2,1.4,0.5,2.6,0.6c1,0.1,1.9,0.3,2.7,0.5c0.9,0.2,1.6,0.5,2.3,1c0.7,0.4,1.2,1,1.6,1.7C100.4,146.2,100.6,147.1,100.6,148.3
		z"/>
	<path fill="#404040" d="M118.9,148.3c0,1.2-0.2,2.2-0.7,2.9c-0.5,0.8-1.1,1.4-1.8,1.9c-0.8,0.5-1.6,0.8-2.6,1c-1,0.2-2,0.3-3,0.3
		c-1,0-2.1-0.1-3.3-0.2c-1.2-0.1-2.1-0.4-2.9-0.7c-0.4-0.2-0.7-0.3-0.8-0.5c-0.1-0.2-0.1-0.5-0.1-0.8l0.3-1.3
		c0.1-0.3,0.2-0.5,0.3-0.6c0.2-0.1,0.4-0.1,0.7,0c0.4,0.1,0.9,0.1,1.4,0.2c0.5,0.1,1,0.1,1.6,0.1s1,0.1,1.5,0.1c0.5,0,0.9,0,1.2,0
		c1.3,0,2.2-0.2,2.8-0.5c0.6-0.4,0.8-0.9,0.8-1.7c0-0.5,0-0.8-0.1-1.1c-0.1-0.3-0.3-0.5-0.5-0.7c-0.2-0.2-0.6-0.3-1-0.5
		c-0.4-0.1-0.9-0.2-1.6-0.3c-1-0.1-1.9-0.3-2.8-0.5c-0.9-0.2-1.7-0.5-2.3-0.9c-0.7-0.4-1.2-1-1.6-1.6c-0.4-0.7-0.6-1.6-0.6-2.7
		c0-2,0.7-3.5,2.1-4.5c1.4-1,3.2-1.5,5.4-1.5c0.4,0,0.9,0,1.4,0c0.5,0,1.1,0.1,1.6,0.2c0.5,0.1,1.1,0.2,1.6,0.3
		c0.5,0.1,1,0.2,1.4,0.4c0.7,0.3,0.9,0.7,0.8,1.2l-0.3,1.4c-0.1,0.3-0.2,0.5-0.3,0.5c-0.1,0.1-0.4,0.1-0.8,0
		c-0.9-0.1-1.8-0.2-2.8-0.3c-1-0.1-1.9-0.1-2.6-0.1c-1.3,0-2.1,0.2-2.5,0.5c-0.4,0.4-0.6,0.9-0.6,1.7c0,0.8,0.3,1.3,0.8,1.5
		c0.5,0.2,1.4,0.5,2.6,0.6c1,0.1,1.9,0.3,2.7,0.5c0.9,0.2,1.6,0.5,2.3,1c0.7,0.4,1.2,1,1.6,1.7C118.7,146.2,118.9,147.1,118.9,148.3
		z"/>
	<path fill="#404040" d="M135,151.9c-1,0.8-2.2,1.4-3.4,1.9c-1.3,0.5-2.6,0.7-3.9,0.7c-1.1,0-2-0.1-2.7-0.4
		c-0.7-0.3-1.3-0.7-1.7-1.2c-0.4-0.5-0.7-1.1-0.9-1.8c-0.2-0.7-0.3-1.5-0.3-2.3c0-2.3,0.6-4,1.8-5.1c1.3-1.1,3.1-1.6,5.7-1.6h5.1v-1
		c0-0.6-0.1-1.1-0.2-1.5c-0.1-0.4-0.3-0.8-0.7-1c-0.3-0.3-0.7-0.5-1.3-0.6c-0.5-0.1-1.2-0.2-2-0.2c-0.3,0-0.7,0-1.2,0
		c-0.5,0-0.9,0.1-1.4,0.1c-0.5,0-1,0.1-1.5,0.1c-0.5,0.1-0.9,0.1-1.3,0.1c-0.4,0.1-0.7,0.1-0.8,0c-0.1,0-0.2-0.2-0.3-0.5l-0.4-1.5
		c-0.1-0.3,0-0.5,0.1-0.7c0.1-0.2,0.4-0.3,0.8-0.5c0.4-0.2,0.9-0.3,1.5-0.4c0.6-0.1,1.2-0.2,1.8-0.3c0.6-0.1,1.2-0.1,1.8-0.2
		c0.6,0,1.1-0.1,1.6-0.1c1.7,0,3.1,0.2,4.1,0.5c1,0.3,1.8,0.8,2.3,1.5c0.5,0.6,0.9,1.4,1,2.3c0.2,0.9,0.2,1.9,0.2,3v7.7
		c0,0.4,0,0.7,0.1,0.9c0,0.2,0.1,0.4,0.2,0.5c0.1,0.1,0.2,0.2,0.4,0.3c0.2,0.1,0.4,0.1,0.8,0.1c0.3,0,0.5,0.1,0.6,0.2
		c0.1,0.1,0.2,0.2,0.2,0.4v1.7c0,0.5-0.3,0.7-1,0.8c-0.3,0.1-0.6,0.1-1,0.1s-0.6,0.1-0.9,0.1c-0.9,0-1.7-0.2-2.3-0.5
		C135.7,153.5,135.3,152.9,135,151.9L135,151.9z M134.6,132.3c-0.5,0-1-0.1-1.5-0.3c-0.5-0.2-1.1-0.4-1.7-0.7
		c-0.6-0.3-1.1-0.5-1.6-0.7c-0.5-0.2-1-0.3-1.4-0.3c-0.3,0-0.6,0.1-1,0.2c-0.4,0.2-0.8,0.6-1.2,1.3c-0.1,0.2-0.2,0.3-0.3,0.3
		c-0.1,0-0.3,0-0.5-0.1l-1.1-0.5c-0.3-0.1-0.4-0.4-0.2-0.8c0.5-1.4,1.2-2.4,2-3c0.8-0.6,1.6-0.8,2.4-0.8c0.5,0,1.1,0.1,1.6,0.3
		c0.6,0.2,1.1,0.4,1.7,0.7c0.5,0.2,1.1,0.5,1.5,0.7c0.5,0.2,0.9,0.3,1.3,0.3c0.9,0,1.5-0.5,2.1-1.5c0.1-0.2,0.2-0.3,0.3-0.3
		c0.1-0.1,0.3,0,0.5,0.1l1.1,0.5c0.2,0.1,0.3,0.2,0.3,0.3c0,0.1,0,0.3-0.1,0.4c-0.5,1.4-1.2,2.4-1.9,3
		C136.3,132,135.5,132.3,134.6,132.3z M134.8,145.3h-4.9c-1,0-1.8,0.2-2.4,0.7c-0.6,0.5-0.9,1.4-0.9,2.7c0,0.9,0.2,1.5,0.5,1.8
		c0.4,0.3,1,0.5,1.9,0.5c0.4,0,0.9-0.1,1.4-0.2c0.5-0.1,1-0.3,1.5-0.4c0.5-0.2,1-0.4,1.5-0.6c0.5-0.2,0.9-0.4,1.3-0.7V145.3z"/>
	<path fill="#404040" d="M161.2,144.1c0,1.1-0.1,2.3-0.2,3.6c-0.1,1.2-0.5,2.4-1.1,3.4c-0.6,1-1.5,1.9-2.6,2.5c-1.2,0.7-2.8,1-4.9,1
		c-2,0-3.6-0.3-4.7-1c-1.1-0.7-2-1.5-2.6-2.5c-0.6-1-0.9-2.2-1.1-3.4c-0.1-1.2-0.2-2.4-0.2-3.6c0-0.9,0.1-2,0.3-3.1
		c0.2-1.1,0.6-2.2,1.1-3.2c0.6-1,1.4-1.8,2.6-2.5c1.1-0.7,2.7-1,4.6-1c1.9,0,3.5,0.3,4.6,0.9c1.2,0.6,2,1.4,2.7,2.3
		c0.6,0.9,1,2,1.2,3.2C161.1,141.7,161.2,142.9,161.2,144.1z M156.8,144.4c0-1.1-0.1-2-0.2-2.8c-0.1-0.8-0.3-1.4-0.6-2
		c-0.3-0.5-0.8-0.9-1.3-1.2s-1.3-0.4-2.2-0.4c-0.9,0-1.5,0.1-2.1,0.4c-0.5,0.3-1,0.7-1.3,1.2c-0.3,0.5-0.5,1.2-0.6,2
		c-0.1,0.8-0.2,1.7-0.2,2.7c0,1.1,0.1,2,0.2,2.8c0.1,0.8,0.3,1.4,0.6,2c0.3,0.5,0.7,0.9,1.2,1.2c0.5,0.3,1.2,0.4,2.1,0.4
		c0.9,0,1.6-0.1,2.2-0.4c0.6-0.3,1-0.6,1.3-1.2c0.3-0.5,0.5-1.2,0.6-2C156.7,146.4,156.8,145.4,156.8,144.4z"/>
	<path fill="#404040" d="M177.1,128.4c0-0.5,0.3-0.8,0.8-0.8h14.7c0.5,0,0.8,0.3,0.8,0.8v2.5c0,0.5-0.3,0.7-0.8,0.7h-10.9v6.9h9.7
		c0.5,0,0.8,0.2,0.8,0.7v2.5c0,0.5-0.3,0.7-0.8,0.7h-9.7v7.9h11.2c0.5,0,0.7,0.3,0.7,0.8v2.4c0,0.5-0.3,0.7-0.8,0.7h-14.9
		c-0.5,0-0.8-0.2-0.8-0.7V128.4z"/>
	<path fill="#404040" d="M213.7,154.2h-2.8c-0.3,0-0.5-0.1-0.6-0.2c-0.1-0.1-0.2-0.3-0.2-0.6v-1.2l-0.1,0c-0.4,0.3-0.9,0.5-1.4,0.8
		c-0.5,0.3-1.1,0.5-1.7,0.8c-0.6,0.2-1.2,0.4-1.8,0.6c-0.6,0.1-1.2,0.2-1.9,0.2c-1.4,0-2.4-0.2-3.2-0.6c-0.8-0.4-1.4-0.9-1.8-1.6
		s-0.7-1.5-0.8-2.4c-0.1-0.9-0.2-1.9-0.2-2.9v-11.8c0-0.5,0.3-0.8,0.8-0.8h2.9c0.5,0,0.7,0.3,0.7,0.8v11.2c0,0.6,0,1.2,0.1,1.6
		c0.1,0.5,0.2,0.9,0.4,1.2c0.2,0.3,0.5,0.6,0.9,0.8c0.4,0.2,0.9,0.3,1.5,0.3c0.4,0,0.9-0.1,1.4-0.2c0.5-0.1,1-0.3,1.5-0.5
		c0.5-0.2,1-0.4,1.4-0.6c0.4-0.2,0.8-0.4,1-0.5v-13.4c0-0.2,0.1-0.4,0.2-0.6c0.1-0.1,0.3-0.2,0.6-0.2h2.8c0.5,0,0.8,0.3,0.8,0.8v18
		C214.5,153.9,214.2,154.2,213.7,154.2z"/>
	<path fill="#404040" d="M223.9,153.4c0,0.5-0.3,0.8-0.8,0.8h-2.9c-0.5,0-0.8-0.3-0.8-0.8v-18c0-0.5,0.3-0.8,0.8-0.8h2.9
		c0.5,0,0.8,0.3,0.8,0.8v1.8l0.1,0.1c0.3-0.3,0.7-0.6,1.2-0.9c0.5-0.3,1-0.6,1.5-0.8c0.5-0.3,1.1-0.5,1.7-0.7
		c0.6-0.2,1.1-0.4,1.6-0.4c0.3-0.1,0.5,0,0.6,0c0.2,0.1,0.3,0.3,0.3,0.6l0.3,2.7c0,0.3,0,0.5,0,0.6c-0.1,0.1-0.3,0.2-0.7,0.3
		c-0.6,0.1-1.1,0.2-1.8,0.4c-0.6,0.1-1.2,0.3-1.8,0.5c-0.6,0.2-1.1,0.3-1.6,0.5c-0.5,0.2-0.9,0.3-1.3,0.5V153.4z"/>
	<path fill="#404040" d="M250.3,144.1c0,1.1-0.1,2.3-0.2,3.6c-0.1,1.2-0.5,2.4-1.1,3.4c-0.6,1-1.5,1.9-2.6,2.5c-1.2,0.7-2.8,1-4.9,1
		c-2,0-3.6-0.3-4.7-1c-1.1-0.7-2-1.5-2.6-2.5c-0.6-1-0.9-2.2-1.1-3.4c-0.1-1.2-0.2-2.4-0.2-3.6c0-0.9,0.1-2,0.3-3.1
		c0.2-1.1,0.6-2.2,1.1-3.2c0.6-1,1.4-1.8,2.6-2.5s2.7-1,4.6-1c1.9,0,3.5,0.3,4.6,0.9c1.2,0.6,2,1.4,2.7,2.3c0.6,0.9,1,2,1.2,3.2
		C250.2,141.7,250.3,142.9,250.3,144.1z M245.8,144.4c0-1.1-0.1-2-0.2-2.8c-0.1-0.8-0.3-1.4-0.6-2s-0.8-0.9-1.3-1.2
		c-0.6-0.3-1.3-0.4-2.2-0.4c-0.9,0-1.5,0.1-2.1,0.4c-0.5,0.3-1,0.7-1.3,1.2c-0.3,0.5-0.5,1.2-0.6,2c-0.1,0.8-0.2,1.7-0.2,2.7
		c0,1.1,0.1,2,0.2,2.8c0.1,0.8,0.3,1.4,0.6,2c0.3,0.5,0.7,0.9,1.2,1.2c0.5,0.3,1.2,0.4,2.1,0.4c0.9,0,1.6-0.1,2.2-0.4
		c0.6-0.3,1-0.6,1.3-1.2s0.5-1.2,0.6-2S245.8,145.4,245.8,144.4z"/>
	<path fill="#404040" d="M271.5,144.3c0,1.6-0.1,3.1-0.4,4.4c-0.2,1.3-0.7,2.4-1.3,3.2c-0.6,0.9-1.4,1.5-2.4,2s-2.3,0.7-3.9,0.7
		c-0.7,0-1.4-0.1-2.3-0.2c-0.9-0.1-1.8-0.4-2.7-0.7l0,0v7c0,0.2,0,0.4-0.1,0.6c-0.1,0.2-0.3,0.2-0.6,0.2h-2.8
		c-0.3,0-0.5-0.1-0.6-0.2c-0.1-0.1-0.1-0.3-0.1-0.6v-25.4c0-0.5,0.3-0.8,0.8-0.8h2.8c0.3,0,0.5,0.1,0.6,0.2c0.1,0.1,0.1,0.3,0.1,0.6
		v1.2l0.1,0.1c0.3-0.2,0.8-0.5,1.3-0.8c0.5-0.3,1-0.5,1.6-0.8c0.6-0.2,1.1-0.4,1.7-0.6c0.6-0.2,1.2-0.2,1.8-0.2
		c1.3,0,2.4,0.2,3.2,0.7s1.5,1.2,2,2c0.5,0.9,0.8,1.9,1,3.1C271.4,141.4,271.5,142.8,271.5,144.3z M267,144.2c0-1.3-0.1-2.3-0.2-3.1
		c-0.1-0.8-0.3-1.4-0.6-1.8c-0.3-0.4-0.6-0.7-1-0.9c-0.4-0.1-0.8-0.2-1.4-0.2c-0.4,0-0.9,0.1-1.4,0.2c-0.5,0.1-1,0.3-1.5,0.5
		c-0.5,0.2-1,0.4-1.4,0.6c-0.4,0.2-0.8,0.4-1.1,0.6v10c0.9,0.3,1.7,0.4,2.5,0.5c0.7,0.1,1.4,0.1,2.1,0.1c0.7,0,1.3-0.1,1.8-0.3
		c0.5-0.2,0.9-0.6,1.2-1.1c0.3-0.5,0.5-1.2,0.7-2C266.9,146.5,267,145.5,267,144.2z"/>
	<path fill="#404040" d="M279.2,145.6c0,1,0.1,1.9,0.3,2.5c0.2,0.7,0.5,1.2,0.9,1.6c0.4,0.4,0.9,0.7,1.5,0.8
		c0.6,0.2,1.3,0.2,2.1,0.2c0.7,0,1.6-0.1,2.6-0.2c1-0.1,1.9-0.2,2.6-0.3c0.4-0.1,0.6,0,0.8,0c0.1,0.1,0.2,0.3,0.3,0.7l0.2,1.3
		c0.1,0.3,0,0.5,0,0.7c-0.1,0.2-0.3,0.4-0.7,0.5c-0.4,0.2-0.9,0.3-1.4,0.4c-0.5,0.1-1.1,0.2-1.7,0.3c-0.6,0.1-1.2,0.1-1.8,0.2
		c-0.6,0.1-1.1,0.1-1.6,0.1c-1.9,0-3.5-0.3-4.6-0.8s-2-1.3-2.6-2.2c-0.6-0.9-1-2-1.2-3.2c-0.2-1.2-0.3-2.5-0.3-3.8
		c0-1,0.1-2,0.2-3.2s0.5-2.3,1.1-3.4s1.4-1.9,2.6-2.6c1.1-0.7,2.7-1.1,4.6-1.1c1.8,0,3.2,0.3,4.3,0.8c1.1,0.5,2,1.2,2.6,2.1
		c0.6,0.8,1,1.8,1.3,2.9c0.2,1.1,0.4,2.2,0.4,3.2c0,0.7-0.1,1.3-0.4,1.8c-0.3,0.5-0.8,0.7-1.6,0.7H279.2z M283.2,137.8
		c-0.7,0-1.4,0.1-1.8,0.3c-0.5,0.2-0.9,0.5-1.2,0.9c-0.3,0.4-0.5,0.9-0.7,1.5c-0.1,0.6-0.2,1.3-0.3,2h7.9c0-0.6-0.1-1.2-0.2-1.8
		c-0.1-0.6-0.3-1.1-0.6-1.5c-0.3-0.4-0.7-0.8-1.2-1.1C284.7,138,284,137.8,283.2,137.8z"/>
	<path fill="#404040" d="M300.6,129.4c0,0.3,0,0.6-0.1,0.9c-0.1,0.3-0.2,0.5-0.3,0.7c-0.2,0.2-0.4,0.4-0.7,0.5
		c-0.3,0.1-0.7,0.2-1.2,0.2c-0.5,0-1-0.1-1.3-0.2c-0.3-0.1-0.5-0.3-0.7-0.5c-0.2-0.2-0.3-0.5-0.3-0.7c-0.1-0.3-0.1-0.6-0.1-0.9
		c0-0.6,0.2-1.2,0.5-1.6c0.3-0.4,0.9-0.7,1.9-0.7c1,0,1.6,0.2,1.9,0.6C300.4,128.2,300.6,128.7,300.6,129.4z M300.3,153.4
		c0,0.2,0,0.4-0.1,0.5c-0.1,0.1-0.3,0.2-0.6,0.2h-2.8c-0.5,0-0.8-0.3-0.8-0.8v-18.1c0-0.5,0.3-0.8,0.8-0.8h2.8
		c0.3,0,0.5,0.1,0.6,0.2c0.1,0.1,0.1,0.3,0.1,0.5V153.4z"/>
	<path fill="#404040" d="M317.6,151.9c-1,0.8-2.2,1.4-3.4,1.9s-2.6,0.7-3.9,0.7c-1.1,0-2-0.1-2.7-0.4c-0.7-0.3-1.3-0.7-1.7-1.2
		c-0.4-0.5-0.7-1.1-0.9-1.8c-0.2-0.7-0.3-1.5-0.3-2.3c0-2.3,0.6-4,1.8-5.1c1.3-1.1,3.1-1.6,5.7-1.6h5.1v-1c0-0.6-0.1-1.1-0.2-1.5
		c-0.1-0.4-0.3-0.8-0.7-1c-0.3-0.3-0.7-0.5-1.3-0.6c-0.5-0.1-1.2-0.2-2-0.2c-0.3,0-0.7,0-1.2,0c-0.5,0-0.9,0.1-1.4,0.1
		c-0.5,0-1,0.1-1.5,0.1c-0.5,0.1-0.9,0.1-1.3,0.1c-0.4,0.1-0.7,0.1-0.8,0c-0.1,0-0.2-0.2-0.3-0.5l-0.4-1.5c-0.1-0.3,0-0.5,0.1-0.7
		c0.1-0.2,0.4-0.3,0.8-0.5c0.4-0.2,0.9-0.3,1.5-0.4c0.6-0.1,1.2-0.2,1.8-0.3c0.6-0.1,1.2-0.1,1.8-0.2c0.6,0,1.1-0.1,1.6-0.1
		c1.7,0,3.1,0.2,4.1,0.5c1,0.3,1.8,0.8,2.3,1.5c0.5,0.6,0.9,1.4,1,2.3c0.2,0.9,0.2,1.9,0.2,3v7.7c0,0.4,0,0.7,0.1,0.9
		c0,0.2,0.1,0.4,0.2,0.5c0.1,0.1,0.2,0.2,0.4,0.3c0.2,0.1,0.4,0.1,0.8,0.1c0.3,0,0.5,0.1,0.6,0.2s0.2,0.2,0.2,0.4v1.7
		c0,0.5-0.3,0.7-1,0.8c-0.3,0.1-0.6,0.1-1,0.1s-0.6,0.1-0.9,0.1c-0.9,0-1.7-0.2-2.3-0.5C318.3,153.5,317.9,152.9,317.6,151.9
		L317.6,151.9z M317.4,145.3h-4.9c-1,0-1.8,0.2-2.4,0.7c-0.6,0.5-0.9,1.4-0.9,2.7c0,0.9,0.2,1.5,0.5,1.8c0.4,0.3,1,0.5,1.9,0.5
		c0.4,0,0.9-0.1,1.4-0.2c0.5-0.1,1-0.3,1.5-0.4s1-0.4,1.5-0.6c0.5-0.2,0.9-0.4,1.3-0.7V145.3z"/>
</g>
<g>
	<path fill="#BCBEC0" d="M73.1,38.4c0,0,62.2-8.1,64-8.4c2.7-0.4,5.1-1,7.3-1.6c5-1.4,9.7-3.5,13.8-6.3c3.9-2.7,7.6-6.5,11.2-10.8
		c2.3-2.7,4.7-6.2,7-9.6V0c-2.7,4-5.3,7.5-8,10.5c-3.6,4-7.4,7.4-11.2,9.8c-4,2.6-8.4,4.5-13.3,5.7c-2.2,0.6-4.5,1-7.1,1.4
		c-1.7,0.2-3.5,0.4-5.2,0.6c-0.7,0.1-58.4,6.3-58.4,6.3V38.4z"/>
	<path fill="#BCBEC0" d="M156.5,27.9c-3.9,2.3-8.4,3.9-13.4,4.9c-2.1,0.4-4.4,0.8-7.1,1.1c-1.6,0.2-3.1,0.3-4.7,0.4
		c-0.8,0.1-1.7,0.1-2.5,0.2c-19.1,1.7-38,3.6-55.8,5.3V44c17.9-2.2,37-4.5,56.1-6.7c0.8-0.1,1.7-0.2,2.5-0.3
		c1.6-0.2,3.1-0.3,4.7-0.6c2.7-0.4,5.1-0.8,7.3-1.3c5.2-1.2,9.8-3,13.9-5.5c4-2.4,7.6-5.8,11.4-10c2.4-2.6,5-6.3,7.5-9.7V8.5
		c-2.9,4-5.7,7.3-8.4,10.2C164.2,22.6,160.4,25.7,156.5,27.9"/>
	<path fill="#BCBEC0" d="M167.4,26.9c-3.8,3.5-7.8,6.3-11.8,8.2c-3.9,1.9-8.3,3.3-13.5,4.1c-2.1,0.4-4.4,0.6-7,0.9l-62.1,5.2v4.1
		l55.2-5.9l7.1-0.8c2.7-0.3,5-0.7,7.2-1.1c5.3-1,9.9-2.5,13.9-4.6c4.1-2.1,8.3-5.6,12.1-9.4c2.6-2.5,5.1-5.7,7.7-9.1v-1.4
		C173.3,21,170.4,24.2,167.4,26.9"/>
	<path fill="#BCBEC0" d="M152.4,48c-3.6,2-6.3,3.2-11.5,3.8c-3.1,0.3-6.3,0.5-9.4,0.7c-1.5,0.1-3,0.2-4.5,0.2
		c-9.4,0.5-18.6,1.1-28,1.8l-25.9,1.8v4.1l26.2-2.4c8.5-0.8,18.3-1.7,27.9-2.4l7-0.5c2.7-0.2,5-0.4,7-0.7c5.3-0.7,9.8-1.8,13.9-3.3
		c4.3-1.6,8.4-4.2,12.5-7.2c3.7-2.7,8.8-8,8.8-8.1v-1.4c-3.3,3.3-5.3,5.1-8.9,7.6C163.1,44.7,155.7,46.2,152.4,48"/>
	<path fill="#BCBEC0" d="M153.7,55.8c-3.9,1.2-8.3,1.9-13.5,2.4c-2.1,0.2-4.3,0.3-6.9,0.4l-6.9,0.3c-17.3,0.8-34.4,1.7-53.4,2.7v4.1
		c18.1-1.4,35.8-2.8,53.5-4.1l6.9-0.5c2.7-0.2,4.9-0.4,7-0.6c5.3-0.6,9.8-1.5,13.8-2.8c4.4-1.4,8.8-3.5,12.9-6.1
		c3-1.9,6.1-4.3,9.2-7v-0.1c-3.5,3-6.8,3.6-10,5.7C162.3,52.6,158.1,54.5,153.7,55.8"/>
	<path fill="#BCBEC0" d="M153.1,62.5c-3.9,0.9-8.2,1.5-13.5,1.9c-2,0.1-4.2,0.2-6.8,0.3l-6.9,0.2c-17.3,0.7-34.9,1.4-52.9,2.2v4.1
		c17.8-1.2,35.3-2.4,53-3.5l6.9-0.4c2.7-0.2,4.9-0.3,6.9-0.5c5.3-0.5,9.7-1.2,13.7-2.3c4.5-1.2,8.9-2.9,13.1-5.1
		c3.2-1.7,6.4-3.8,9.7-6.3v-1.7c-3.6,2.6-7,4.8-10.5,6.5C161.8,59.9,157.5,61.5,153.1,62.5"/>
	<path fill="#BCBEC0" d="M152.5,69.1c-4,0.7-8.2,1.2-13.4,1.5c-2,0.1-4,0.2-6.8,0.2l-59.2,1.6v4.1l52.5-2.8l6.8-0.3
		c2.7-0.1,4.8-0.3,6.8-0.4c5.3-0.4,9.6-1,13.6-1.8c4.6-1,9-2.4,13.2-4.2c3.4-1.4,6.8-3.2,10.3-5.4V60c-3.8,2.2-7.3,4-10.9,5.4
		C161.3,67.1,157,68.3,152.5,69.1"/>
	<path fill="#BCBEC0" d="M152,75.8c-7.3,1-14.8,1.1-22,1.2c-1.7,0-3.3,0-5,0.1l-52,0.9v4.1l52.1-2.3c1.7-0.1,3.3-0.1,5-0.2
		c7.3-0.3,14.8-0.6,22.2-1.8c4.7-0.7,9.2-1.8,13.3-3.3c3.5-1.2,7.1-2.7,10.7-4.5v-1.6c-3.8,1.8-7.6,3.3-11.2,4.4
		C161,74.2,156.6,75.2,152,75.8"/>
	<path fill="#BCBEC0" d="M151.6,82.5c-6.8,0.6-13.8,0.6-20.5,0.6c-2.1,0-4.2,0-6.3,0c-17.2,0.1-34.3,0.2-51.7,0.4v4.1
		c16.6-0.6,34.2-1.2,51.8-1.7c2.1-0.1,4.2-0.1,6.3-0.2c6.8-0.2,13.8-0.4,20.7-1.1c4.8-0.5,9.2-1.3,13.4-2.3
		c3.7-0.9,7.4-2.1,11.2-3.6v-1.5c-3.9,1.4-7.8,2.6-11.5,3.4C160.7,81.4,156.3,82.1,151.6,82.5"/>
	<path fill="#BCBEC0" d="M151.4,89.1c-2.8,0.1-5.9,0.2-9.4,0.2c-1.3,0-2.6,0-3.9,0L124.6,89C115.5,89,106.4,89,97.8,89l-24.7,0V93
		l24.8-0.7c8.5-0.2,17.7-0.4,26.8-0.6l13.4-0.2c3.7-0.1,8.5-0.2,13.4-0.5c4.8-0.3,9.2-0.8,13.4-1.5c3.8-0.6,7.6-1.4,11.5-2.4v-1.4
		c-4,0.9-7.9,1.7-11.7,2.2C160.4,88.5,156.1,88.9,151.4,89.1"/>
	<path fill="#BCBEC0" d="M137.9,95.4l-13.4-0.1c-17-0.2-34.1-0.6-51.4-0.9v4.1c16.6-0.1,34.1-0.2,51.4-0.4l13.4-0.2
		c4.5-0.1,8.9-0.2,13.4-0.3c9.2-0.3,17.4-1,25.1-2v-1.4c-7.7,0.8-16,1.3-25.1,1.3C146.8,95.5,142.3,95.5,137.9,95.4"/>
	<polygon fill="#BCBEC0" points="176.4,102.6 73.1,100 73.1,104 176.4,104 	"/>
	<path fill="#BCBEC0" d="M167.1,34.5c-3.9,3.2-7,5.5-11.8,7.4c-4.2,1.7-8.7,2.4-13.8,3.1c-3.3,0.5-6.8,1.2-10.1,1.4
		c-1.4,0.1-2.7,0.2-4.1,0.3l-54.3,4v4.1l54.5-5.3l7.1-0.7c2.6-0.3,4.9-0.5,7.1-0.9c5.3-0.9,9.8-2.2,13.9-4c4.2-1.9,8.5-5,12.5-8.4
		c2.7-2.3,5.3-5.2,8.2-8.4v-1.5C172.9,29.2,170.1,32.1,167.1,34.5"/>
	<path fill="#BCBEC0" d="M220.3,0c0,0,18.6,29.7,22,35.2c3.4,5.4,7.3,9.8,21,12.7c13.8,2.9,19.7,4.3,19.7,4.3v1.1
		c0,0-8.7-1.9-20-4.4c-11.2-2.5-15.8-3.4-21-10.5c-4.3-6-21.8-31.3-21.8-31.3V0z"/>
	<path fill="#BCBEC0" d="M220.3,33.9c0,0,16.9,17.8,21.8,22.9c5.2,5.4,11.8,7.4,21.1,9.1c8.8,1.6,19.9,3.4,19.9,3.4v1
		c0,0-10.4-1.7-19.9-3.3c-9.3-1.6-15.8-2.5-21.1-7.4c-4.8-4.4-21.8-20.4-21.8-20.4V33.9z"/>
	<path fill="#BCBEC0" d="M220.3,41.9c0,0,16.1,15,21.8,20.1c5.3,4.7,9.5,6.2,21.1,8.2c11.6,2.1,19.8,3.3,19.8,3.3v1.1
		c0,0-10.5-1.7-19.9-3.2c-9.4-1.5-15.4-2.1-21.1-6.7c-6.5-5.3-21.8-17.9-21.8-17.9V41.9z"/>
	<path fill="#BCBEC0" d="M220.3,50.5c0,0,18.4,14.6,21.8,17.2c3.4,2.6,8,5.5,21.2,7.5c13.1,1.9,19.8,2.8,19.8,2.8v1.1
		c0,0-11.9-1.7-19.8-2.7c-7.9-1-14-1.4-21.1-6.2c-6.9-4.6-21.9-15.2-21.9-15.2V50.5z"/>
	<path fill="#BCBEC0" d="M220.3,58.7c0,0,18.4,12.3,21.9,14.3c3.5,1.9,7.6,5.1,21.1,6.8c13.5,1.7,19.8,2.5,19.8,2.5v1.1
		c0,0-11.1-1.2-19.8-2.2c-8.7-0.9-14.6-2.2-21.1-5.8c-6.5-3.6-21.8-12.6-21.8-12.6V58.7z"/>
	<path fill="#BCBEC0" d="M220.3,66.9c0,0,16.3,8.9,21.8,11.7c6.2,3.1,11.5,4.6,21.1,5.7c9.5,1.1,19.8,2.2,19.8,2.2v1
		c0,0-9.6-1-19.8-2c-10.2-1-13.8-1.4-21.1-4.7c-6.6-2.9-21.8-10.1-21.8-10.1V66.9z"/>
	<path fill="#BCBEC0" d="M220.3,75.2c0,0,12.9,5.5,21.9,9.1c8.9,3.5,15.7,3.8,21.1,4.5c2.4,0.3,19.7,2.1,19.7,2.1v1
		c0,0-10.4-0.8-19.8-1.7c-9.4-0.8-13.5-1.2-21.1-3.7c-7.7-2.6-21.9-7.5-21.9-7.5V75.2z"/>
	<path fill="#BCBEC0" d="M220.3,83.7c0,0,13,4,21.9,6.4c8.9,2.3,17,3.3,21.1,3.6c4.1,0.3,19.8,1.6,19.8,1.6v0.9
		c0,0-8.9-0.6-19.8-1.4c-8.8-0.6-15.9-1.3-21.1-2.4c-5.8-1.3-21.8-5.1-21.8-5.1V83.7z"/>
	<path fill="#BCBEC0" d="M220.3,92.1c0,0,10.6,1.8,21.9,3.7c8.4,1.4,19.8,2.3,21.1,2.3c1.2,0.1,19.8,1.3,19.8,1.3v1
		c0,0-11.9-0.6-19.8-1.1c-8.3-0.5-16.5-1-21.1-1.4c-10.4-1.1-21.8-2.5-21.8-2.5V92.1z"/>
	<path fill="#BCBEC0" d="M220.3,100.7c0,0,16.8,0.6,21.9,0.7c5.1,0.1,40.9,1.6,40.9,1.6v1h-62.8V100.7z"/>
	<path fill="#BCBEC0" d="M263.2,52.4c-15.2-3.3-18.6-8.9-21.2-12.3c-2.5-3.5-21.8-31.6-21.8-31.6v6.4c0.8,1,17.2,22.6,21.8,28.5
		c5.2,6.7,13.4,8.2,21.1,9.9c7.8,1.7,19.8,4,19.8,4v-0.9C283.1,56.4,267.2,53.3,263.2,52.4"/>
	<path fill="#BCBEC0" d="M263.2,56.9c-12.5-2.4-17.5-6.4-21.2-11.2c-3.7-4.8-21.8-28.7-21.8-28.7v6c0.8,0.9,17.3,20.6,21.8,25.7
		c5.2,6,12.4,7.5,21.2,9.1c8.8,1.6,19.8,3.7,19.8,3.7v-0.9C283.1,60.7,270.4,58.3,263.2,56.9"/>
	<path fill="#BCBEC0" d="M263.2,61.5c-13-2.5-15.6-4.6-21.1-10.6c-3.4-3.8-21.1-24.7-21.8-25.5v5.6c0,0,16.5,17.6,21.8,22.8
		c6.9,6.8,13.5,7.3,21.2,8.7c7.7,1.4,19.8,3.6,19.8,3.6v-0.9C283.1,65.1,268.4,62.5,263.2,61.5"/>
	<rect x="116" y="43.3" fill="#0D4F9E" width="90.5" height="60.7"/>
	<polygon fill="#FAEA27" points="162.2,51.9 165.4,51.9 162.8,53.9 163.8,57 161.3,55.1 158.8,57 159.8,53.9 157.2,51.9 160.3,51.9 
		161.3,48.8 	"/>
	<polygon fill="#FAEA27" points="162.3,92.4 165.5,92.4 163,94.3 163.9,97.3 161.4,95.5 158.9,97.3 159.9,94.3 157.3,92.4 
		160.5,92.4 161.4,89.4 	"/>
	<polygon fill="#FAEA27" points="172.3,89.7 175.5,89.7 172.9,91.6 173.9,94.7 171.4,92.8 168.9,94.7 169.9,91.6 167.3,89.7 
		170.4,89.7 171.4,86.8 	"/>
	<polygon fill="#FAEA27" points="172.3,54.6 175.5,54.6 172.9,56.5 173.9,59.5 171.4,57.7 168.9,59.5 169.9,56.5 167.3,54.6 
		170.4,54.6 171.4,51.6 	"/>
	<polygon fill="#FAEA27" points="179.7,62 182.9,62 180.3,63.9 181.3,67 178.8,65.1 176.3,67 177.3,63.9 174.7,62 177.9,62 
		178.8,59.1 	"/>
	<polygon fill="#FAEA27" points="179.7,82.4 182.9,82.4 180.3,84.3 181.3,87.3 178.8,85.5 176.3,87.3 177.3,84.3 174.7,82.4 
		177.9,82.4 178.8,79.4 	"/>
	<polygon fill="#FAEA27" points="182.5,72.1 185.7,72.1 183.1,74 184.1,77 181.6,75.1 179.1,77 180.1,74 177.5,72.1 180.6,72.1 
		181.6,69.1 	"/>
	<polygon fill="#FAEA27" points="152,54.6 155.2,54.6 152.7,56.5 153.6,59.6 151.1,57.7 148.6,59.6 149.6,56.5 147,54.6 150.2,54.6 
		151.1,51.7 	"/>
	<polygon fill="#FAEA27" points="144.8,62.1 148,62.1 145.5,64 146.4,67 143.9,65.1 141.4,67 142.4,64 139.8,62.1 143,62.1 
		143.9,59.1 	"/>
	<polygon fill="#FAEA27" points="142.2,72.1 145.3,72.1 142.8,74 143.8,77 141.2,75.2 138.7,77 139.7,74 137.1,72.1 140.3,72.1 
		141.2,69.1 	"/>
	<polygon fill="#FAEA27" points="144.8,82.4 148,82.4 145.5,84.3 146.4,87.4 143.9,85.5 141.4,87.4 142.4,84.3 139.8,82.4 143,82.4 
		143.9,79.5 	"/>
	<polygon fill="#FAEA27" points="152.2,89.7 155.3,89.7 152.8,91.7 153.7,94.7 151.2,92.8 148.7,94.7 149.7,91.7 147.1,89.7 
		150.3,89.7 151.2,86.8 	"/>
</g>
</svg>
