<?xml version="1.0" encoding="utf-8"?>
<!-- Generator: Adobe Illustrator 18.0.0, SVG Export Plug-In . SVG Version: 6.00 Build 0)  -->
<!DOCTYPE svg PUBLIC "-//W3C//DTD SVG 1.1//EN" "http://www.w3.org/Graphics/SVG/1.1/DTD/svg11.dtd">
<svg version="1.1" id="Layer_1" xmlns="http://www.w3.org/2000/svg" xmlns:xlink="http://www.w3.org/1999/xlink" x="0px" y="0px"
	 viewBox="0 0 595.3 841.9" enable-background="new 0 0 595.3 841.9" xml:space="preserve">
<path fill="#006FB4" d="M297.6,123.3C132.7,123.3,0,256,0,420.9s132.7,297.6,297.6,297.6s297.6-132.7,297.6-297.6
	S460.9,123.3,297.6,123.3z M258.5,296.8c0-15.3,13.6-28.9,28.9-28.9h18.7c15.3,0,28.9,13.6,28.9,28.9v18.7
	c0,15.3-13.6,28.9-28.9,28.9h-18.7c-15.3,0-28.9-13.6-28.9-28.9V296.8z M374.2,574H221.1v-37.4h37.4V420.9h-37.4v-37.4h115.7v153.1
	h39.1V574H374.2z"/>
</svg>
