<?xml version="1.0" encoding="utf-8"?>
<!-- Generator: Adobe Illustrator 18.0.0, SVG Export Plug-In . SVG Version: 6.00 Build 0)  -->
<!DOCTYPE svg PUBLIC "-//W3C//DTD SVG 1.1//EN" "http://www.w3.org/Graphics/SVG/1.1/DTD/svg11.dtd">
<svg version="1.1" id="Layer_1" xmlns="http://www.w3.org/2000/svg" xmlns:xlink="http://www.w3.org/1999/xlink" x="0px" y="0px"
	 viewBox="0 0 595.3 841.9" enable-background="new 0 0 595.3 841.9" xml:space="preserve">
<path fill="#DA2131" d="M420.1,123.3H173.5L0,298.5v246.6l175.2,173.5h246.6l173.5-175.2V298.5L420.1,123.3z M336.8,426l61.2,61.2
	c3.4,3.4,3.4,8.5,0,11.9l-22.1,22.1c-3.4,3.4-8.5,3.4-11.9,0l-61.2-61.2c-3.4-3.4-8.5-3.4-11.9,0l-61.2,61.2
	c-3.4,3.4-8.5,3.4-11.9,0l-22.1-22.1c-3.4-3.4-3.4-8.5,0-11.9l61.2-61.2c3.4-3.4,3.4-8.5,0-11.9l-61.2-61.2c-3.4-3.4-3.4-8.5,0-11.9
	l22.1-22.1c3.4-3.4,8.5-3.4,11.9,0l61.2,61.2c3.4,3.4,8.5,3.4,11.9,0l61.2-61.2c3.4-3.4,8.5-3.4,11.9,0L398,341
	c3.4,3.4,3.4,8.5,0,11.9l-61.2,61.2C333.4,419.2,333.4,422.6,336.8,426z"/>
</svg>
