<?xml version="1.0" encoding="utf-8"?>
<!-- Generator: Adobe Illustrator 18.0.0, SVG Export Plug-In . SVG Version: 6.00 Build 0)  -->
<!DOCTYPE svg PUBLIC "-//W3C//DTD SVG 1.1//EN" "http://www.w3.org/Graphics/SVG/1.1/DTD/svg11.dtd">
<svg version="1.1" id="Layer_1" xmlns="http://www.w3.org/2000/svg" xmlns:xlink="http://www.w3.org/1999/xlink" x="0px" y="0px"
	 viewBox="0 0 595.3 841.9" enable-background="new 0 0 595.3 841.9" xml:space="preserve">
<path fill="#467A39" d="M297.6,123.3C132.7,123.3,0,256,0,420.9s132.7,297.6,297.6,297.6s297.6-132.7,297.6-297.6
	S462.6,123.3,297.6,123.3z M432,359.7L267,517.9c-3.4,3.4-8.5,3.4-11.9,0l-23.8-23.8c-3.4-3.4-8.5-8.5-11.9-11.9l-56.1-57.8
	c-1.7-1.7-1.7-3.4-1.7-6.8c0-1.7,1.7-3.4,1.7-5.1l25.5-22.1c1.7-1.7,3.4-1.7,6.8-1.7c1.7,0,5.1,0,6.8,1.7l52.7,56.1
	c3.4,3.4,8.5,3.4,11.9,0L394.6,324c3.4-3.4,8.5-3.4,11.9,0l23.8,23.8C435.4,351.2,435.4,356.3,432,359.7z"/>
</svg>
