<?xml version="1.0" encoding="UTF-8" standalone="no"?>
<!-- Generator: Adobe Illustrator 18.0.0, SVG Export Plug-In . SVG Version: 6.00 Build 0)  -->

<svg
   xmlns:dc="http://purl.org/dc/elements/1.1/"
   xmlns:cc="http://creativecommons.org/ns#"
   xmlns:rdf="http://www.w3.org/1999/02/22-rdf-syntax-ns#"
   xmlns:svg="http://www.w3.org/2000/svg"
   xmlns="http://www.w3.org/2000/svg"
   xmlns:sodipodi="http://sodipodi.sourceforge.net/DTD/sodipodi-0.dtd"
   xmlns:inkscape="http://www.inkscape.org/namespaces/inkscape"
   version="1.1"
   id="Layer_1"
   x="0px"
   y="0px"
   viewBox="0 0 13 13"
   enable-background="new 0 0 16 16"
   xml:space="preserve"
   inkscape:version="0.48.4 r9939"
   width="100%"
   height="100%"
   sodipodi:docname="Cross.svg"><metadata
   id="metadata9"><rdf:RDF><cc:Work
       rdf:about=""><dc:format>image/svg+xml</dc:format><dc:type
         rdf:resource="http://purl.org/dc/dcmitype/StillImage" /></cc:Work></rdf:RDF></metadata><defs
   id="defs7" /><sodipodi:namedview
   pagecolor="#ffffff"
   bordercolor="#666666"
   borderopacity="1"
   objecttolerance="10"
   gridtolerance="10"
   guidetolerance="10"
   inkscape:pageopacity="0"
   inkscape:pageshadow="2"
   inkscape:window-width="910"
   inkscape:window-height="480"
   id="namedview5"
   showgrid="false"
   fit-margin-top="0"
   fit-margin-left="0"
   fit-margin-right="0"
   fit-margin-bottom="0"
   inkscape:zoom="14.75"
   inkscape:cx="-4.3550848"
   inkscape:cy="7.9500002"
   inkscape:window-x="0"
   inkscape:window-y="0"
   inkscape:window-maximized="0"
   inkscape:current-layer="Layer_1" />
<path
   d="m 12.877358,1.5943396 c 0.163523,0.163522 0.163523,0.4905661 0,0.7358491 L 8.9528302,6.172956 c -0.163522,0.163522 -0.163522,0.490566 0,0.735849 l 3.8427668,3.842767 c 0.163522,0.163522 0.163522,0.490566 0,0.735849 l -1.389937,1.389937 c -0.163522,0.163523 -0.490566,0.163523 -0.735849,0 L 6.827044,8.95283 c -0.163522,-0.163522 -0.490566,-0.163522 -0.735849,0 l -3.8427673,3.842767 c -0.163522,0.245284 -0.4905661,0.245284 -0.6540881,0.08176 L 0.12264151,11.40566 c -0.16352201,-0.163522 -0.16352201,-0.490566 0,-0.735849 L 4.0471698,6.827044 c 0.163522,-0.163522 0.163522,-0.490566 0,-0.735849 L 0.12264151,2.2484277 C -0.0408805,2.0849057 -0.0408805,1.7578616 0.20440252,1.5943396 L 1.5943396,0.1226415 c 0.163522,-0.163522 0.4905661,-0.163522 0.6540881,0 L 6.172956,4.0471698 c 0.163522,0.163522 0.490566,0.163522 0.735849,0 l 3.842767,-3.8427673 c 0.163522,-0.245283 0.490566,-0.245283 0.654088,-0.081761 l 1.471698,1.4716981 z"
   id="path3"
   inkscape:connector-curvature="0"
   style="fill:#ffffff;fill-opacity:1" />
</svg>