<?xml version="1.0" encoding="UTF-8" standalone="no"?>
<!-- Generated by IcoMoon.io -->

<svg
   xmlns:dc="http://purl.org/dc/elements/1.1/"
   xmlns:cc="http://creativecommons.org/ns#"
   xmlns:rdf="http://www.w3.org/1999/02/22-rdf-syntax-ns#"
   xmlns:svg="http://www.w3.org/2000/svg"
   xmlns="http://www.w3.org/2000/svg"
   xmlns:sodipodi="http://sodipodi.sourceforge.net/DTD/sodipodi-0.dtd"
   xmlns:inkscape="http://www.inkscape.org/namespaces/inkscape"
   version="1.1"
   width="48"
   height="43"
   viewBox="0 0 48 43"
   id="svg2"
   inkscape:version="0.48.4 r9939"
   sodipodi:docname="file.svg">
  <metadata
     id="metadata13">
    <rdf:RDF>
      <cc:Work
         rdf:about="">
        <dc:format>image/svg+xml</dc:format>
        <dc:type
           rdf:resource="http://purl.org/dc/dcmitype/StillImage" />
      </cc:Work>
    </rdf:RDF>
  </metadata>
  <defs
     id="defs11" />
  <sodipodi:namedview
     pagecolor="#ffffff"
     bordercolor="#666666"
     borderopacity="1"
     objecttolerance="10"
     gridtolerance="10"
     guidetolerance="10"
     inkscape:pageopacity="0"
     inkscape:pageshadow="2"
     inkscape:window-width="1920"
     inkscape:window-height="1003"
     id="namedview9"
     showgrid="false"
     inkscape:zoom="7.375"
     inkscape:cx="-10.611169"
     inkscape:cy="26.848458"
     inkscape:window-x="-9"
     inkscape:window-y="-9"
     inkscape:window-maximized="1"
     inkscape:current-layer="svg2"
     fit-margin-top="0"
     fit-margin-left="0"
     fit-margin-right="0"
     fit-margin-bottom="0" />
  <g
     id="icomoon-ignore"
     transform="translate(-2.001,10.999)">
    <line
       x1="0"
       y1="0"
       x2="0"
       y2="0"
       opacity=""
       id="line5"
       style="stroke:#449fdb;stroke-width:1" />
  </g>
  <path
     d="M 39.961064,7.8985625 34.912595,2.8500937 C 33.344437,1.2819375 30.248437,0 28.03125,0 H 9.218749 C 7.001561,0 5.187499,1.8140625 5.187499,4.03125 v 34.9375 C 5.187499,41.185937 7.001561,43 9.218749,43 h 29.562502 c 2.217186,0 4.03125,-1.814063 4.03125,-4.03125 v -24.1875 c 0,-2.217187 -1.283281,-5.3145313 -2.850094,-6.8813438 z M 29.373657,5.6907813 c 0.09272,0.033594 0.18678,0.071219 0.28353,0.1101875 0.757875,0.3144375 1.284625,0.6785937 1.453938,0.8479062 l 5.04847,5.048469 c 0.169312,0.169312 0.533468,0.694719 0.847905,1.453937 0.04031,0.09675 0.07659,0.192157 0.110187,0.283532 H 29.372313 V 5.6894375 z m 8.0625,31.9328747 H 10.561155 V 5.3736563 H 26.686157 V 16.123656 h 10.75 v 21.5 z"
     id="path7"
     style="fill:#b3b4b5;fill-opacity:1"
     inkscape:connector-curvature="0" />
</svg>
