<?xml version="1.0" encoding="UTF-8" standalone="no"?>
<!-- Generator: Adobe Illustrator 14.0.0, SVG Export Plug-In . SVG Version: 6.00 Build 43363)  -->

<svg
   xmlns:dc="http://purl.org/dc/elements/1.1/"
   xmlns:cc="http://creativecommons.org/ns#"
   xmlns:rdf="http://www.w3.org/1999/02/22-rdf-syntax-ns#"
   xmlns:svg="http://www.w3.org/2000/svg"
   xmlns="http://www.w3.org/2000/svg"
   xmlns:sodipodi="http://sodipodi.sourceforge.net/DTD/sodipodi-0.dtd"
   xmlns:inkscape="http://www.inkscape.org/namespaces/inkscape"
   version="1.1"
   id="Layer_1"
   x="0px"
   y="0px"
   width="419.14px"
   height="568.445px"
   viewBox="0 0 419.14 568.445"
   enable-background="new 0 0 419.14 568.445"
   xml:space="preserve"
   inkscape:version="0.48.4 r9939"
   sodipodi:docname="Career.svg"><metadata
   id="metadata3005"><rdf:RDF><cc:Work
       rdf:about=""><dc:format>image/svg+xml</dc:format><dc:type
         rdf:resource="http://purl.org/dc/dcmitype/StillImage" /><dc:title></dc:title></cc:Work></rdf:RDF></metadata><defs
   id="defs3003" /><sodipodi:namedview
   pagecolor="#ffffff"
   bordercolor="#666666"
   borderopacity="1"
   objecttolerance="10"
   gridtolerance="10"
   guidetolerance="10"
   inkscape:pageopacity="0"
   inkscape:pageshadow="2"
   inkscape:window-width="1920"
   inkscape:window-height="1003"
   id="namedview3001"
   showgrid="false"
   inkscape:zoom="1.4020705"
   inkscape:cx="209.57001"
   inkscape:cy="284.2225"
   inkscape:window-x="1911"
   inkscape:window-y="384"
   inkscape:window-maximized="1"
   inkscape:current-layer="Layer_1" />
<g
   id="g2997">
	<path
   fill-rule="evenodd"
   clip-rule="evenodd"
   d="M1.044,0c139.334,0,278.665,0,418,0c0.001,173.816,0,350.703,0,528   c0.001,11.803,2.425,29.205,0,35c-1.625,3.887-3.768,0.031-6-2c-33.765-30.727-66.27-67.27-98-99   c-36.385-36.385-70.816-69.355-105-105c-65.915,64.066-132.183,132.183-198,198c-3.708,3.707-7.647,11.027-12,10   c0-187.334,0-374.664,0-562C-0.042,1.581-0.121,0.168,1.044,0z"
   id="path2999" />
</g>
<path
   style="fill:#ffffff;fill-opacity:1"
   d="m 0.59336097,282.72472 0,-282.08281221 208.95808903,0 208.95809,0 0.38004,274.05896221 c 0.20903,150.73243 0.42592,276.79859 0.482,280.14702 0.0937,5.59445 -0.74236,9.27252 -2.09817,9.23068 -1.13848,-0.0352 -32.67813,-31.03554 -53.68118,-52.76336 -12.32373,-12.749 -51.98515,-52.83461 -88.13649,-89.07914 l -65.72968,-65.89913 -76.99398,76.95421 c -42.346689,42.32482 -89.092125,89.2307 -103.878754,104.2353 -14.786629,15.00459 -27.1941963,27.28108 -27.5723723,27.28108 -0.44014406,0 -0.68759273,-101.51508 -0.68759273,-282.08281 z"
   id="path3007"
   inkscape:connector-curvature="0" /></svg>