<?xml version="1.0" encoding="UTF-8" standalone="no"?>
<!-- Generator: Adobe Illustrator 18.1.0, SVG Export Plug-In . SVG Version: 6.00 Build 0)  -->

<svg
   xmlns:dc="http://purl.org/dc/elements/1.1/"
   xmlns:cc="http://creativecommons.org/ns#"
   xmlns:rdf="http://www.w3.org/1999/02/22-rdf-syntax-ns#"
   xmlns:svg="http://www.w3.org/2000/svg"
   xmlns="http://www.w3.org/2000/svg"
   xmlns:sodipodi="http://sodipodi.sourceforge.net/DTD/sodipodi-0.dtd"
   xmlns:inkscape="http://www.inkscape.org/namespaces/inkscape"
   version="1.1"
   id="Layer_1"
   x="0px"
   y="0px"
   viewBox="0 0 80.512121 20.197425"
   enable-background="new 0 0 140 68"
   xml:space="preserve"
   inkscape:version="0.48.4 r9939"
   width="100%"
   height="100%"
   sodipodi:docname="checkbox-radio.svg"><metadata
   id="metadata11"><rdf:RDF><cc:Work
       rdf:about=""><dc:format>image/svg+xml</dc:format><dc:type
         rdf:resource="http://purl.org/dc/dcmitype/StillImage" /><dc:title></dc:title></cc:Work></rdf:RDF></metadata><defs
   id="defs9" /><sodipodi:namedview
   pagecolor="#ffffff"
   bordercolor="#666666"
   borderopacity="1"
   objecttolerance="10"
   gridtolerance="10"
   guidetolerance="10"
   inkscape:pageopacity="0"
   inkscape:pageshadow="2"
   inkscape:window-width="1920"
   inkscape:window-height="1003"
   id="namedview7"
   showgrid="false"
   fit-margin-top="0"
   fit-margin-left="0"
   fit-margin-right="0"
   fit-margin-bottom="0"
   inkscape:zoom="13.697668"
   inkscape:cx="41.286328"
   inkscape:cy="6.0264316"
   inkscape:window-x="-9"
   inkscape:window-y="-9"
   inkscape:window-maximized="1"
   inkscape:current-layer="Layer_1" />
<path
   id="path-1"
   d="M 35.110225,20.097425 H 25.06851 c -2.832279,0 -4.977945,-2.231492 -4.977945,-4.977945 V 5.0777638 c 0,-2.8322788 2.231492,-4.97794453 4.977945,-4.97794453 h 10.041715 c 2.832279,0 4.977945,2.23149233 4.977945,4.97794453 V 15.11948 c 0.08583,2.746453 -2.145666,4.977945 -4.977945,4.977945 z M 36.655105,7.4809091 35.539358,6.3651632 c -0.08583,-0.085827 -0.429133,-0.085827 -0.514959,0 l -5.578731,5.5787318 c -0.08583,0.08583 -0.429133,0.08583 -0.51496,0 L 26.527562,9.4549221 c -0.08583,-0.08583 -0.171653,-0.08583 -0.25748,-0.08583 -0.08583,0 -0.171653,0 -0.257479,0.08583 l -1.115747,1.0299199 c -0.08583,0.08583 -0.08583,0.171654 -0.08583,0.25748 0,0.08583 0,0.171654 0.08583,0.25748 l 2.488973,2.574799 c 0.08583,0.08583 0.429133,0.429133 0.514959,0.51496 l 1.115747,1.115746 c 0.08583,0.08583 0.429133,0.08583 0.514959,0 l 7.209437,-7.2094379 c 0,-0.171653 0,-0.343306 -0.08583,-0.51496 z"
   inkscape:connector-curvature="0"
   style="fill:#ffffff;fill-opacity:1" />
<path
   id="rect-1"
   d="M 4.9803393,-6.3148185e-7 H 15.022054 C 17.854333,-6.3148185e-7 20,2.2314716 20,4.977899 v 10.041626 c 0,2.832254 -2.231493,4.9779 -4.977946,4.9779 H 4.9803393 c -2.8322786,0 -4.97794421,-2.231472 -4.97794421,-4.9779 V 5.0637249 C -0.08343154,2.2314716 2.1480607,-6.3148185e-7 4.9803393,-6.3148185e-7 z"
   inkscape:connector-curvature="0"
   style="fill:#b3b4b5" />
<path
   id="path-1_1_"
   d="m 70.512124,20.097425 c -5.470085,0 -10,-4.444444 -10,-10 0,-5.5555565 4.444444,-10.00000083 10,-10.00000083 5.555556,0 10,4.52991443 10,10.00000083 0,5.470085 -4.529915,10 -10,10 z m 0,-15.9829069 c -3.247863,0 -5.982906,2.735043 -5.982906,5.9829069 0,3.247863 2.735043,5.982906 5.982906,5.982906 3.247863,0 5.982906,-2.735043 5.982906,-5.982906 0,-3.2478639 -2.735043,-5.9829069 -5.982906,-5.9829069 z m 0,8.9743599 c -1.709402,0 -2.991453,-1.282051 -2.991453,-2.991453 0,-1.7094029 1.282051,-2.9914539 2.991453,-2.9914539 1.709402,0 2.991453,1.282051 2.991453,2.9914539 0,1.709402 -1.282051,2.991453 -2.991453,2.991453 z"
   inkscape:connector-curvature="0"
   style="fill:#ffffff;fill-opacity:1" />
<path
   id="path-1_2_"
   d="m 50.32435,20.197425 c -5.470085,0 -10,-4.444444 -10,-10 0,-5.5555565 4.444444,-10.00000083 10,-10.00000083 5.555556,0 10,4.52991443 10,10.00000083 0,5.470085 -4.529915,10 -10,10 z m 0,-15.9829069 c -3.333333,0 -5.982906,2.735043 -5.982906,5.9829069 0,3.247863 2.649573,5.982906 5.982906,5.982906 3.333333,0 5.982906,-2.735043 5.982906,-5.982906 0,-3.2478639 -2.735043,-5.9829069 -5.982906,-5.9829069 z"
   inkscape:connector-curvature="0"
   style="fill:#b3b4b5" />
</svg>