<?xml version="1.0" encoding="utf-8"?>
<!-- Generator: Adobe Illustrator 17.1.0, SVG Export Plug-In . SVG Version: 6.00 Build 0)  -->
<!DOCTYPE svg PUBLIC "-//W3C//DTD SVG 1.1//EN" "http://www.w3.org/Graphics/SVG/1.1/DTD/svg11.dtd">
<svg version="1.1" id="Layer_1" xmlns="http://www.w3.org/2000/svg" xmlns:xlink="http://www.w3.org/1999/xlink" x="0px" y="0px"
	 viewBox="0 0 30 30" enable-background="new 0 0 30 30" xml:space="preserve">
<path fill-rule="evenodd" clip-rule="evenodd" d="M27.6,18.1H26c-0.3,0.9-0.6,1.8-1.1,2.6l1.5,1.5c0.9,0.9,0.9,2.5,0,3.4l-0.9,0.9
	c-0.9,0.9-2.5,0.9-3.4,0L20.6,25c-0.8,0.5-1.7,0.8-2.6,1.1v1.5c0,1.3-1.1,2.4-2.4,2.4h-1.2c-1.3,0-2.4-1.1-2.4-2.4v-1.5
	c-0.9-0.3-1.8-0.6-2.6-1.1l-1.5,1.5c-0.9,0.9-2.5,0.9-3.4,0l-0.9-0.9c-0.9-0.9-0.9-2.5,0-3.4l1.5-1.5C4.6,19.9,4.3,19,4,18.1H2.4
	C1.1,18.1,0,17,0,15.7v-1.2c0-1.3,1.1-2.4,2.4-2.4H4c0.2-0.9,0.6-1.8,1.1-2.6L3.6,8c-0.9-0.9-0.9-2.5,0-3.4l0.9-0.9
	c0.9-0.9,2.5-0.9,3.4,0l1.4,1.4C10.1,4.7,11,4.3,12,4V2.4C12,1.1,13.1,0,14.4,0h1.2C16.9,0,18,1.1,18,2.4V4c1,0.3,1.9,0.6,2.7,1.1
	l1.4-1.4c0.9-0.9,2.5-0.9,3.4,0l0.9,0.9c0.9,0.9,0.9,2.5,0,3.4L25,9.4c0.5,0.8,0.8,1.7,1.1,2.6h1.6c1.3,0,2.4,1.1,2.4,2.4v1.2
	C30,17,28.9,18.1,27.6,18.1z M15,8.5c-3.7,0-6.6,3-6.6,6.6c0,3.7,3,6.6,6.6,6.6c3.7,0,6.6-3,6.6-6.6C21.6,11.5,18.7,8.5,15,8.5z
	 M15,18c-1.7,0-3-1.3-3-3c0-1.7,1.3-3,3-3c1.7,0,3,1.3,3,3C18,16.7,16.7,18,15,18z"/>
</svg>
