<?xml version="1.0" encoding="utf-8"?>
<!-- Generator: Adobe Illustrator 18.1.0, SVG Export Plug-In . SVG Version: 6.00 Build 0)  -->
<svg version="1.1" id="Layer_1" xmlns="http://www.w3.org/2000/svg" xmlns:xlink="http://www.w3.org/1999/xlink" x="0px" y="0px"
	 viewBox="0 0 140 68" enable-background="new 0 0 140 68" xml:space="preserve">
<path id="path-1" fill="#004494" d="M58,36.5H46.3c-3.3,0-5.8-2.6-5.8-5.8V19c0-3.3,2.6-5.8,5.8-5.8H58c3.3,0,5.8,2.6,5.8,5.8v11.7
	C63.9,33.9,61.3,36.5,58,36.5z M59.8,21.8l-1.3-1.3c-0.1-0.1-0.5-0.1-0.6,0L51.4,27c-0.1,0.1-0.5,0.1-0.6,0L48,24.1
	C47.9,24,47.8,24,47.7,24c-0.1,0-0.2,0-0.3,0.1l-1.3,1.2C46,25.4,46,25.5,46,25.6s0,0.2,0.1,0.3l2.9,3c0.1,0.1,0.5,0.5,0.6,0.6
	l1.3,1.3c0.1,0.1,0.5,0.1,0.6,0l8.4-8.4C59.9,22.2,59.9,22,59.8,21.8z"/>
<path id="rect-1" fill="#B3B4B5" d="M23,13.1h11.7c3.3,0,5.8,2.6,5.8,5.8v11.7c0,3.3-2.6,5.8-5.8,5.8H23c-3.3,0-5.8-2.6-5.8-5.8V19
	C17.1,15.7,19.7,13.1,23,13.1z"/>
<path id="path-1_1_" fill="#004494" d="M98.9,36.5c-6.4,0-11.7-5.2-11.7-11.7s5.2-11.7,11.7-11.7s11.7,5.3,11.7,11.7
	S105.3,36.5,98.9,36.5z M98.9,17.8c-3.8,0-7,3.2-7,7s3.2,7,7,7s7-3.2,7-7S102.7,17.8,98.9,17.8z M98.9,28.3c-2,0-3.5-1.5-3.5-3.5
	s1.5-3.5,3.5-3.5s3.5,1.5,3.5,3.5S100.9,28.3,98.9,28.3z"/>
<path id="path-1_2_" fill="#B3B4B5" d="M75.5,36.6c-6.4,0-11.7-5.2-11.7-11.7S69,13.2,75.5,13.2s11.7,5.3,11.7,11.7
	S81.9,36.6,75.5,36.6z M75.5,17.9c-3.9,0-7,3.2-7,7s3.1,7,7,7s7-3.2,7-7S79.3,17.9,75.5,17.9z"/>
</svg>
