<?xml version="1.0" encoding="utf-8"?>
<!-- Generator: Adobe Illustrator 17.1.0, SVG Export Plug-In . SVG Version: 6.00 Build 0)  -->
<!DOCTYPE svg PUBLIC "-//W3C//DTD SVG 1.1//EN" "http://www.w3.org/Graphics/SVG/1.1/DTD/svg11.dtd">
<svg version="1.1" id="Layer_1" xmlns="http://www.w3.org/2000/svg" xmlns:xlink="http://www.w3.org/1999/xlink" x="0px" y="0px"
	 viewBox="0 0 612 792" enable-background="new 0 0 612 792" xml:space="preserve">
<path id="path-1" fill="#004494" d="M253.5,406.9h-51.1c-14.4,0-25.4-11.4-25.4-25.4v-51.1c0-14.4,11.4-25.4,25.4-25.4h51.1
	c14.4,0,25.4,11.4,25.4,25.4v51.1C279.3,395.6,268,406.9,253.5,406.9z M261.4,342.7l-5.7-5.7c-0.4-0.4-2.2-0.4-2.6,0l-28.4,28.4
	c-0.4,0.4-2.2,0.4-2.6,0l-12.2-12.7c-0.4-0.4-0.9-0.4-1.3-0.4c-0.4,0-0.9,0-1.3,0.4l-5.7,5.2c-0.4,0.4-0.4,0.9-0.4,1.3
	s0,0.9,0.4,1.3l12.7,13.1c0.4,0.4,2.2,2.2,2.6,2.6l5.7,5.7c0.4,0.4,2.2,0.4,2.6,0l36.7-36.7C261.8,344.4,261.8,343.5,261.4,342.7z"
	/>
<path id="rect-1" fill="#B3B4B5" d="M100.5,304.6h51.1c14.4,0,25.4,11.4,25.4,25.4v51.1c0,14.4-11.4,25.4-25.4,25.4h-51.1
	c-14.4,0-25.4-11.4-25.4-25.4v-50.7C74.8,316,86.1,304.6,100.5,304.6z"/>
<path id="path-1_1_" fill="#004494" d="M432.3,406.9c-28,0-51.1-22.7-51.1-51.1c0-28.4,22.7-51.1,51.1-51.1s51.1,23.2,51.1,51.1
	C483.5,383.8,460.3,406.9,432.3,406.9z M432.3,325.2c-16.6,0-30.6,14-30.6,30.6c0,16.6,14,30.6,30.6,30.6s30.6-14,30.6-30.6
	C462.9,339.2,448.9,325.2,432.3,325.2z M432.3,371.1c-8.7,0-15.3-6.6-15.3-15.3c0-8.7,6.6-15.3,15.3-15.3s15.3,6.6,15.3,15.3
	C447.6,364.5,441.1,371.1,432.3,371.1z"/>
<path id="path-1_2_" fill="#B3B4B5" d="M330,407.4c-28,0-51.1-22.7-51.1-51.1c0-28.4,22.7-51.1,51.1-51.1s51.1,23.2,51.1,51.1
	S358,407.4,330,407.4z M330,325.6c-17,0-30.6,14-30.6,30.6s13.6,30.6,30.6,30.6s30.6-14,30.6-30.6S346.7,325.6,330,325.6z"/>
</svg>
