<?xml version="1.0" encoding="UTF-8" standalone="no"?>
<svg width="300px" height="300px" viewBox="0 0 300 300" version="1.1" xmlns="http://www.w3.org/2000/svg" xmlns:xlink="http://www.w3.org/1999/xlink" xmlns:sketch="http://www.bohemiancoding.com/sketch/ns">
    <!-- Generator: Sketch 3.0.3 (7891) - http://www.bohemiancoding.com/sketch -->
    <title>Artboard 1</title>
    <desc>Created with Sketch.</desc>
    <defs></defs>
    <g id="Page-1" stroke="none" stroke-width="1" fill="none" fill-rule="evenodd" sketch:type="MSPage">
        <g id="Artboard-1" sketch:type="MSArtboardGroup" fill="#000000">
            <g id="budget" sketch:type="MSLayerGroup" transform="translate(12.000000, 9.000000)">
                <g id="Group" sketch:type="MSShapeGroup">
                    <path d="M144.750724,15.8892961 C129.902066,19.7407682 117.958263,26.4975451 110.708882,37.9475064 C82.8278596,43.1204549 45.5701447,42.1560687 19.9318509,33.5361073 C13.5559912,31.3923519 -0.240552632,26.4149528 -0.240552632,20.3019099 C-0.240552632,12.8673906 18.780114,7.33735193 26.8665702,5.17659227 C63.322443,-4.56565236 120.509579,-2.39153219 144.750724,15.8892961 L144.750724,15.8892961 Z" id="Shape"></path>
                    <path d="M127.729803,46.1399313 C140.392833,31.103279 164.925557,29.0773391 190.769171,25.9728412 C214.88518,23.074824 243.441693,27.9647725 262.003123,35.4260129 C267.345092,37.573412 277.14093,41.824485 277.132425,46.7690901 C277.120276,54.4319528 253.168281,61.4984506 245.613956,63.1551545 C219.165316,68.9511888 184.987404,68.7119142 159.249487,62.5247811 C146.433377,59.4445751 133.216346,56.5283391 127.729803,46.1399313 L127.729803,46.1399313 Z" id="Shape"></path>
                    <path d="M-0.239337719,44.8791845 C25.733057,59.0996309 71.4016096,62.5381416 109.449018,56.8526352 L109.449018,82.6918712 C70.3822982,87.9219056 21.5331053,86.1983991 -0.239337719,66.3058069 C-0.239337719,59.1640043 -0.239337719,52.0222017 -0.239337719,44.8791845 L-0.239337719,44.8791845 Z" id="Shape"></path>
                    <path d="M127.729803,71.348794 C165.464978,90.0486567 239.681539,91.0482661 277.132425,71.348794 C275.789947,76.7136481 278.891618,85.3044592 277.132425,91.5158841 C274.732974,99.991309 255.678289,104.852107 244.983417,107.271575 C206.526583,115.96927 146.622904,112.500395 127.729803,91.5158841 L127.729803,71.348794 L127.729803,71.348794 Z" id="Shape"></path>
                    <path d="M-0.239337719,88.9943906 C26.2530395,103.360588 71.8013158,107.071167 109.449018,100.967841 L109.449018,126.807077 C70.5888333,132.062618 21.1394737,130.551665 -0.239337719,110.421013 C-0.239337719,103.280425 -0.239337719,96.1374077 -0.239337719,88.9943906 L-0.239337719,88.9943906 Z" id="Shape"></path>
                    <path d="M127.729803,115.464 C164.624259,134.297468 239.905083,135.459833 276.503101,115.464 C276.215167,120.526421 278.931711,129.07715 277.13364,135.63109 C274.841101,143.985056 256.097434,149.03776 245.615171,151.386781 C207.051425,160.031034 147.328768,156.715197 127.731018,136.260249 C127.729803,129.328571 127.729803,122.396893 127.729803,115.464 L127.729803,115.464 Z" id="Shape"></path>
                    <path d="M127.729803,159.580421 C163.974281,178.7977 240.453009,179.536172 276.503101,159.580421 C277.970715,165.466335 276.715711,174.072936 277.13364,181.008258 C269.087276,189.935511 255.763333,193.171185 241.201395,196.133575 C228.224917,198.775313 210.343838,203.406554 194.553623,199.915815 C190.414417,199.000013 185.913167,194.150146 180.685399,191.722176 C166.042061,184.922888 146.818504,181.95321 127.732232,179.748725 C127.729803,173.024742 127.729803,166.303189 127.729803,159.580421 L127.729803,159.580421 Z" id="Shape"></path>
                    <path d="M95.5795789,198.024695 C120.532662,196.41779 148.027342,198.684219 168.703934,206.847494 C175.637439,209.58397 184.54639,213.69415 184.464991,218.191785 C184.325276,225.781773 159.829,232.99888 152.945307,234.576635 C125.496794,240.869438 93.3793728,240.665386 66.5820526,234.576635 C57.2053596,232.44624 35.2118026,225.774485 35.0623684,218.191785 C34.9129342,210.587223 53.1597018,205.698489 60.2778728,203.695627 C73.5532193,199.96197 82.8837456,198.840901 95.5795789,198.024695 L95.5795789,198.024695 Z" id="Shape"></path>
                    <path d="M35.0623684,242.770275 C72.5278333,262.092009 146.949715,261.883099 184.466206,242.770275 L184.466206,263.567738 C153.716776,289.879451 65.7279693,290.187957 35.0623684,263.567738 C35.0623684,256.634845 35.0623684,249.703167 35.0623684,242.770275 L35.0623684,242.770275 Z" id="Shape"></path>
                </g>
            </g>
        </g>
    </g>
</svg>