<?xml version="1.0" encoding="utf-8"?>
<!-- Generator: Adobe Illustrator 18.0.0, SVG Export Plug-In . SVG Version: 6.00 Build 0)  -->
<!DOCTYPE svg PUBLIC "-//W3C//DTD SVG 1.1//EN" "http://www.w3.org/Graphics/SVG/1.1/DTD/svg11.dtd">
<svg version="1.1" id="Layer_1" xmlns="http://www.w3.org/2000/svg" xmlns:xlink="http://www.w3.org/1999/xlink" x="0px" y="0px"
	 viewBox="0 0 20 49.9" enable-background="new 0 0 20 49.9" xml:space="preserve">
<g>
	<g>
		<g>
			<path fill-rule="evenodd" clip-rule="evenodd" fill="#006FB4" d="M15,0H5C2.2,0,0,2.2,0,5v10c0,2.8,2.2,5,5,5h10c2.8,0,5-2.2,5-5
				V5C20,2.2,17.8,0,15,0z M16.5,8l-7.2,7.2c-0.1,0.1-0.4,0.1-0.5,0l-1.1-1.1c-0.1-0.1-0.4-0.4-0.5-0.5l-2.5-2.6
				c-0.1-0.1-0.1-0.2-0.1-0.3c0-0.1,0-0.2,0.1-0.3l1.1-1C5.9,9.4,6,9.3,6,9.3c0.1,0,0.2,0,0.3,0.1l2.4,2.5c0.1,0.2,0.4,0.2,0.5,0
				l5.6-5.6c0.1-0.1,0.4-0.1,0.5,0l1.1,1.1C16.6,7.6,16.6,7.8,16.5,8z"/>
		</g>
	</g>
	<path fill-rule="evenodd" clip-rule="evenodd" fill="#D9D9D9" d="M5,29.9h10c2.8,0,5,2.2,5,5v10c0,2.8-2.2,5-5,5H5
		c-2.8,0-5-2.2-5-5v-10C0,32.2,2.2,29.9,5,29.9z"/>
</g>
</svg>
