<?xml version="1.0" encoding="UTF-8" standalone="no"?>
<svg width="300px" height="300px" viewBox="0 0 300 300" version="1.1" xmlns="http://www.w3.org/2000/svg" xmlns:xlink="http://www.w3.org/1999/xlink" xmlns:sketch="http://www.bohemiancoding.com/sketch/ns">
    <!-- Generator: Sketch 3.0.3 (7891) - http://www.bohemiancoding.com/sketch -->
    <title>Artboard 1</title>
    <desc>Created with Sketch.</desc>
    <defs></defs>
    <g id="Page-1" stroke="none" stroke-width="1" fill="none" fill-rule="evenodd" sketch:type="MSPage">
        <g id="Artboard-1" sketch:type="MSArtboardGroup" fill="#000000">
            <g id="digital-market" sketch:type="MSLayerGroup" transform="translate(11.000000, 11.000000)">
                <path d="M128.64172,0.6394 L149.26793,0.6394 C224.22229,11.44665 267.09545,54.3351 277.91104,129.28112 L277.91104,149.90733 C267.09545,224.85335 224.22368,267.7418 149.26793,278.54905 L128.64172,278.54905 C53.67346,267.75709 10.80725,224.86169 2.84217094e-14,149.90872 L2.84217094e-14,129.28251 C10.81003,54.32954 53.66512,11.42302 128.64172,0.6394 L128.64172,0.6394 Z M91.73305,70.11716 L130.27219,70.11716 C129.91079,53.65261 130.99499,35.74107 129.7287,20.18002 C113.22662,32.98887 100.82782,49.901 91.73305,70.11716 L91.73305,70.11716 Z M153.61029,24.52238 C152.0243,23.16296 149.87814,20.59285 147.64024,21.26561 L147.64024,70.11716 C160.30453,69.75576 174.4172,70.83996 186.17938,69.57506 C178.1424,52.81583 166.79027,35.8203 153.61029,24.52238 L153.61029,24.52238 Z M39.62334,70.11716 L73.27663,70.11716 C78.7991,52.11666 90.26799,37.17138 99.33079,24.52238 C73.95495,34.24543 53.57755,48.9697 39.62334,70.11716 L39.62334,70.11716 Z M204.63302,70.11716 L238.28631,70.11716 C224.35434,49.31025 203.20688,32.82485 178.03537,25.06448 C189.32217,37.66344 198.50034,52.36686 204.63302,70.11716 L204.63302,70.11716 Z M29.85442,87.4866 C22.91832,99.00692 19.22231,113.76455 17.91293,130.9102 L60.79304,130.9102 C61.60063,115.07254 63.71899,100.54565 67.30658,87.4866 C54.8216,87.4866 42.33801,87.4866 29.85442,87.4866 L29.85442,87.4866 Z M78.16248,130.9102 L130.2708,130.9102 L130.2708,87.4866 L85.76161,87.4866 C81.0092,99.74084 79.5636,115.30328 78.16248,130.9102 L78.16248,130.9102 Z M148.18373,87.4866 C146.91744,100.87647 148.00164,116.61683 147.64024,130.9102 C164.82898,130.5488 183.46332,131.63439 199.74717,130.3681 C198.46142,115.0086 196.41673,100.40665 192.69153,87.4866 C177.85606,87.4866 163.0192,87.4866 148.18373,87.4866 L148.18373,87.4866 Z M217.118,130.9102 L259.9995,130.9102 C258.95839,113.67837 254.55487,99.80756 248.6015,87.4866 L210.60585,87.4866 C214.21985,100.51646 216.26037,115.12119 217.118,130.9102 L217.118,130.9102 Z M17.91293,148.27964 C18.96655,165.50035 23.32142,179.41981 29.31093,191.70324 L67.30658,191.70324 C63.71899,178.64419 61.60063,164.1173 60.79304,148.27964 L17.91293,148.27964 L17.91293,148.27964 Z M78.70597,148.27964 C78.47801,162.98306 81.84598,178.79153 85.21951,191.70324 L130.27219,191.70324 L130.27219,148.27964 L78.70597,148.27964 L78.70597,148.27964 Z M148.18373,148.27964 C146.91744,161.66951 148.00164,177.40848 147.64024,191.70324 L192.69153,191.70324 C196.44731,178.63168 198.53926,163.89768 199.74717,148.27964 L148.18373,148.27964 L148.18373,148.27964 Z M217.6601,148.27964 C215.6168,163.06368 214.6021,178.87493 210.60446,191.70324 L248.60011,191.70324 C254.55348,179.38228 258.957,165.51147 259.99811,148.27964 L217.6601,148.27964 L217.6601,148.27964 Z M99.87428,254.12397 C88.59999,241.51528 79.39541,226.83688 73.27663,209.07268 L39.62334,209.07268 C53.5567,229.87959 74.70416,246.36499 99.87428,254.12397 L99.87428,254.12397 Z M124.29936,254.66746 C125.88535,256.02827 128.03151,258.59699 130.2708,257.92423 L130.2708,209.07268 C117.60512,209.43408 103.49384,208.34849 91.73166,209.61617 C99.75474,226.37401 111.12772,243.3751 124.29936,254.66746 L124.29936,254.66746 Z M147.64024,258.46633 C164.27715,247.96349 177.0165,228.85933 186.17938,209.07268 L147.64024,209.07268 L147.64024,258.46633 L147.64024,258.46633 Z M178.57886,254.66746 C203.95748,244.94441 224.3321,230.21875 238.28631,209.07268 L204.63302,209.07268 C199.09804,227.05789 187.65278,242.02958 178.57886,254.66746 L178.57886,254.66746 Z" id="Shape" sketch:type="MSShapeGroup"></path>
            </g>
        </g>
    </g>
</svg>