<?xml version="1.0" encoding="UTF-8" standalone="no"?>
<svg width="300px" height="300px" viewBox="0 0 300 300" version="1.1" xmlns="http://www.w3.org/2000/svg" xmlns:xlink="http://www.w3.org/1999/xlink" xmlns:sketch="http://www.bohemiancoding.com/sketch/ns">
    <!-- Generator: Sketch 3.0.3 (7891) - http://www.bohemiancoding.com/sketch -->
    <title>Artboard 1</title>
    <desc>Created with Sketch.</desc>
    <defs></defs>
    <g id="Page-1" stroke="none" stroke-width="1" fill="none" fill-rule="evenodd" sketch:type="MSPage">
        <g id="Artboard-1" sketch:type="MSArtboardGroup" fill="#000000">
            <g id="energy" sketch:type="MSLayerGroup" transform="translate(20.000000, 4.000000)">
                <path d="M128.679244,0.574017094 L131.00077,0.574017094 C135.58388,3.066 138.015301,7.82909402 139.708679,12.7556581 C148.993536,39.7619145 146.453469,81.3868889 148.416589,116.586615 C139.169196,110.010376 119.709086,111.752393 111.264675,116.006359 C112.717033,83.0353162 111.229708,39.1267521 119.972584,13.3359145 C121.587287,8.57032479 125.34244,2.07270085 128.679244,0.574017094 L128.679244,0.574017094 Z" id="Shape" sketch:type="MSShapeGroup"></path>
                <path d="M125.778273,121.806427 C148.146847,118.544513 167.247301,142.681932 153.641584,164.151419 C142.242502,182.141863 104.62978,182.032051 101.977321,151.969778 C101.346675,144.819521 105.837373,134.308769 106.040928,133.988068 C109.788589,128.074444 116.38477,123.176581 125.778273,121.806427 L125.778273,121.806427 Z M120.553278,147.909231 C119.079689,163.559932 141.048646,160.597504 139.129234,147.328974 C138.452383,142.643248 134.941995,138.677538 127.520354,140.368393 C122.578837,141.493966 120.865478,144.594906 120.553278,147.909231 L120.553278,147.909231 Z" id="Shape" sketch:type="MSShapeGroup"></path>
                <path d="M92.6899665,142.689419 C93.183244,142.58335 93.2369426,142.915282 93.2706603,143.269675 C91.2675789,153.815368 94.5494354,163.209282 99.0751005,169.952735 C101.874919,174.124342 106.142081,176.555179 107.78301,180.393607 C86.2948421,192.039915 62.054311,205.367094 35.8007081,215.776769 C27.6160478,219.022462 2.45015311,230.673761 -0.189818182,216.357026 C-1.9244067,206.955624 11.7337608,197.247248 17.2247512,192.574 C39.6245455,173.515385 69.4784498,156.583128 92.6899665,142.689419 L92.6899665,142.689419 Z" id="Shape" sketch:type="MSShapeGroup"></path>
                <path d="M166.411852,142.689419 C190.907139,156.151368 218.693024,173.295761 241.877067,192.575248 C247.284388,197.072547 261.222287,205.917402 259.87233,215.778017 C257.85801,230.501556 232.558493,219.419282 223.30111,215.778017 C198.017828,205.835043 173.42888,191.810308 151.899502,180.394855 C153.494225,176.167094 158.80289,173.572786 161.76755,168.79347 C165.731254,162.405658 167.776794,154.096137 166.411852,144.431436 L166.411852,142.689419 L166.411852,142.689419 Z" id="Shape" sketch:type="MSShapeGroup"></path>
                <path d="M148.416589,291.319915 L111.264675,291.319915 L111.264675,185.748188 C121.295067,190.836974 139.192923,189.111179 148.416589,186.328444 L148.416589,291.319915 L148.416589,291.319915 Z" id="Shape" sketch:type="MSShapeGroup"></path>
            </g>
        </g>
    </g>
</svg>