<?xml version="1.0" encoding="UTF-8" standalone="no"?>
<svg width="300px" height="300px" viewBox="0 0 300 300" version="1.1" xmlns="http://www.w3.org/2000/svg" xmlns:xlink="http://www.w3.org/1999/xlink" xmlns:sketch="http://www.bohemiancoding.com/sketch/ns">
    <!-- Generator: Sketch 3.0.3 (7891) - http://www.bohemiancoding.com/sketch -->
    <title>Artboard 1</title>
    <desc>Created with Sketch.</desc>
    <defs></defs>
    <g id="Page-1" stroke="none" stroke-width="1" fill="none" fill-rule="evenodd" sketch:type="MSPage">
        <g id="Artboard-1" sketch:type="MSArtboardGroup" fill="#000000">
            <g id="foreign" sketch:type="MSLayerGroup" transform="translate(27.000000, 5.000000)">
                <g id="Group" sketch:type="MSShapeGroup">
                    <path d="M0.260798883,110.887714 L0.260798883,100.659 C3.75743575,53.9607143 22.2962346,22.3134286 49.6635587,-0.495761905 C53.783905,3.52695238 58.4148101,7.03733333 61.5885531,12.006 C35.4879665,34.4934286 15.2532849,69.920381 18.4325475,116.570333 C22.7171006,179.458905 78.533581,233.253905 149.036212,228.522762 C178.394715,226.552143 198.452771,215.345714 217.746369,201.24481 C214.102084,196.178095 209.748536,191.82119 204.685726,188.174095 C177.913134,212.723286 126.326011,216.362095 91.6839162,198.40281 C60.3714916,182.169714 33.3560391,146.829762 36.6029162,98.3845714 C39.9919218,47.8127143 76.7756034,11.3058571 121.780659,2.91242857 C175.568704,-7.12019048 220.880095,25.8790476 237.053765,65.424 C251.528793,100.813667 243.53648,148.58219 222.290341,171.124857 C230.45376,180.004381 239.46167,188.037381 246.707464,197.835238 C219.965229,225.980429 184.871911,250.19681 129.163061,246.139571 C91.5638659,243.401143 61.0476369,226.001143 40.0112402,204.08681 C17.808838,180.958619 2.65490503,150.983667 0.829312849,111.456667 C0.797575419,111.110048 0.745139665,110.784143 0.260798883,110.887714 L0.260798883,110.887714 Z M109.855665,33.032381 C123.980201,36.277619 118.510324,50.9391905 111.558447,58.0372857 C101.436966,68.3709524 68.0422905,75.2494762 92.2510503,88.1558571 C94.107,98.0448571 100.885011,95.9085238 110.421419,96.6804762 C121.64681,97.5891429 137.006346,101.42681 141.085296,112.024238 C145.016598,122.236381 137.674212,133.594714 133.13438,142.711762 C128.797391,151.42281 126.504017,161.402952 121.777899,167.147714 C119.232006,170.242429 114.217492,172.512714 110.988553,171.69381 C100.098475,168.933286 107.134525,144.519429 103.606151,130.21 C101.63705,122.21981 94.9597709,118.144619 95.6566145,109.182238 C95.9243128,105.742286 98.8952123,103.027333 97.9279106,100.090048 C90.4461564,95.2097619 80.7965978,94.5510476 74.6464358,88.7248095 C71.0601061,85.3276667 70.6088827,80.4819048 66.1283855,77.9271429 C53.7742458,110.733048 67.6297039,145.53581 84.8672682,162.601619 C98.8082793,176.405619 120.708486,187.033429 145.626508,185.333476 C191.79343,182.183524 227.044056,142.333381 218.310743,89.2937619 C215.521989,90.1002381 211.447179,89.6224286 208.658425,90.4302857 C209.316631,97.1417143 210.07695,102.075857 209.225559,109.183619 C197.094961,116.933524 202.29852,142.032333 185.37695,144.98619 C176.59948,134.513048 185.37833,108.668524 176.290385,100.660381 C168.644425,93.9213333 150.632743,101.433714 151.306128,88.1572381 C151.921559,76.0186667 174.677296,73.7290476 177.994547,64.2888571 C176.255888,62.6206667 170.456218,65.0138571 169.477877,62.5847619 C170.726676,50.7651905 179.661453,46.6347619 191.623704,45.5355238 C176.85476,28.2100952 135.343581,19.4741905 109.855665,33.032381 L109.855665,33.032381 Z" id="Shape"></path>
                    <path d="M208.661184,289.89781 L72.3778994,289.89781 C76.1739721,272.101476 101.900609,276.254 122.916307,275.690571 C123.290257,270.951143 122.164268,264.709238 123.484821,260.915762 L158.691291,260.915762 L158.691291,275.690571 C179.270944,276.49981 205.417067,271.738286 208.661184,289.89781 L208.661184,289.89781 Z" id="Shape"></path>
                </g>
            </g>
        </g>
    </g>
</svg>