<?xml version="1.0" encoding="UTF-8" standalone="no"?>
<!-- Generated by IcoMoon.io -->

<svg
   xmlns:dc="http://purl.org/dc/elements/1.1/"
   xmlns:cc="http://creativecommons.org/ns#"
   xmlns:rdf="http://www.w3.org/1999/02/22-rdf-syntax-ns#"
   xmlns:svg="http://www.w3.org/2000/svg"
   xmlns="http://www.w3.org/2000/svg"
   xmlns:sodipodi="http://sodipodi.sourceforge.net/DTD/sodipodi-0.dtd"
   xmlns:inkscape="http://www.inkscape.org/namespaces/inkscape"
   version="1.1"
   width="43"
   height="43"
   viewBox="0 0 43 43"
   id="svg2"
   inkscape:version="0.48.4 r9939"
   sodipodi:docname="play.svg">
  <metadata
     id="metadata13">
    <rdf:RDF>
      <cc:Work
         rdf:about="">
        <dc:format>image/svg+xml</dc:format>
        <dc:type
           rdf:resource="http://purl.org/dc/dcmitype/StillImage" />
      </cc:Work>
    </rdf:RDF>
  </metadata>
  <defs
     id="defs11" />
  <sodipodi:namedview
     pagecolor="#ffffff"
     bordercolor="#666666"
     borderopacity="1"
     objecttolerance="10"
     gridtolerance="10"
     guidetolerance="10"
     inkscape:pageopacity="0"
     inkscape:pageshadow="2"
     inkscape:window-width="1920"
     inkscape:window-height="1003"
     id="namedview9"
     showgrid="false"
     fit-margin-top="0"
     fit-margin-left="0"
     fit-margin-right="0"
     fit-margin-bottom="0"
     inkscape:zoom="7.375"
     inkscape:cx="-8.6101695"
     inkscape:cy="16"
     inkscape:window-x="-9"
     inkscape:window-y="-9"
     inkscape:window-maximized="1"
     inkscape:current-layer="svg2" />
  <g
     id="icomoon-ignore"
     transform="translate(0,11)">
    <line
       x1="0"
       y1="0"
       x2="0"
       y2="0"
       opacity=""
       id="line5"
       style="stroke:#449fdb;stroke-width:1" />
  </g>
  <path
     d="M 21.5,0 C 9.6252813,0 0,9.625281 0,21.5 0,33.374719 9.6252813,43 21.5,43 33.374719,43 43,33.374719 43,21.5 43,9.625281 33.374719,0 21.5,0 z m 0,38.96875 C 11.851875,38.96875 4.03125,31.148125 4.03125,21.5 4.03125,11.851875 11.851875,4.03125 21.5,4.03125 c 9.648125,0 17.46875,7.820625 17.46875,17.46875 0,9.648125 -7.820625,17.46875 -17.46875,17.46875 z M 16.125,12.09375 32.25,21.5 16.125,30.90625 z"
     id="path7"
     inkscape:connector-curvature="0"
     style="fill:#b3b4b5;fill-opacity:1" />
</svg>
