<?xml version="1.0" encoding="UTF-8" standalone="no"?>
<!-- Generated by IcoMoon.io -->

<svg
   xmlns:dc="http://purl.org/dc/elements/1.1/"
   xmlns:cc="http://creativecommons.org/ns#"
   xmlns:rdf="http://www.w3.org/1999/02/22-rdf-syntax-ns#"
   xmlns:svg="http://www.w3.org/2000/svg"
   xmlns="http://www.w3.org/2000/svg"
   xmlns:sodipodi="http://sodipodi.sourceforge.net/DTD/sodipodi-0.dtd"
   xmlns:inkscape="http://www.inkscape.org/namespaces/inkscape"
   version="1.1"
   width="42.223495"
   height="43"
   viewBox="0 0 42.223495 43"
   id="svg2"
   inkscape:version="0.48.4 r9939"
   sodipodi:docname="volume-medium.svg">
  <metadata
     id="metadata13">
    <rdf:RDF>
      <cc:Work
         rdf:about="">
        <dc:format>image/svg+xml</dc:format>
        <dc:type
           rdf:resource="http://purl.org/dc/dcmitype/StillImage" />
        <dc:title></dc:title>
      </cc:Work>
    </rdf:RDF>
  </metadata>
  <defs
     id="defs11" />
  <sodipodi:namedview
     pagecolor="#ffffff"
     bordercolor="#666666"
     borderopacity="1"
     objecttolerance="10"
     gridtolerance="10"
     guidetolerance="10"
     inkscape:pageopacity="0"
     inkscape:pageshadow="2"
     inkscape:window-width="1920"
     inkscape:window-height="1003"
     id="namedview9"
     showgrid="false"
     fit-margin-top="0"
     fit-margin-left="0"
     fit-margin-right="0"
     fit-margin-bottom="0"
     inkscape:zoom="7.375"
     inkscape:cx="-8.6101695"
     inkscape:cy="14.001856"
     inkscape:window-x="-9"
     inkscape:window-y="-9"
     inkscape:window-maximized="1"
     inkscape:current-layer="svg2" />
  <g
     id="icomoon-ignore"
     transform="translate(0,12.998141)">
    <line
       x1="0"
       y1="0"
       x2="0"
       y2="0"
       opacity=""
       id="line5"
       style="stroke:#449fdb;stroke-width:1" />
  </g>
  <path
     d="m 34.52472,36.832292 c -0.589615,0 -1.179231,-0.224177 -1.629119,-0.674066 -0.899778,-0.899776 -0.899778,-2.356924 0,-3.256701 6.286155,-6.286155 6.286155,-16.513825 0,-22.79998 -0.899778,-0.8997776 -0.899778,-2.3584596 0,-3.2567006 0.899777,-0.898242 2.35846,-0.899778 3.256701,0 3.915412,3.9154106 6.071192,9.1206046 6.071192,14.6574576 0,5.536854 -2.15578,10.742048 -6.071192,14.65746 -0.449888,0.449888 -1.039503,0.674065 -1.629118,0.674065 z m -8.180908,-4.342269 c -0.589615,0 -1.17923,-0.224176 -1.629119,-0.674065 -0.899777,-0.899777 -0.899777,-2.356924 0,-3.256702 3.890845,-3.890844 3.890845,-10.223063 0,-14.113908 -0.899777,-0.899776 -0.899777,-2.358459 0,-3.256701 0.899778,-0.898241 2.356925,-0.899777 3.256702,0 5.687327,5.687327 5.687327,14.941519 0,20.628847 -0.449889,0.449888 -1.039504,0.674064 -1.629119,0.674064 z M 19.257684,0.70762754 c 1.231435,-1.231435 2.238694,-0.813791 2.238694,0.92741526 V 41.364957 c 0,1.741206 -1.007259,2.15885 -2.238694,0.927415 L 7.677278,30.711966 H 0 V 12.286498 H 7.677278 L 19.257684,0.70609254 z"
     id="path7"
     style="fill:#b3b4b5;fill-opacity:1"
     inkscape:connector-curvature="0"
     inkscape:export-xdpi="90"
     inkscape:export-ydpi="90"
     inkscape:export-filename="D:\Work\Commissioner's website\svg\Download icons\icon-file-audio.png" />
</svg>
