<?xml version="1.0" encoding="UTF-8" standalone="no"?>
<!-- Created with Inkscape (http://www.inkscape.org/) -->

<svg
   xmlns:dc="http://purl.org/dc/elements/1.1/"
   xmlns:cc="http://creativecommons.org/ns#"
   xmlns:rdf="http://www.w3.org/1999/02/22-rdf-syntax-ns#"
   xmlns:svg="http://www.w3.org/2000/svg"
   xmlns="http://www.w3.org/2000/svg"
   xmlns:sodipodi="http://sodipodi.sourceforge.net/DTD/sodipodi-0.dtd"
   xmlns:inkscape="http://www.inkscape.org/namespaces/inkscape"
   width="15.999991"
   height="16.765005"
   id="svg2996"
   version="1.1"
   inkscape:version="0.48.4 r9939"
   sodipodi:docname="New document 2">
  <defs
     id="defs2998" />
  <sodipodi:namedview
     id="base"
     pagecolor="#ffffff"
     bordercolor="#666666"
     borderopacity="1.0"
     inkscape:pageopacity="0.0"
     inkscape:pageshadow="2"
     inkscape:zoom="31.678384"
     inkscape:cx="9.3524839"
     inkscape:cy="6.6933781"
     inkscape:document-units="px"
     inkscape:current-layer="layer1"
     showgrid="false"
     fit-margin-top="0"
     fit-margin-left="0"
     fit-margin-right="0"
     fit-margin-bottom="0"
     inkscape:window-width="1920"
     inkscape:window-height="1003"
     inkscape:window-x="-9"
     inkscape:window-y="-9"
     inkscape:window-maximized="1" />
  <metadata
     id="metadata3001">
    <rdf:RDF>
      <cc:Work
         rdf:about="">
        <dc:format>image/svg+xml</dc:format>
        <dc:type
           rdf:resource="http://purl.org/dc/dcmitype/StillImage" />
        <dc:title></dc:title>
      </cc:Work>
    </rdf:RDF>
  </metadata>
  <g
     inkscape:label="Layer 1"
     inkscape:groupmode="layer"
     id="layer1"
     transform="translate(-346.28571,-541.12254)">
    <path
       d="m 361.95314,554.20531 -3.33096,-3.31485 c 0.52424,-0.94448 0.82314,-2.03134 0.82314,-3.18811 0,-3.63398 -2.94582,-6.57981 -6.5798,-6.57981 -3.63398,0 -6.57981,2.94583 -6.57981,6.57981 0,3.6339 2.94583,6.57981 6.57981,6.57981 0.75439,0 1.47886,-0.12729 2.15374,-0.36102 0.0495,0.0871 0.11111,0.1691 0.18558,0.24327 l 3.41108,3.39452 c 0.44191,0.43969 1.15662,0.43794 1.59638,-0.004 l 1.74473,-1.75334 c 0.43977,-0.44183 0.43801,-1.15654 -0.004,-1.59631 z m -9.11936,-2.20624 c -2.33795,0 -4.23331,-1.89528 -4.23331,-4.23331 0,-2.33802 1.89528,-4.23331 4.23331,-4.23331 2.33802,0 4.2333,1.89529 4.2333,4.23331 0,2.33803 -1.89535,4.23331 -4.2333,4.23331 z"
       id="path3"
       inkscape:connector-curvature="0"
       style="fill:#ffffff;fill-opacity:1" />
  </g>
</svg>
