<?xml version="1.0" encoding="UTF-8" standalone="no"?>
<!-- Generator: Adobe Illustrator 18.0.0, SVG Export Plug-In . SVG Version: 6.00 Build 0)  -->

<svg
   xmlns:dc="http://purl.org/dc/elements/1.1/"
   xmlns:cc="http://creativecommons.org/ns#"
   xmlns:rdf="http://www.w3.org/1999/02/22-rdf-syntax-ns#"
   xmlns:svg="http://www.w3.org/2000/svg"
   xmlns="http://www.w3.org/2000/svg"
   xmlns:sodipodi="http://sodipodi.sourceforge.net/DTD/sodipodi-0.dtd"
   xmlns:inkscape="http://www.inkscape.org/namespaces/inkscape"
   version="1.1"
   id="Layer_1"
   x="0px"
   y="0px"
   viewBox="0 0 5.3671818 18.999999"
   enable-background="new 0 0 16 16"
   xml:space="preserve"
   inkscape:version="0.48.4 r9939"
   width="100%"
   height="100%"
   sodipodi:docname="exclamation_mark.svg"><metadata
   id="metadata13"><rdf:RDF><cc:Work
       rdf:about=""><dc:format>image/svg+xml</dc:format><dc:type
         rdf:resource="http://purl.org/dc/dcmitype/StillImage" /></cc:Work></rdf:RDF></metadata><defs
   id="defs11" /><sodipodi:namedview
   pagecolor="#ffffff"
   bordercolor="#666666"
   borderopacity="1"
   objecttolerance="10"
   gridtolerance="10"
   guidetolerance="10"
   inkscape:pageopacity="0"
   inkscape:pageshadow="2"
   inkscape:window-width="1920"
   inkscape:window-height="1003"
   id="namedview9"
   showgrid="false"
   fit-margin-top="0"
   fit-margin-left="0"
   fit-margin-right="0"
   fit-margin-bottom="0"
   inkscape:zoom="14.75"
   inkscape:cx="-10.003543"
   inkscape:cy="7.974999"
   inkscape:window-x="-9"
   inkscape:window-y="-9"
   inkscape:window-maximized="1"
   inkscape:current-layer="Layer_1" />
<g
   id="g3"
   transform="matrix(1.1888452,0,0,1.1888452,-6.7745853,0.00819737)"
   style="fill:#ffffff;fill-opacity:1">
	<path
   clip-rule="evenodd"
   d="m 9,10.3 c -0.7,0 -1.4,0 -2.1,0 C 6.8,8.9 6.6,7.6 6.4,6.2 6,4 4.8,0.2 7.8,0 9.2,-0.1 10.1,0.9 10.2,2.2 10.3,3.4 9.8,4.8 9.6,6.3 9.4,7.7 9.1,9.1 9,10.3 z"
   id="path5"
   inkscape:connector-curvature="0"
   style="fill-rule:evenodd;fill:#ffffff;fill-opacity:1" />
	<path
   clip-rule="evenodd"
   d="m 7.9,11.6 c 1.2,-0.1 2.2,0.9 2.3,2 0.2,3.2 -4.6,3.1 -4.5,0.1 0.1,-1.3 1,-2 2.2,-2.1 z"
   id="path7"
   inkscape:connector-curvature="0"
   style="fill-rule:evenodd;fill:#ffffff;fill-opacity:1" />
</g>
</svg>