<?xml version="1.0" encoding="UTF-8" standalone="no"?>
<!-- Generator: Adobe Illustrator 18.0.0, SVG Export Plug-In . SVG Version: 6.00 Build 0)  -->

<svg
   xmlns:dc="http://purl.org/dc/elements/1.1/"
   xmlns:cc="http://creativecommons.org/ns#"
   xmlns:rdf="http://www.w3.org/1999/02/22-rdf-syntax-ns#"
   xmlns:svg="http://www.w3.org/2000/svg"
   xmlns="http://www.w3.org/2000/svg"
   xmlns:sodipodi="http://sodipodi.sourceforge.net/DTD/sodipodi-0.dtd"
   xmlns:inkscape="http://www.inkscape.org/namespaces/inkscape"
   version="1.1"
   id="Layer_1"
   x="0px"
   y="0px"
   viewBox="0 0 16.15 11.7"
   enable-background="new 0 0 16 16"
   xml:space="preserve"
   inkscape:version="0.48.4 r9939"
   width="100%"
   height="100%"
   sodipodi:docname="check.svg"><metadata
   id="metadata9"><rdf:RDF><cc:Work
       rdf:about=""><dc:format>image/svg+xml</dc:format><dc:type
         rdf:resource="http://purl.org/dc/dcmitype/StillImage" /></cc:Work></rdf:RDF></metadata><defs
   id="defs7" /><sodipodi:namedview
   pagecolor="#ffffff"
   bordercolor="#666666"
   borderopacity="1"
   objecttolerance="10"
   gridtolerance="10"
   guidetolerance="10"
   inkscape:pageopacity="0"
   inkscape:pageshadow="2"
   inkscape:window-width="1920"
   inkscape:window-height="1003"
   id="namedview5"
   showgrid="false"
   fit-margin-top="0"
   fit-margin-left="0"
   fit-margin-right="0"
   fit-margin-bottom="0"
   inkscape:zoom="14.75"
   inkscape:cx="-4.2050847"
   inkscape:cy="5.85"
   inkscape:window-x="-9"
   inkscape:window-y="-9"
   inkscape:window-maximized="1"
   inkscape:current-layer="Layer_1" />
<path
   clip-rule="evenodd"
   d="m 14.6,0.15 c -0.2,-0.2 -0.5,-0.2 -0.7,0 l -7.5,7.2 c -0.2,0.2 -0.5,0.2 -0.7,0 L 2.3,4.15 C 2.2,4.05 2.1,3.95 2,3.95 c -0.1,0 -0.3,0 -0.4,0.1 l -1.4,1.4 c -0.1,0 -0.2,0.2 -0.2,0.3 0,0.1 0.1,0.3 0.2,0.3 l 3.3,3.4 c 0.2,0.2 0.5,0.5 0.7,0.7 l 1.4,1.4 c 0.2,0.2 0.5,0.2 0.7,0 L 16,2.25 c 0.2,-0.2 0.2,-0.5 0,-0.7 l -1.4,-1.4 z"
   id="path3"
   inkscape:connector-curvature="0"
   style="fill-rule:evenodd;fill:#ffffff;fill-opacity:1" />
</svg>