<?xml version="1.0" encoding="utf-8"?>
<!-- Generator: Adobe Illustrator 14.0.0, SVG Export Plug-In . SVG Version: 6.00 Build 43363)  -->
<!DOCTYPE svg PUBLIC "-//W3C//DTD SVG 1.1//EN" "http://www.w3.org/Graphics/SVG/1.1/DTD/svg11.dtd">
<svg version="1.1" id="Layer_1" xmlns="http://www.w3.org/2000/svg" xmlns:xlink="http://www.w3.org/1999/xlink" x="0px" y="0px"
	 width="272.14px" height="275.445px" viewBox="0 0 272.14 275.445" enable-background="new 0 0 272.14 275.445"
	 xml:space="preserve">
<g>
	<path fill-rule="evenodd" clip-rule="evenodd" d="M163.609,39.801c7.664,3.833,17.049,5.946,23.839,10.652
		c9.525-5.96,20.446-26.19,39.056-15.724c6.225,3.501,14.309,12.06,16.738,17.752c7.231,16.942-9.022,27.399-17.246,36.52
		c3.27,7.721,7.424,14.555,9.13,23.839c17.774-1.69,31.573,2.167,34.998,15.217c2.211,8.424,1.658,20.577-1.015,26.375
		c-5.093,11.051-17.312,13.531-33.476,12.173c-3.143,8.016-5.694,16.623-10.145,23.332c7.982,10.096,27.305,21.936,16.231,40.578
		c-4.606,7.754-14.269,17.752-25.868,17.752c-15.162,0-19.066-12.844-28.404-19.781c-6.941,4.386-15.395,7.261-23.839,10.144
		c1.748,18.204-2.21,32.579-16.738,34.999c-22.844,3.805-41.492-6.483-36.52-34.999c-8.023-2.797-15.913-5.728-22.825-9.637
		c-10.733,7.196-19.816,24.958-37.534,17.752c-5.801-2.359-16.901-13.179-19.274-19.782c-6.415-17.851,10.289-26.926,18.26-36.52
		c-4.435-6.894-7.251-15.404-10.144-23.839c-14.118,0.303-23.255,0.673-29.926-6.594C1.65,152.107,0.768,133.467,5.864,124
		c5.362-9.961,16.61-12.362,32.462-11.159c3.349-7.472,5.548-16.093,9.637-22.825c-5.978-9.827-25.079-19.403-16.738-38.042
		C33.429,47.049,42.486,37.2,48.47,34.222c17.615-8.763,28.455,8.672,37.534,16.738c7.23-4.268,15.14-7.855,24.347-10.145
		c0.562-11.243-1.561-18.811,3.043-26.375c10.656-17.509,45.058-12.081,49.707,5.072C164.602,25.045,163.041,31.593,163.609,39.801z
		 M94.627,98.132c-8.824,8.942-15.842,22.307-16.738,39.056c-1.858,34.719,22.89,57.584,49.2,61.88
		c5.723,0.935,13.101,0.988,17.245,0.507c28.408-3.295,52.399-26.736,52.244-59.852c-0.121-25.684-15.951-45.285-33.984-53.765
		c-7.851-3.692-20.151-5.833-29.418-5.072C114.907,82.386,104.048,88.584,94.627,98.132z"/>
	<path fill-rule="evenodd" clip-rule="evenodd" d="M132.161,113.348c21.031-3.587,39.936,16.555,28.912,38.549
		c-12.239,24.417-50.529,14.731-50.722-12.173C110.252,125.908,119.257,115.549,132.161,113.348z"/>
</g>
</svg>
