<?xml version="1.0" encoding="utf-8"?>
<!-- Generator: Adobe Illustrator 18.1.0, SVG Export Plug-In . SVG Version: 6.00 Build 0)  -->
<svg version="1.1" id="Layer_1" xmlns="http://www.w3.org/2000/svg" xmlns:xlink="http://www.w3.org/1999/xlink" x="0px" y="0px"
	 viewBox="0 223.9 595.3 396" enable-background="new 0 223.9 595.3 396" xml:space="preserve">
<path fill="#006FB4" d="M311,475.5c-3.2-0.5-3.5-9.4-3.5-9.4s9.7-9.4,11.9-22.3c5.7,0,9.2-13.6,3.5-18.4c0.2-5,7.4-39.7-28.5-39.7
	s-28.8,34.5-28.5,39.7c-5.7,4.7-2.2,18.4,3.5,18.4c2.2,12.9,11.9,22.3,11.9,22.3s0,8.9-3.5,9.4c-10.7,1.7-50.4,19.1-50.4,38.2h133.9
	C361.4,494.6,321.7,477,311,475.5L311,475.5z M242.8,478.5c7.7-4.7,17.1-9.2,24.6-11.7c-2.7-4-5.7-9.2-7.7-15.6
	c-2.7-2.2-5-5.2-6.2-9.2c-1.5-3.7-2-8.2-1.5-12.2c0.2-3,1.2-5.5,2.5-7.9c-0.7-8.2-1.2-24.1,9.2-35.7c4-4.5,9.2-7.7,15.4-9.7
	c-1-11.4-6.9-24.6-29-24.6c-35.7,0-28.8,34.5-28.5,39.7c-5.7,4.7-2.2,18.4,3.5,18.4c2.2,12.9,11.9,22.3,11.9,22.3s0,8.9-3.5,9.4
	c-10.7,1.7-50.4,19.1-50.4,38.2h57.3C241.1,479.5,242.1,479,242.8,478.5L242.8,478.5z"/>
<path fill="#006FB4" d="M345.3,479c1,0.5,1.7,1,2.5,1.7h57.5c0-19.1-39.7-36.5-50.4-38.2c-3.2-0.5-3.5-9.4-3.5-9.4
	s9.7-9.4,11.9-22.3c5.7,0,9.2-13.6,3.5-18.4c0.2-5,7.4-39.7-28.5-39.7c-22.1,0-28,13.1-29,24.6c6.2,2,11.2,5.2,15.4,9.7
	c10.4,11.7,9.9,27.5,9.2,35.7c1.2,2.2,2,5,2.5,7.9c0.5,4,0,8.2-1.5,12.2c-1.5,3.7-3.5,6.9-6.2,9.2c-2,6.2-5,11.7-7.7,15.6
	C328.4,469.8,337.6,474.3,345.3,479L345.3,479z"/>
<path fill="#006FB4" d="M391.4,446.2c1,0.5,1.7,1,2.5,1.7h57.5c0-19.1-39.7-36.5-50.4-38.2c-3.2-0.5-3.5-9.4-3.5-9.4
	s9.7-9.4,11.9-22.3c5.7,0,9.2-13.6,3.5-18.4c0.2-5,7.4-39.7-28.5-39.7c-22.1,0-28,13.1-29,24.6c6.2,2,11.2,5.2,15.4,9.7
	c10.4,11.7,9.9,27.5,9.2,35.7c1.2,2.2,2,5,2.5,7.9c0.5,4,0,8.2-1.5,12.2c-1.5,3.7-3.5,6.9-6.2,9.2c-2,6.2-5,11.7-7.7,15.6
	C374.5,437.1,383.7,441.5,391.4,446.2L391.4,446.2z"/>
<path fill="#006FB4" d="M196.9,446.2c7.7-4.7,17.1-9.2,24.6-11.7c-2.7-4-5.7-9.2-7.7-15.6c-2.7-2.2-5-5.2-6.2-9.2
	c-1.5-3.7-2-8.2-1.5-12.2c0.2-3,1.2-5.5,2.5-7.9c-0.7-8.2-1.2-24.1,9.2-35.7c4-4.5,9.2-7.7,15.4-9.7c-1.2-11.4-6.9-24.6-29-24.6
	c-35.7,0-28.8,34.5-28.5,39.7c-5.7,4.7-2.2,18.4,3.5,18.4c2.2,12.9,11.9,22.3,11.9,22.3s0,8.9-3.5,9.4
	c-10.7,1.7-50.4,19.1-50.4,38.2h57.5C195.5,447.2,196.2,446.7,196.9,446.2L196.9,446.2z"/>
</svg>
