<?xml version="1.0" encoding="UTF-8" standalone="no"?>
<svg width="300px" height="300px" viewBox="0 0 300 300" version="1.1" xmlns="http://www.w3.org/2000/svg" xmlns:xlink="http://www.w3.org/1999/xlink" xmlns:sketch="http://www.bohemiancoding.com/sketch/ns">
    <!-- Generator: Sketch 3.0.3 (7891) - http://www.bohemiancoding.com/sketch -->
    <title>Artboard 1</title>
    <desc>Created with Sketch.</desc>
    <defs></defs>
    <g id="Page-1" stroke="none" stroke-width="1" fill="none" fill-rule="evenodd" sketch:type="MSPage">
        <g id="Artboard-1" sketch:type="MSArtboardGroup" fill="#000000">
            <g id="institution-law" sketch:type="MSLayerGroup" transform="translate(6.000000, 11.000000)">
                <g id="Group" sketch:type="MSShapeGroup">
                    <path d="M141.912969,0.366833333 L145.384466,0.366833333 C185.607605,21.3125 228.145076,47.0683333 269.744933,70.3674167 C275.277632,73.4648333 284.826834,76.8541667 286.519964,80.7808333 C288.752933,85.9526667 287.09209,98.4353333 284.784215,100.451625 C280.960143,103.786708 261.20696,102.186333 250.656861,102.186333 L36.0594081,102.186333 C22.7636233,102.186333 2.44606278,104.98925 0.196304933,96.979625 L0.196304933,82.5168333 C1.2927713,79.2618333 3.44437668,78.0683333 5.40226009,76.7314583 C15.2562511,70.001875 27.4439462,64.1596667 38.9510314,57.640625 C71.773991,39.0445 108.995731,18.0239167 141.912969,0.366833333 L141.912969,0.366833333 Z M139.598637,76.1527917 C164.699839,81.0830833 165.526386,39.6399583 139.598637,45.4912083 C121.960897,49.472125 127.572377,73.7903333 139.598637,76.1527917 L139.598637,76.1527917 Z" id="Shape"></path>
                    <path d="M92.1677489,112.021083 C94.593148,121.305583 91.2055964,129.492167 83.4915874,130.534542 C83.1118924,154.644792 84.2535605,180.277917 82.9130045,203.425875 C69.187157,204.384292 51.5210045,204.384292 37.795157,203.425875 C36.4546009,180.471667 37.5949776,155.029708 37.216574,131.113208 C30.3252377,129.058167 25.7120717,121.897167 28.5404126,112.022375 C48.41887,111.058792 72.2892915,111.058792 92.1677489,112.021083 L92.1677489,112.021083 Z" id="Shape"></path>
                    <path d="M175.46174,112.021083 C177.889722,121.305583 174.500879,129.492167 166.784287,130.534542 C166.405883,154.644792 167.547552,180.277917 166.205704,203.425875 C152.479857,204.384292 134.814996,204.384292 121.089148,203.425875 C119.7473,180.471667 120.888969,155.029708 120.510565,131.113208 C113.619229,129.058167 109.006063,121.897167 111.834404,112.022375 C131.712861,111.058792 155.581991,111.058792 175.46174,112.021083 L175.46174,112.021083 Z" id="Shape"></path>
                    <path d="M258.755731,112.021083 C261.182422,121.305583 257.79487,129.492167 250.07957,130.534542 C249.699874,154.644792 250.842834,180.277917 249.500987,203.425875 C235.775139,204.384292 218.108987,204.384292 204.383139,203.425875 C203.041291,180.471667 204.184251,155.029708 203.804556,131.113208 C196.911928,129.058167 192.300054,121.897167 195.127103,112.022375 C215.006852,111.058792 238.875982,111.058792 258.755731,112.021083 L258.755731,112.021083 Z" id="Shape"></path>
                    <path d="M23.9130404,213.839292 C29.760861,211.832042 45.7338834,213.261917 55.1487713,213.261917 L146.540341,213.261917 L207.274762,213.261917 L237.930619,213.261917 C246.56287,213.261917 263.201004,212.316417 266.273435,214.997917 C270.35322,218.555167 269.413022,236.550667 266.273435,239.295458 C262.675372,242.444542 246.043695,241.031458 236.773453,241.031458 L49.9415247,241.031458 C41.6786368,241.031458 24.8919821,242.673167 21.0201256,239.295458 C16.2274439,235.11175 17.4143139,216.066125 23.9130404,213.839292 L23.9130404,213.839292 Z" id="Shape"></path>
                    <path d="M0.197596413,272.269125 L0.197596413,256.070333 C1.760287,252.532458 3.15121076,251.036708 6.55942601,250.284958 C15.5274619,248.31 29.1771121,250.284958 41.2653632,250.284958 L251.236735,250.284958 C261.981848,250.284958 280.991139,248.665208 284.785507,252.020958 C288.674152,255.459375 287.74687,273.73 284.785507,276.319792 C281.112538,279.532167 262.033507,278.053208 251.814027,278.053208 L41.2666547,278.053208 C24.5058296,278.053208 4.27221525,281.601417 0.197596413,272.269125 L0.197596413,272.269125 Z" id="Shape"></path>
                </g>
            </g>
        </g>
    </g>
</svg>